<svg width="193" height="65" viewBox="0 0 193 65" fill="none" xmlns="http://www.w3.org/2000/svg">
<path fill-rule="evenodd" clip-rule="evenodd" d="M27.0104 3.76953C27.0904 3.76953 27.1604 3.76953 27.2404 3.76953C27.9404 4.24953 27.6204 5.28953 27.3904 6.26953C27.2604 6.83953 27.2304 7.56954 26.7104 7.55954C26.0404 6.45954 27.6904 5.12953 27.0104 3.76953Z" fill="#282F39"/>
<path fill-rule="evenodd" clip-rule="evenodd" d="M4.20006 23.3896C4.29006 23.3796 4.33007 23.4096 4.35006 23.4596C3.95007 24.3996 4.16006 25.9496 3.14006 26.2596C2.75006 25.1096 3.80006 24.2496 4.20006 23.3896Z" fill="#282F39"/>
<path fill-rule="evenodd" clip-rule="evenodd" d="M35.7303 31.9497C35.8103 31.9497 35.8803 31.9497 35.9603 31.9497C35.8303 32.3497 35.3403 32.4497 35.0503 32.7097C34.1603 33.4997 33.4103 34.5697 32.4703 35.5097C31.3103 36.6697 29.1803 38.5897 29.2903 40.7397C28.1803 40.7497 28.1503 39.5597 28.5303 38.6897C29.1003 37.3797 30.4203 36.1197 31.5603 34.9797C32.5003 34.0397 33.2303 33.3597 34.3603 32.7097C34.8203 32.4497 35.3203 32.2597 35.7303 31.9497Z" fill="#282F39"/>
<path fill-rule="evenodd" clip-rule="evenodd" d="M28.4504 33.0197C27.9104 33.6697 27.4604 34.3898 27.0104 35.1398C26.6004 35.8298 26.2204 36.7398 25.4204 37.0298C25.3404 34.9798 27.2304 34.2398 28.2204 33.0098C28.3004 33.0198 28.3704 33.0197 28.4504 33.0197Z" fill="#282F39"/>
<path fill-rule="evenodd" clip-rule="evenodd" d="M13.0702 39.46C13.2802 39.59 13.2102 39.56 13.1502 39.69C12.8202 40.33 12.0202 40.97 11.4802 41.66C10.4602 42.99 9.30024 44.23 8.30024 45.6C7.80024 46.29 7.58023 47.22 6.78023 47.65C6.36023 46.71 7.12024 45.84 7.61024 45.15C9.10024 43.02 10.8802 40.8 13.0702 39.46Z" fill="#282F39"/>
<path fill-rule="evenodd" clip-rule="evenodd" d="M16.0204 40.8198C15.5604 41.4898 14.9104 42.0898 14.3504 42.7898C13.2804 44.1198 12.0904 45.6098 11.1704 47.1798C10.7304 47.9298 10.5304 48.9398 9.73044 49.2998C9.20044 48.0398 10.3604 46.8498 11.0204 45.8898C11.7004 44.8998 12.3404 43.7598 13.1404 42.9398C13.9704 42.0898 15.0404 41.5598 15.7904 40.8198C15.8704 40.8198 15.9504 40.8198 16.0204 40.8198Z" fill="#282F39"/>
<path fill-rule="evenodd" clip-rule="evenodd" d="M27.6904 3.30976C26.2804 3.70976 24.8704 3.51978 24.0504 4.44978C23.5904 4.96978 23.5504 5.91978 22.6104 5.88978C22.2904 5.64978 22.3504 5.03976 21.9304 4.89976C20.8904 4.94976 20.8104 6.80977 21.2504 7.62977C21.4204 7.80977 21.8804 7.70975 22.0804 7.85975C22.4704 8.88975 21.6805 9.92975 21.8505 10.7398C22.0105 11.4498 22.9104 11.5698 23.4404 12.0298C24.4304 11.3398 25.1204 10.1498 25.8604 9.14976C26.0804 8.85976 26.3204 8.45977 26.6204 8.31977C26.2404 10.5098 25.1404 11.9998 23.6704 13.0898C23.2804 13.0198 23.1804 12.6698 22.7604 12.6398C22.6304 13.0198 23.3604 13.5798 22.9104 14.0798C25.3504 15.9698 27.2104 18.5598 29.7304 20.5198C30.5504 21.1598 31.3605 21.9698 32.2305 22.5698C33.0305 23.1198 34.4705 23.5398 34.3505 24.8398C34.0705 25.3098 33.2105 24.7298 32.9805 25.2198C33.0705 25.8398 33.9804 25.8298 34.8004 25.4498C34.9704 25.3698 35.0604 25.2098 35.2504 25.0698C35.8704 24.6398 36.8404 24.4298 37.5204 24.0798C38.3004 23.6898 38.5605 22.6798 39.0405 22.3398C38.5205 21.2498 37.3904 20.7598 37.2204 19.3098C38.8604 18.4098 39.5604 21.6098 40.7104 22.1898C41.1704 22.4298 41.7004 22.2698 42.3004 22.3398C42.7704 23.2098 43.8404 23.4698 43.8104 24.8398C45.0304 24.5298 46.4005 23.7598 47.6005 23.1798C47.9905 22.9898 48.6305 22.6398 48.8905 22.6498C49.3405 22.6698 50.1605 23.4098 50.1005 23.9398C50.0005 24.9198 47.4504 24.9997 46.8404 25.6097C49.9304 26.6597 52.5105 28.4198 55.1005 30.1598C56.9705 31.4098 58.5904 32.9498 60.2504 34.0198C60.6904 34.3098 61.3904 34.5398 61.9904 34.9298C62.5904 35.3098 63.0804 35.8898 63.5804 35.9898C64.3204 36.1298 65.0404 35.6298 65.5504 36.3698C66.8704 36.2298 68.2704 35.8798 69.9404 35.9198C70.3404 35.9298 70.7805 36.0698 71.2305 35.9998C71.9205 35.8898 72.7704 35.3998 73.2704 35.0898C73.9004 34.6998 74.4105 34.0098 75.1705 34.0298C75.7105 34.0398 76.5504 34.5798 76.6104 35.0898C76.7904 36.7098 74.6604 35.8698 74.1804 36.9098C74.4104 37.2298 74.7204 36.5998 74.8604 36.8298C74.6104 37.1398 74.4504 37.5298 74.4104 38.0398C72.7204 39.6598 70.6705 40.9198 68.9505 42.5098C68.7205 42.5298 68.6804 42.7398 68.3404 42.6598C68.1704 43.9498 66.7804 43.7198 65.7605 44.0198C64.3805 42.6898 63.2004 41.1797 61.0604 40.6097C60.0004 41.2797 57.6904 40.8298 57.5804 39.3998C57.1404 39.3098 56.6904 39.2298 56.2204 39.1698C56.0004 39.6598 56.5305 40.1398 56.6005 40.6798C56.7105 41.4998 56.5204 42.6798 56.5204 43.6298C56.5204 43.9298 56.6305 44.2798 56.6005 44.5398C56.4805 45.4398 55.6804 46.0198 55.6204 46.7398C55.6604 47.1998 56.2104 47.1598 56.3004 47.5698C56.5604 47.4498 56.3804 46.8898 56.5304 46.6598C56.5104 47.8598 57.2804 48.8198 57.4404 49.9198C57.6404 51.2898 56.8905 52.8898 57.6705 53.7798C57.6705 54.1298 57.4504 54.2698 57.5204 54.6898C58.0204 55.2898 59.6104 55.7198 58.5804 56.7398C58.8004 57.1498 59.1205 57.4698 59.2605 57.9498C60.8005 58.1998 62.1104 58.6798 62.9704 59.6198C64.2004 60.0598 66.1404 59.7898 66.0804 61.5098C64.3004 63.0598 59.4205 61.9998 56.3805 61.9698C55.2005 61.9598 53.9004 62.6698 53.5004 61.5098C53.9404 60.8098 53.8605 60.0898 53.4205 59.0898C53.1805 58.5398 52.7404 58.2498 52.7404 57.8798C52.7404 57.4298 53.1304 57.0398 53.6504 56.8198C53.3104 56.3698 52.9404 56.2998 52.7404 55.8398C52.4904 55.2498 52.7804 54.6498 52.6604 53.9498C52.4905 52.9698 51.5305 52.3698 51.1405 51.6798C50.6505 52.6498 51.4005 55.4698 50.2305 55.5398C49.0905 55.6098 49.2104 52.3098 48.8704 51.2198C47.0704 51.8998 46.7104 54.6598 44.6305 55.3098C44.7105 57.6798 44.5704 59.9498 44.4004 62.2098C44.3404 62.9598 44.3505 64.1997 43.6405 64.3298C42.3605 64.5597 42.2304 62.2397 41.9704 61.2998C41.4904 59.5498 40.9804 57.9398 40.6804 56.0698C37.8504 56.2398 34.8504 56.2398 31.8104 56.3698C23.4204 56.7398 14.4904 55.8898 6.65044 56.5198C5.59044 58.7998 5.28044 61.8198 4.15044 64.0198C3.96044 64.1298 3.41045 64.2898 3.16045 64.0998C2.39045 63.3698 2.71045 62.0298 2.63045 60.9198C2.58045 60.1798 2.48044 58.9798 2.48044 58.0398C2.47044 55.8298 2.92045 53.5598 2.63045 51.5198C2.58045 51.1798 2.37045 50.8598 2.33045 50.5298C2.17045 49.3598 2.57045 48.0698 2.41045 46.7398C2.24045 45.3498 1.77044 43.9198 1.65044 42.3498C1.46044 39.6998 1.43045 36.8798 1.27045 34.3198C1.14045 32.1898 0.58045 29.9998 1.88045 28.7898C1.64045 27.0398 0.0604417 24.6898 0.590442 22.9598C1.06044 21.4398 3.17045 21.1198 4.91045 20.6898C5.82045 20.2698 7.09045 19.6098 8.32045 19.6298C8.80045 19.6398 9.64044 19.7198 10.0604 20.0098C10.2804 20.1598 10.2804 20.4998 10.5204 20.7698C10.7404 21.0198 11.0604 21.1198 11.2004 21.2998C11.5504 21.7598 11.5504 22.5798 12.2604 22.7398C12.0904 19.8398 12.1004 17.3398 13.0204 15.0098C13.2104 14.5298 13.5104 14.0498 13.7004 13.5698C14.3004 12.0698 14.6504 11.1198 15.9704 10.3098C16.5104 9.97976 17.2004 9.73977 17.7904 9.62977C17.6804 8.10977 17.4304 5.68975 18.0904 4.70975C17.8904 2.89976 19.0004 2.38977 19.8304 1.59977C20.9604 1.45977 22.1105 0.799777 23.8505 0.919777C25.2105 1.00978 27.0904 1.40976 27.4104 1.74976C27.8304 2.10976 27.6504 2.80976 27.6904 3.30976ZM5.19045 54.4598C5.80045 54.8098 6.83045 54.7398 7.77045 54.7598C8.13045 54.4098 8.34045 53.8798 8.75045 53.5498C9.34045 53.0698 10.0504 52.6198 10.7204 52.4898C10.0104 52.9898 9.41045 53.5998 9.05045 54.4598C10.0004 54.4798 11.1604 54.2298 12.3104 53.4698C12.5604 53.2998 14.7904 51.3698 15.0404 52.4798C15.2504 53.4098 13.6204 53.3698 13.4504 54.1498C14.8404 54.3998 15.6404 53.4098 16.6304 53.0098C15.8104 52.2498 14.8504 51.4698 15.1904 49.9798C15.6204 48.0798 17.2205 46.1698 18.6005 44.5998C19.9505 43.0598 21.6405 41.2798 23.0705 40.2798C23.9805 39.6498 25.1304 39.0198 26.0304 38.9198C24.5004 40.1398 22.4304 41.9898 20.5804 43.9998C19.0704 45.6298 16.7804 48.0198 16.2604 50.2898C15.5104 53.5598 21.1304 51.2998 22.2504 50.6698C24.5904 46.3198 28.1704 42.8798 32.0204 40.2098C32.6104 39.7998 33.3105 39.5898 33.9104 39.1498C34.9604 38.3898 35.8104 37.1898 36.8704 36.3398C37.4004 35.9198 38.0304 35.5298 38.6104 35.2098C39.2004 34.8798 39.8604 34.5498 40.5804 34.4498C39.1404 35.6798 37.8604 37.1698 36.4904 38.5398C35.1604 39.8698 33.6204 41.2798 33.1604 43.2398C34.0205 43.5098 34.9304 43.1098 35.5804 42.7898C38.2404 41.4698 39.6304 39.0098 41.9404 37.4898C41.5205 35.8298 41.0905 34.1998 40.8805 32.3398C40.7905 31.7598 39.2304 31.3798 39.4404 30.4498C39.7505 29.0198 41.6204 30.8798 41.7104 31.4298C41.9304 32.7998 42.2005 33.4298 42.5405 34.6898C43.2505 37.2798 44.1805 40.1598 44.6604 42.7998C45.0504 44.9398 45.2504 47.6098 45.4904 49.6998C46.3004 49.8998 46.1505 51.1198 46.1705 51.8998C46.9905 51.3298 47.4205 50.4998 48.1405 49.6298C48.5205 49.1698 49.9104 47.8298 49.9604 47.1998C50.0004 46.7598 49.5204 45.8798 49.2804 45.2298C48.7504 43.7998 48.3204 42.0098 48.5204 40.4598C47.4404 40.0898 47.1104 37.9098 45.5604 38.9398C45.8404 41.5798 46.3904 44.7098 45.8604 47.6498C44.8104 44.5698 44.8404 40.9398 44.1204 37.4998C43.6804 35.3998 43.1205 33.4498 42.9805 31.2898C42.4405 30.5098 42.3304 29.3198 41.6204 28.7098C37.5204 28.3998 32.3304 28.5898 29.0404 27.9498C28.5404 28.3498 28.6204 28.9498 27.9004 29.0098C26.7204 29.1098 26.3505 27.4298 25.8505 26.5898C25.4405 26.8398 25.3604 27.4098 25.1704 27.8798C23.7004 28.5698 22.0204 28.1398 20.4704 28.2598C17.9704 28.4498 15.2204 28.0398 12.6704 28.2598C10.5704 28.4398 7.49044 28.4198 5.62044 28.7198C5.10044 28.7998 4.46044 28.6898 4.03044 28.7998C2.04044 29.3098 2.65045 32.2298 2.74045 34.4098C2.86045 37.2098 3.03045 40.7398 3.27045 43.1198C3.39045 44.3298 3.21045 45.6898 3.27045 47.0598C3.31045 47.8898 3.45045 48.6798 3.50045 49.4798C3.59045 51.0498 3.43044 52.4598 3.73044 53.7198C4.23044 55.8498 5.05044 53.3598 5.62044 53.6398C5.31044 53.7198 5.25045 54.0898 5.19045 54.4598ZM19.9605 10.6598C20.5305 10.7498 20.7505 11.1798 21.3205 11.2698C21.0105 10.6898 21.0604 9.99978 20.8604 9.44978C20.6304 9.90978 20.2005 10.1898 19.9605 10.6598ZM15.4204 13.0098C15.9004 12.1998 17.0004 12.0098 17.9204 11.6498C17.1204 11.0898 15.5804 11.9698 15.4204 13.0098ZM16.9304 12.7098C16.3804 13.1698 16.5104 14.1098 15.4104 14.1498C15.2204 13.7798 15.4604 13.3398 15.1804 13.1598C15.0804 14.6798 14.1004 15.7198 14.1904 17.1798C14.3204 16.5498 14.7704 16.2498 15.0204 15.7398C16.2404 15.9698 15.4604 16.9498 15.4804 17.7898C15.4904 18.7498 16.0004 19.3298 16.6204 19.8398C16.6104 17.1798 16.9104 14.8198 17.7604 13.0198C17.9604 15.9298 17.4604 18.5798 17.5304 21.7298C18.2004 22.5498 18.8304 23.4097 19.6504 24.0798C19.7904 21.9598 19.4504 19.7998 19.7304 17.7198C19.9104 16.3798 20.4604 15.3498 20.4904 14.0798C19.4904 13.2098 18.3004 11.5498 16.9304 12.7098ZM22.7704 16.7998C22.1804 15.9698 22.1104 14.6298 20.8004 14.5298C20.8604 17.9098 20.5604 22.2998 21.1005 25.4398C21.4605 25.4698 21.6804 24.9598 22.0104 25.2098C22.3404 25.8598 21.5004 26.2698 21.8604 26.9498C22.1504 27.1098 22.7304 26.9898 23.1504 27.0298C22.0304 24.3398 21.7304 19.7398 22.7704 16.7998ZM23.7504 16.0398C23.8604 15.6098 23.5304 15.0098 23.2204 14.7498C23.4004 15.1798 23.2704 15.9198 23.7504 16.0398ZM23.1504 17.4798C23.2304 19.2798 23.3304 21.0598 23.5304 22.7798C23.6904 24.1798 23.7704 25.7598 24.6704 26.3398C25.0104 24.8198 25.7704 22.9298 25.1304 21.3398C24.8504 20.6598 24.1005 20.1798 23.9904 19.5198C23.8505 18.5998 24.2505 17.7498 23.3804 17.3198C23.3604 17.2598 23.3204 17.2298 23.2304 17.2398C23.2304 17.3598 23.1904 17.4198 23.1504 17.4798ZM14.3604 22.1798C14.6004 21.3598 15.1104 20.8097 15.1904 19.8298C15.0404 19.7997 15.1304 19.5398 14.8904 19.5998C14.6904 20.4398 14.4404 21.2298 14.3604 22.1798ZM12.0104 25.1398C11.3904 23.5398 10.3704 22.0998 9.51044 20.9698C7.94044 20.7798 5.35045 20.5798 4.13045 21.1998C3.38045 21.5798 1.76045 22.8698 1.63045 23.3998C1.48045 24.0098 1.99044 24.6598 1.48044 25.2198C2.14044 25.9698 2.19045 27.3398 2.69045 28.2498C3.57045 28.0998 4.42044 27.9098 5.34044 27.7898C5.14044 25.5798 6.42045 23.7198 7.38045 22.4898C7.70045 22.0898 8.07045 21.6098 8.52045 21.5098C7.55045 23.1598 6.87045 25.1098 6.32045 27.1898C6.68045 27.2498 7.13045 27.3998 7.38045 27.3398C7.83045 25.5198 8.77044 24.1798 10.0304 23.1698C9.37044 24.0798 9.12044 25.3898 8.89044 26.7298C9.84044 26.7298 9.92044 24.8598 10.9304 25.0598C11.5604 25.1798 11.4405 26.3498 12.0705 26.6498C12.6105 26.2798 12.1804 25.5698 12.0104 25.1398ZM16.1005 23.7698C16.3905 22.7398 17.1004 22.0498 16.5604 20.7398C16.3504 21.6198 15.7405 22.8298 16.1005 23.7698ZM41.6405 23.3198C40.2205 22.2998 38.2804 23.6098 38.3104 25.0598C38.9904 25.5398 39.9005 25.7898 40.1305 26.7298C41.2105 26.2198 42.2904 25.6998 43.2404 25.0598C42.3904 24.8498 42.3005 23.7998 41.6405 23.3198ZM27.9204 27.4098C28.0404 26.9498 28.1004 26.4298 28.1504 25.8998C27.6604 25.4698 27.4304 24.7998 27.0104 24.3098C27.0204 25.3298 27.2504 26.7798 27.9204 27.4098ZM30.1204 25.7398C30.4104 25.6198 30.2704 24.9098 30.1204 24.7498C30.0404 24.7498 29.9704 24.7498 29.8904 24.7498C29.7604 25.0198 29.8804 25.5998 30.1204 25.7398ZM31.4104 26.5798C31.5504 26.7197 31.8804 26.5998 31.8604 26.3498C31.6304 26.2398 31.4204 26.2798 31.4104 26.5798ZM43.0004 27.4098C42.9604 27.7798 43.3204 27.7398 43.3004 28.0898C42.5704 28.8298 42.9404 29.2198 43.7504 29.6798C44.4204 28.3298 45.6804 27.5698 46.7804 26.6498C45.5304 26.3098 44.1304 27.1198 43.0004 27.4098ZM49.2104 27.4098C48.7004 27.0398 48.1804 26.6698 47.3104 26.6498C46.7904 27.0398 46.3304 27.7898 45.8004 28.6198C44.9404 29.9798 43.6904 31.1698 45.1204 32.7098C44.5604 33.2898 44.6104 34.5298 44.9704 35.2898C45.2304 35.2998 45.0905 34.9098 45.3505 34.9098C45.4505 35.2398 46.0304 35.0897 46.1804 35.3597C45.8404 34.6497 45.3605 34.1298 45.5705 33.2398C46.1005 31.0598 48.8004 29.0498 50.7204 28.6198C50.9304 28.8398 50.6404 28.9898 50.3404 28.9198C48.9404 30.4798 47.2705 31.7598 46.6305 34.0698C46.7304 34.1398 46.7804 34.2698 46.8604 34.3698C48.1504 34.5498 48.5505 33.6898 48.9805 33.0798C49.7105 32.0298 51.3105 30.8398 52.8505 30.4998C51.8205 29.4998 50.9004 28.4098 49.9704 27.3198C49.7104 27.3498 49.5304 27.4498 49.2104 27.4098ZM49.7404 34.5298C51.2704 35.0098 52.7004 34.3198 53.8304 33.7698C54.5304 33.4298 55.3304 33.1598 55.7204 32.6298C55.2804 32.1098 54.3405 31.4298 53.6005 30.9598C52.8005 32.6398 50.8904 33.1998 49.7404 34.5298ZM56.7905 33.6198C56.0105 33.9598 54.6505 34.8198 54.2905 35.5898C55.6505 35.2798 57.6704 35.6398 58.4604 34.7598C57.9904 34.5598 57.2805 33.4098 56.7905 33.6198ZM49.3604 35.7398C48.8904 35.1998 48.4405 34.7898 47.5405 35.2098C48.4105 36.0298 50.2304 35.9098 51.4004 36.4198C51.6104 36.1798 52.1505 36.2598 52.3805 36.0398C52.2105 36.0098 52.3504 35.6698 52.3104 35.5098C51.3604 35.6398 50.3704 35.8898 49.3604 35.7398ZM59.7504 36.5798C59.8104 36.7798 59.9305 36.8998 60.1305 36.9598C60.2705 36.7198 60.5704 36.6398 60.6604 36.3498C60.4005 36.1098 59.7604 36.1497 59.7504 36.5798ZM45.2704 37.0298C45.4104 37.0198 45.5205 36.9798 45.5705 36.8798C45.4605 36.8398 45.3804 36.7698 45.2704 36.7298C45.2704 36.8298 45.2704 36.9298 45.2704 37.0298ZM62.0904 37.7898C62.6204 37.8998 63.0904 37.3298 63.6104 37.1798C63.1104 36.3098 62.2304 37.1798 62.0904 37.7898ZM64.8204 38.3998C65.4104 38.1398 66.0304 37.8998 66.4104 37.4198C65.3804 37.1898 64.9805 37.9898 64.8204 38.3998ZM68.6804 38.0198C68.7204 37.7598 69.1404 37.8698 69.0604 37.4898C68.9104 37.3298 68.4104 37.7598 68.6804 38.0198ZM55.4304 38.6998C55.4704 39.0198 55.7104 39.1198 55.8104 39.3798C56.0704 38.9998 55.5605 38.8598 55.5105 38.5498C55.4805 38.6098 55.5004 38.6998 55.4304 38.6998ZM40.3505 41.2698C41.2505 41.1298 41.8104 40.6598 42.6204 40.4398C42.6204 39.9598 42.4705 39.6198 42.3905 39.2298C41.3405 39.5398 40.9505 40.5198 40.3505 41.2698ZM63.0804 40.7398C63.2504 40.7898 63.5404 40.8898 63.6904 40.7398C63.6904 40.6398 63.6904 40.5398 63.6904 40.4398C63.4404 40.4998 63.1104 40.4798 63.0804 40.7398ZM29.0604 44.1498C27.4204 45.7898 25.8404 47.3798 24.5104 49.4498C23.5904 50.8798 21.7704 54.3898 25.2704 53.9998C26.4604 53.8698 28.9504 52.6798 29.5904 52.0298C29.8904 51.7298 30.0004 51.2098 30.2704 50.8198C32.0404 48.2098 34.9305 46.3798 36.2605 43.5498C35.3005 43.8798 34.1404 44.7598 32.9304 44.5398C31.6804 44.3098 31.5804 42.9198 31.8704 41.7398C30.9404 42.4298 29.9604 43.2498 29.0604 44.1498ZM37.3205 45.8198C38.0205 45.9698 38.4604 44.7798 39.2104 45.2098C39.6804 44.2698 40.2905 43.4598 40.8805 42.6298C40.8705 42.5398 40.8605 42.4498 40.7305 42.4798C39.4505 43.4598 37.9905 44.2498 37.3205 45.8198ZM54.3604 45.5898C54.8404 44.8898 55.6405 44.4898 55.5705 43.2398C54.9105 43.7198 54.4704 44.8098 54.3604 45.5898ZM34.9704 47.7898C34.8004 47.7798 34.7304 47.8498 34.7404 48.0198C34.9004 48.2098 35.3505 47.6098 35.0405 47.5698C35.0305 47.6498 35.0604 47.7798 34.9704 47.7898ZM35.9505 48.4698C35.1705 49.0498 34.4804 49.7197 33.6804 50.3597C32.6304 51.2097 31.1704 51.8498 30.9504 53.3198C33.1804 52.7198 34.9205 51.1798 36.4805 49.9098C36.9705 49.5098 37.9004 49.1598 37.7704 48.3198C37.2204 48.4598 36.6205 48.6698 35.9505 48.4698ZM52.1705 50.9698C52.3605 50.7298 52.1404 50.3798 52.0204 50.2098C51.9404 50.2098 51.8705 50.2098 51.7905 50.2098C51.7105 50.4098 51.8205 50.9598 52.1705 50.9698ZM37.4704 52.3398C38.1404 52.1198 38.6705 51.7698 39.1405 51.3498C38.5405 50.4998 37.7704 51.7498 37.4704 52.3398ZM19.8904 52.5698C19.2304 52.7998 18.6704 52.7698 18.9804 53.5498C19.9104 53.3798 21.1604 53.2598 21.8604 53.4698C21.7104 52.8798 21.9104 52.2198 21.7804 51.7298C21.2404 51.8298 20.6804 52.2898 19.8904 52.5698ZM33.2204 54.0798C33.6604 54.0597 34.1905 54.1398 34.5105 53.9998C34.6005 53.7798 34.4605 53.5498 34.5105 53.1698C33.9305 53.3298 33.4504 53.5698 33.2204 54.0798ZM28.2204 54.1598C28.5004 54.2998 29.1504 54.2498 29.4304 54.1598C29.4804 53.1898 28.4504 53.8598 28.2204 54.1598ZM57.4704 55.6698C57.4504 55.5298 57.5604 55.4998 57.5504 55.3698C57.4504 55.3698 57.4405 55.2698 57.3205 55.2898C57.2005 55.4098 57.2104 55.7198 57.4704 55.6698ZM41.4104 55.8998C41.7705 56.7998 41.8304 58.0098 42.4704 58.6298C42.7604 57.9498 42.6304 56.4698 42.5504 55.6798C42.2404 55.5898 41.7505 55.7898 41.4104 55.8998ZM3.90044 56.7298C3.76044 57.7798 3.91044 59.1998 3.98044 60.2898C4.24044 59.1098 4.51045 57.9398 4.66045 56.6498C4.55045 56.4698 3.90044 56.3898 3.90044 56.7298ZM54.9004 58.9998C55.2004 59.0498 55.2404 58.8298 55.2804 58.6198C55.0704 58.6698 54.8504 58.7098 54.9004 58.9998Z" fill="#282F39"/>
<path fill-rule="evenodd" clip-rule="evenodd" d="M179.541 19.6799C180.171 19.4699 180.421 18.7099 180.981 18.2399C181.491 17.8099 182.301 17.4499 183.021 17.0299C183.751 16.5999 184.451 16.0799 185.141 15.9699C185.461 15.9199 185.831 16.0199 186.201 15.9699C186.721 15.9099 187.191 15.6299 187.721 15.6699C189.271 15.7899 191.581 18.0899 192.041 19.9899C192.811 23.1599 191.331 24.6099 190.071 26.5799C189.311 27.7599 188.351 28.7999 187.651 29.8399C186.871 30.9999 186.161 32.1599 185.451 33.3299C184.771 34.4299 184.111 35.6999 183.251 36.7399C182.751 37.3399 182.231 37.5899 181.891 38.1799C181.271 39.2399 181.031 40.5499 180.521 41.7399C179.541 44.0599 178.431 45.9399 176.961 47.9499C176.641 48.3899 176.271 48.8599 175.981 49.3899C175.491 50.2699 175.161 51.2399 174.011 51.3599C174.581 54.5799 174.491 58.3699 175.071 61.7399C175.201 62.4899 175.361 63.4299 174.771 63.5599C173.981 63.7299 173.461 62.1399 173.181 61.5899C172.781 60.8099 172.381 59.8999 172.041 59.1599C170.991 56.8499 170.061 55.0899 169.391 52.7999C168.831 52.8399 168.091 52.7099 167.651 52.8799C167.311 54.1899 167.401 56.7699 167.421 58.2599C167.421 58.7999 167.621 59.5399 167.191 59.8499C165.871 60.8199 165.241 58.2499 164.991 57.4999C164.571 56.2299 164.221 54.9999 163.861 53.8599C163.861 53.5599 163.861 53.2499 163.861 52.9499C157.811 52.9099 151.501 53.0699 144.991 52.7999C138.071 52.5099 130.771 52.3799 123.701 52.2699C122.511 52.2499 121.361 52.1399 120.221 52.1199C119.051 52.0999 117.891 51.9099 116.811 51.9699C116.061 52.0099 115.311 52.4099 114.541 52.2699C114.121 52.1999 113.631 51.6599 113.171 51.5899C112.731 51.5199 112.261 51.7699 111.881 51.8199C111.011 51.9199 110.051 51.7799 109.151 51.8199C106.151 51.9499 102.951 52.2299 99.6806 52.0499C96.7406 51.8899 93.9906 50.9899 90.5906 51.3699C89.9806 54.1599 89.2306 56.7099 88.1706 59.3299C87.9306 59.9199 87.4106 61.4399 86.6506 61.2199C85.9106 60.9999 86.4806 58.4099 86.5806 57.7299C86.7406 56.5499 86.9306 55.0599 87.1106 54.0899C87.2506 53.3199 87.7306 52.5699 87.5706 51.7399C87.1906 51.5699 85.9606 51.7699 85.3006 51.8199C84.1506 53.9899 83.4206 56.9399 82.6506 59.6299C82.3806 60.5499 82.2206 61.5799 81.8906 62.3599C81.6706 62.8899 80.5106 64.3299 79.6206 63.5699C79.0806 63.1099 79.5506 61.1299 79.6206 60.5399C80.0006 57.4599 80.5906 54.3899 81.2106 51.6699C80.9506 51.1399 80.2406 50.9599 79.9206 50.3099C79.3506 49.0899 79.2806 45.8699 79.4606 44.0999C79.6006 42.7599 80.6006 41.3699 81.1306 40.9199C81.6106 40.4999 82.3506 40.3599 82.9506 40.1599C82.7606 37.9199 82.3906 36.0199 81.6606 34.1699C81.2006 33.0099 80.4006 32.0899 80.6806 30.3099C80.7306 29.9699 80.9606 29.6899 80.9806 29.3199C81.0306 28.7599 80.6806 28.2999 80.6806 27.7999C80.6806 27.1499 80.9806 26.8599 81.4406 26.3599C82.1706 26.1699 83.0806 26.2699 83.3306 26.8899C83.4406 27.1599 83.2406 27.4999 83.3306 27.9499C83.4406 28.4899 84.1806 29.3299 84.6206 29.9199C85.6206 31.2699 86.5606 33.9399 88.4806 34.2399C88.8506 34.2999 89.1806 34.1399 89.5406 34.1599C89.8806 34.1899 90.2006 34.4599 90.6006 34.5399C91.3406 34.6899 91.8006 34.5999 92.2706 35.0699C92.9506 34.9499 93.2506 34.4899 93.8606 34.3899C94.6306 34.2599 95.1806 34.7699 95.9006 34.7699C96.3606 34.7699 96.8606 34.3699 97.4906 34.3199C98.2706 34.2499 99.0506 34.3799 99.8406 34.4699C100.531 34.5499 101.321 34.7999 101.961 34.7699C102.601 34.7399 103.161 34.3299 103.781 34.2399C104.611 34.1199 105.591 34.0799 106.431 34.1599C106.781 34.1899 107.161 34.4099 107.491 34.3899C107.871 34.3599 108.261 33.9999 108.621 33.9399C109.421 33.8099 110.271 34.0199 111.051 33.8599C112.101 33.6499 113.061 33.3299 114.381 33.1799C116.321 32.9599 118.071 32.5899 120.441 32.7199C121.091 32.7599 121.761 33.0199 122.411 32.9499C123.351 32.8399 124.031 31.8199 125.131 31.8899C125.701 31.9299 126.251 32.6199 126.651 32.7199C127.521 32.9399 129.181 32.8299 130.131 32.7199C131.341 32.5799 132.421 31.9399 133.691 31.6599C134.191 31.5499 134.741 31.6299 135.281 31.5799C137.621 31.3699 139.931 30.6799 142.251 30.6699C143.171 30.6699 144.141 30.9399 144.981 30.8199C145.781 30.6999 146.391 29.7499 147.561 30.3699C147.901 30.3099 147.671 29.6699 147.941 29.5399C148.171 29.2899 148.591 29.2399 149.001 29.1599C149.281 29.0099 149.331 28.3699 149.831 28.1799C150.031 28.0999 150.361 28.2299 150.661 28.1799C151.151 28.0899 151.411 27.7999 151.721 27.7999C152.421 27.7999 153.361 28.3399 153.081 29.2399C152.291 29.7199 151.341 29.2799 150.431 29.5399C150.081 29.6399 149.851 30.0599 149.521 30.1499C148.981 30.2799 148.411 29.8999 148.081 30.3799C147.891 31.5499 148.861 31.5699 149.291 32.1199C150.281 31.8099 150.931 30.8899 152.171 30.7599C153.051 30.6699 154.081 31.1299 154.291 30.1599C154.271 29.6099 153.661 29.3799 153.991 28.7199C154.391 28.3399 154.671 28.7899 155.051 28.8699C155.261 28.6499 155.201 28.2399 155.431 27.9599C155.621 27.7299 156.121 27.7099 156.421 27.4299C156.781 27.0999 156.781 26.6199 157.031 26.4499C157.221 26.3099 157.531 26.3499 157.861 26.2199C158.411 26.0099 159.021 25.7299 159.831 25.5399C160.661 25.7499 161.241 26.1999 161.801 26.6799C163.081 26.2899 164.621 26.1699 165.891 25.7699C166.581 24.6399 167.061 23.3099 168.851 23.2699C168.211 22.7999 166.371 22.2999 166.121 21.3799C165.911 20.6199 166.551 19.2899 166.951 18.5799C167.801 17.0799 169.071 15.5099 170.661 14.7899C170.891 13.5099 171.961 12.8299 173.011 12.5899C173.031 12.1899 172.301 12.5399 172.331 12.1299C174.531 12.0599 175.861 13.8799 177.861 14.0199C178.691 14.6299 178.551 15.8199 178.841 16.8199C178.971 17.2699 179.301 17.6499 179.371 18.1099C179.471 18.6499 179.201 19.1899 179.541 19.6799ZM173.021 17.0999C173.001 16.3199 171.831 15.5499 171.811 14.6799C171.761 14.6799 171.711 14.6799 171.661 14.6799C170.891 15.0699 170.081 16.0699 169.311 17.0999C168.261 18.5099 167.511 19.5599 167.261 21.3399C168.251 21.5599 169.931 21.0999 170.061 22.1699C169.921 22.7399 169.121 22.6499 169.231 23.4599C169.291 23.4799 169.321 23.5199 169.301 23.6099C170.951 24.3199 171.551 22.7499 172.031 21.7899C171.911 21.5999 171.891 21.3299 171.881 21.0299C172.291 20.2999 172.831 19.8499 174.001 20.0499C174.531 19.7799 175.011 18.7899 174.611 18.0799C174.041 18.0199 172.901 19.4299 172.411 18.3099C172.581 17.7099 173.031 17.6499 173.021 17.0999ZM186.511 18.7699C182.851 20.3099 179.241 21.9099 176.741 24.5999C176.701 25.2199 176.261 25.7499 176.441 26.3399C177.741 25.5999 178.951 24.1699 180.531 22.9299C181.891 21.8699 183.611 20.2199 185.381 20.2799C185.981 20.2999 186.551 20.6299 186.751 20.9599C186.911 21.2299 186.771 21.8099 187.201 21.9499C187.721 21.7299 187.531 20.7399 187.431 20.2099C187.311 19.5999 186.961 18.9699 186.671 18.7699C186.611 18.7699 186.561 18.7699 186.511 18.7699ZM187.421 22.9399C186.941 23.3699 186.351 23.3599 185.831 23.6199C184.601 24.2299 183.351 25.1999 182.191 25.9699C180.971 26.7799 179.361 27.4199 179.011 28.8499C181.611 27.5399 183.651 25.6599 186.891 24.9899C187.151 24.4599 187.721 23.4599 187.491 22.9399C187.471 22.9399 187.451 22.9399 187.421 22.9399ZM174.461 24.2999C174.601 24.5099 174.981 24.4699 175.071 24.2199C174.881 24.0599 174.571 24.0399 174.461 24.2999ZM164.911 39.3799C165.091 39.2399 165.341 39.5699 165.751 39.5299C166.191 39.4899 167.771 38.5499 168.171 38.0899C168.611 37.5799 169.011 36.4699 169.541 35.6699C170.011 34.9399 170.811 34.1799 171.211 33.4699C171.411 33.1099 171.421 32.6699 171.671 32.3399C172.421 31.2999 173.601 30.9399 174.021 29.9899C174.231 29.4999 174.551 28.3199 174.631 27.6399C174.761 26.4399 173.611 25.3199 172.811 25.1399C172.061 24.9699 170.741 24.9199 170.161 25.1399C169.541 25.3799 169.701 26.1499 168.721 26.2799C168.411 26.9999 167.771 27.3999 167.201 27.8699C166.171 29.6299 166.061 31.9599 164.251 32.9499C163.831 33.1799 163.321 33.2399 162.891 33.6299C162.201 35.0099 162.081 37.3599 159.931 37.0399C159.651 37.4199 159.291 37.7099 158.641 37.7199C158.251 38.4299 156.931 38.8299 156.751 37.8699C156.541 36.8299 157.801 36.3299 157.811 35.5199C157.091 35.3099 156.821 35.9399 156.371 35.7499C156.451 35.0999 157.201 35.1199 157.431 34.6099C156.831 34.0999 156.421 33.3999 155.761 32.9399C154.431 33.2999 153.461 31.8799 152.121 31.9499C151.631 31.9799 150.181 32.6199 150.231 33.2399C150.271 33.7899 151.981 34.6099 152.431 34.9799C153.131 35.5799 153.521 36.9999 154.321 37.7799C154.631 38.0799 155.131 38.2599 155.611 38.6899C155.921 38.9699 156.121 39.4299 156.451 39.5199C156.751 39.6099 157.161 39.4699 157.511 39.5199C158.491 39.6499 159.451 40.3599 160.241 40.5099C161.201 40.6799 162.161 40.4999 163.121 40.6599C163.561 40.0899 164.081 39.5799 164.911 39.3799ZM168.021 25.7399C167.561 26.3399 166.811 26.2799 166.051 26.4999C165.651 26.6199 165.311 26.9399 164.911 27.1099C163.751 27.5899 162.431 27.7599 161.281 28.2499C161.091 28.5899 160.981 29.0099 160.821 29.3899C160.051 29.5199 160.281 30.0099 159.991 30.3799C159.781 30.6399 159.441 30.6099 159.161 30.8299C158.871 31.0699 158.831 31.4099 158.551 31.5099C157.541 31.8799 157.261 30.8799 156.201 30.8999C155.591 30.9099 154.871 31.5799 154.611 32.1099C156.461 32.4799 157.901 33.2699 159.001 34.3799C159.501 34.2499 159.761 33.8799 160.441 33.9299C161.181 33.4599 161.501 32.6799 162.031 32.0399C163.121 30.7099 164.471 29.8399 165.821 28.7799C166.411 27.5799 167.171 26.5399 168.471 26.0499C168.441 25.8299 168.241 25.7799 168.021 25.7399ZM160.521 26.7999C160.511 26.3799 160.211 26.2499 159.911 26.1199C159.901 26.5699 160.131 26.9799 160.521 26.7999ZM158.551 27.5599C158.021 27.0499 157.111 27.4599 157.261 28.3199C157.891 28.8299 157.911 29.9399 159.151 29.8299C159.451 29.3499 158.941 28.6999 159.151 28.3199C159.181 28.6699 159.451 28.7699 159.761 28.8499C160.301 28.4799 159.831 27.7299 159.761 27.1099C159.041 26.9399 158.941 27.3899 158.551 27.5599ZM181.661 30.2099C183.221 30.0299 184.761 29.4199 184.841 28.0099C183.671 28.6299 182.581 29.3399 181.661 30.2099ZM157.571 30.7399C158.571 30.4299 157.021 28.6899 156.741 28.5399C156.481 28.4099 156.091 28.4099 155.831 28.4599C155.681 29.3499 156.711 30.9999 157.571 30.7399ZM142.641 32.1099C141.881 33.0399 140.691 33.4899 139.691 34.1599C137.671 35.4999 135.731 36.9099 133.701 38.1799C132.711 38.7999 131.511 39.2599 130.901 40.2299C134.111 40.8099 135.381 38.7599 137.041 37.4299C137.801 36.8299 138.591 36.2299 139.471 35.6099C141.121 34.4399 143.681 32.4199 145.911 32.8799C145.941 32.3199 145.521 32.2099 145.231 31.9699C144.721 32.0699 144.261 32.2199 143.641 32.1999C143.211 32.0199 143.361 31.2599 142.581 31.4399C142.361 31.6499 142.731 31.7599 142.641 32.1099ZM134.761 32.6399C134.491 32.8699 134.921 33.1599 134.611 33.4699C130.471 35.4899 126.781 37.9699 123.921 41.2699C126.381 40.8399 128.391 40.3799 129.831 38.9999C132.781 36.1699 136.021 33.8299 139.911 32.0299C138.031 31.7699 136.571 32.5799 134.761 32.6399ZM147.191 32.3299C147.061 33.1499 147.541 33.5799 147.721 34.3699C147.871 35.0399 147.991 36.0499 148.101 36.9499C148.231 37.9999 148.551 39.0999 148.481 39.5999C148.421 40.0499 147.981 40.1799 147.951 40.5099C148.251 40.7599 148.861 40.7099 149.311 40.8099C150.031 38.7499 148.431 36.2799 149.381 34.6699C149.101 33.6399 148.531 32.8899 148.021 32.0899C147.701 32.1399 147.201 31.9899 147.191 32.3299ZM148.701 32.2599C148.631 32.5399 149.201 32.4299 149.161 32.2599C149.011 32.1099 148.881 32.2399 148.701 32.2599ZM130.141 33.0199C129.521 33.2699 128.991 33.6399 128.321 33.7799C127.621 33.9199 127.021 33.8799 126.581 34.0799C125.291 34.6699 123.991 35.7599 122.791 36.6599C121.521 37.6099 120.101 38.4899 119.531 39.7699C120.061 39.8299 120.551 40.3199 121.121 40.2999C121.971 40.2799 123.851 38.9399 124.461 38.5599C127.401 36.7099 129.921 34.3399 133.171 33.0999C133.431 32.9999 133.991 33.0899 134.001 32.6399C132.551 32.4999 131.251 32.5799 130.141 33.0199ZM125.061 33.0199C124.251 33.6399 123.651 34.2599 122.411 34.0799C122.011 34.0199 121.611 33.6199 121.201 33.6999C120.951 33.7499 120.661 34.1599 120.441 34.3099C119.331 35.0399 118.031 35.6899 116.881 36.5099C116.001 37.1399 115.171 37.7299 114.461 38.4099C114.261 38.5899 113.871 38.7599 113.931 39.0899C114.901 39.2599 115.841 39.1699 116.731 39.2399C117.081 39.2699 117.491 39.4799 117.861 39.3899C118.301 39.2899 119.211 38.0999 119.601 37.7199C121.501 35.9099 123.631 34.6599 125.661 33.3299C125.531 33.1499 125.441 32.9299 125.061 33.0199ZM111.881 34.8299C111.721 35.0899 111.911 35.2299 111.801 35.5099C110.941 36.5499 109.821 37.2999 108.691 38.0899C107.561 38.8899 106.231 39.4599 105.361 40.5199C106.361 40.4799 107.241 40.0799 108.321 39.9099C108.831 39.8299 109.431 39.7899 109.991 39.6799C110.511 39.5799 111.181 39.5399 111.581 39.3799C112.161 39.1499 112.741 38.2599 113.251 37.7899C114.741 36.3999 116.661 35.2399 118.251 34.1499C116.351 34.3099 114.091 34.7499 111.881 34.8299ZM109.451 35.0599C108.651 36.0199 106.451 35.9999 104.901 35.9699C103.651 36.6699 102.371 37.3399 101.191 38.0899C100.961 38.1499 101.101 37.8299 100.811 37.9399C100.361 38.5199 99.6106 38.8099 99.3706 39.6099C100.951 39.6799 102.391 39.8799 103.921 39.9899C104.581 39.6299 104.871 39.0599 105.361 38.5499C106.631 37.2199 108.231 36.1699 109.681 35.1399C109.571 35.1399 109.511 35.0999 109.451 35.0599ZM151.661 36.2699C151.281 36.1999 150.861 35.8399 150.531 35.9699C150.721 37.5499 151.191 38.8399 151.061 40.7399C152.001 40.9299 153.771 40.7499 154.701 40.4399C153.851 38.8799 152.371 37.9599 151.661 36.2699ZM92.9306 37.4899C92.6006 37.5299 92.4906 37.2799 92.1706 37.3399C92.2706 37.8199 92.4806 38.1999 92.7006 38.5499C93.4406 37.8999 94.1106 37.1799 94.9006 36.5799C94.0806 35.7899 93.7006 37.3899 92.9306 37.4899ZM95.7406 36.7299C94.8406 37.2199 94.1606 38.5999 93.5406 39.3099C94.2006 39.4499 94.8806 39.7899 95.5806 39.6899C95.9706 39.6299 96.3406 39.2199 96.7906 38.9299C98.0606 38.1199 99.9906 37.7599 100.581 36.5799C98.7706 36.7999 97.0106 36.0299 95.7406 36.7299ZM141.651 36.4999C140.181 37.6299 138.471 38.5199 137.031 39.6799C139.901 40.1999 140.311 37.5999 141.881 36.5699C141.781 36.5699 141.781 36.4799 141.651 36.4999ZM144.611 36.9599C143.811 37.8999 142.621 38.4599 141.881 39.4599C143.361 39.8099 144.471 38.1199 144.761 37.0399C144.741 36.9699 144.701 36.9399 144.611 36.9599ZM171.661 40.5199C172.621 40.3899 173.321 39.3599 174.011 38.6999C172.961 38.9899 172.071 39.8399 171.661 40.5199ZM97.1806 39.8299C97.6806 39.8699 97.7606 39.4999 97.9406 39.2199C97.4806 39.2399 97.2906 39.4999 97.1806 39.8299ZM85.2806 41.3499C84.7906 41.8399 84.0206 42.4999 83.3906 43.3199C82.4106 44.6099 80.6606 46.1799 82.4106 47.7199C83.1406 46.4599 84.3506 44.7099 85.5206 43.4799C86.0706 42.8999 87.3706 41.9099 86.1306 41.6599C86.2706 41.6699 86.3106 41.5899 86.2806 41.4299C85.9306 41.2399 85.7506 41.3699 85.2806 41.3499ZM82.2506 41.9599C81.9306 42.2199 81.7006 43.0399 82.0206 43.4699C82.8906 42.9299 83.6306 42.2499 84.4406 41.6499C83.6806 41.4299 83.0106 41.9299 82.2506 41.9599ZM88.4606 46.3499C89.7606 45.3999 90.8106 44.1999 91.8706 43.0099C91.8506 42.9299 91.7906 42.8899 91.7206 42.8599C90.3506 43.7399 89.3406 44.9799 88.4606 46.3499ZM87.2506 42.9399C85.8506 44.6699 84.4206 46.3699 83.3106 48.3999C83.5106 48.8199 83.2806 49.2699 83.3106 49.7599C84.1106 49.7299 84.4606 49.2399 85.0506 48.9999C85.9706 46.4299 87.9706 44.7599 89.2906 42.9399C88.5006 42.8799 87.9106 43.0799 87.2506 42.9399ZM92.9306 43.1699C92.9306 43.2699 92.8006 43.2399 92.7806 43.3199C91.8406 44.3499 90.8106 45.2899 89.8206 46.2799C88.8206 47.2799 87.6006 48.0499 86.7106 49.1599C87.3706 49.3999 88.0106 48.8899 88.6006 48.6299C89.2506 48.3499 90.0406 48.1199 90.4906 47.7199C90.8106 47.4399 91.0906 46.8899 91.4006 46.5099C92.3906 45.2699 93.5906 44.2599 94.6606 43.2499C94.1006 43.1199 93.6206 43.2599 92.9306 43.1699ZM94.3706 46.8799C93.6706 47.6299 92.0706 47.8599 91.9506 48.9299C93.3206 48.7799 94.1106 48.0699 94.5306 46.9599C94.5106 46.8999 94.4606 46.8699 94.3706 46.8799ZM95.2106 49.3099C95.4906 49.4299 95.8006 48.9699 95.4406 48.9299C95.4306 49.1299 95.1906 49.0899 95.2106 49.3099ZM89.3006 49.8399C89.5506 50.0099 90.1306 50.0699 90.3606 49.8399C90.3806 49.6999 90.2706 49.6699 90.2806 49.5399C89.9106 49.3199 89.5306 49.6699 89.3006 49.8399ZM82.1706 53.1699C82.6306 52.7499 83.3106 51.7399 83.0806 51.1199C82.5106 51.4899 81.8606 52.1699 82.1706 53.1699ZM170.751 52.8699C170.841 53.5899 171.551 54.3399 171.811 55.1399C171.841 54.5799 171.561 53.8099 171.581 53.0199C171.411 52.8799 171.011 52.6799 170.751 52.8699Z" fill="#282F39"/>
</svg>
