<svg width="109" height="101" viewBox="0 0 109 101" fill="none" xmlns="http://www.w3.org/2000/svg">
<path fill-rule="evenodd" clip-rule="evenodd" d="M30.6199 2.26006C31.1399 2.74006 32.4399 2.26006 32.9999 2.79006C33.2899 3.07006 33.0399 3.57006 33.1799 3.98006C33.3099 4.36006 33.7499 4.22005 33.7799 4.63005C33.7999 4.86005 33.2599 5.22005 33.1799 5.41005C32.4499 7.29005 33.8999 10.65 32.9999 12.55C32.8799 12.8 32.5199 12.9301 32.4099 13.1401C31.7199 14.4701 31.4199 15.64 30.2699 16.24C30.2199 17.06 30.3299 17.72 30.8099 18.02C31.1499 18.11 31.3399 17.99 31.7599 18.02C31.8699 18.23 31.8099 18.51 31.7599 18.74C29.7999 19.93 28.4199 17.46 29.0799 15.65C28.6099 15.47 28.0799 15.34 27.7099 15.05C32.0299 15.48 32.2499 11.5501 32.1099 7.73006C31.4999 5.97006 30.2699 6.72005 28.3599 6.78005C27.4699 6.81005 26.8099 6.82004 26.5099 7.55004C26.2499 8.20004 26.7799 9.46006 26.0399 9.57006C25.2199 9.69006 25.4199 8.14004 24.9699 7.90004C23.3599 8.24004 23.5799 11.6501 25.6799 11.2301C25.4699 13.2801 27.4499 15.7901 25.3799 16.8801C25.8099 18.5301 24.8799 19.0901 24.2499 19.9801C26.1999 20.2201 27.7299 20.86 29.2499 21.53C28.5199 22.49 26.1499 23.0801 24.5499 22.4801C23.8999 22.2401 23.4199 21.2501 22.5299 21.2901C21.6999 21.3301 21.2299 22.4801 20.2699 21.8201C19.4799 22.3101 18.7299 23.0201 18.0099 23.7301C17.3699 24.3601 16.6599 25.4801 15.6299 25.1601C16.8699 22.8801 18.7699 20.6001 21.2899 19.5101C21.9299 19.2301 25.0099 18.17 25.0399 17.37C25.0499 16.99 24.6799 16.5 24.6799 16.06C24.6799 15.63 24.8699 15.1001 24.7999 14.7501C24.4399 12.8601 22.0099 11.2001 22.1799 8.38005C22.1599 8.09005 22.4699 8.48006 22.4799 8.20006C21.9699 6.15006 23.7599 5.11004 23.6699 2.90004C23.8799 3.05004 23.7699 3.51006 23.9099 3.73006C24.3699 3.33006 24.6799 2.79005 24.8599 2.12005C25.8199 1.70005 26.5799 0.0100403 28.0199 0.99004C29.3799 0.75004 30.4599 1.12006 30.6199 2.26006ZM25.5599 4.70006C26.1099 4.73006 26.2399 4.35005 26.2699 3.87005C25.8499 3.75005 25.6299 4.27006 25.5599 4.70006Z" fill="#282F39"/>
<path fill-rule="evenodd" clip-rule="evenodd" d="M33.2397 19.2203C33.3097 19.2103 33.3497 19.2303 33.3597 19.2803C32.8297 20.0303 33.0297 20.3503 32.7697 21.3603C32.5397 22.2503 30.3797 23.7903 29.9697 22.3703C29.4597 20.6503 32.8797 20.5003 33.2397 19.2203Z" fill="#282F39"/>
<path fill-rule="evenodd" clip-rule="evenodd" d="M34.1299 19.8799C35.0499 20.7599 36.6799 20.9399 37.2199 22.1999C35.7199 22.3699 34.8699 20.8699 34.1299 19.8799Z" fill="#282F39"/>
<path fill-rule="evenodd" clip-rule="evenodd" d="M51.2702 21.8403C53.0102 21.7603 55.5902 21.7403 57.7602 21.7803C59.8002 21.8203 62.1202 21.6302 64.0702 21.9602C65.5002 22.2002 65.9602 23.4603 64.3102 23.6303C60.8102 23.9703 57.5002 23.2102 53.4802 23.2102C50.8902 23.2102 47.8802 23.1203 45.3302 23.3903C44.7902 23.4503 43.2302 23.5902 43.3702 22.6802C43.4802 21.9302 46.1602 22.0702 47.0602 22.0202C48.5502 21.9502 49.9202 21.9103 51.2702 21.8403Z" fill="#282F39"/>
<path fill-rule="evenodd" clip-rule="evenodd" d="M95.9105 27.4902C94.8705 28.1402 94.0605 27.0302 93.2305 26.6002C91.4305 25.6702 89.3305 25.5502 86.8005 25.1102C86.1005 24.9902 84.6705 24.8002 84.5405 24.2202C84.4105 23.6502 84.9705 23.1002 85.4905 23.0902C89.3605 22.9802 94.5805 24.7802 95.9105 27.4902Z" fill="#282F39"/>
<path fill-rule="evenodd" clip-rule="evenodd" d="M13.95 29.0999C14.18 30.4499 13.01 31.4099 12.4 32.5499C11.12 34.9699 10.13 38.2699 9.96003 41.9499C9.88003 43.6399 9.74003 45.3899 10.67 46.1799C13.82 48.3799 14.71 52.8499 15.61 57.3099C15.82 57.4999 16.24 57.1499 16.38 57.4299C14.96 59.2499 17.22 63.3499 15.55 64.8699C14.33 64.8599 15.19 60.6599 14.36 60.4099C13.9 60.2699 12.98 62.0699 12.75 62.4299C11.43 64.4999 9.68003 66.9499 8.82003 69.2699C8.15003 71.0799 8.19003 72.9499 9.53003 74.0899C10.01 73.8599 10.64 73.8399 11.02 73.4899C12.81 71.8399 13.58 68.5199 15.78 67.2999C15.85 67.0899 15.91 66.8699 15.9 66.5899C16.04 66.5699 16.32 66.8599 16.67 66.8299C16.28 67.4999 16.44 68.5599 16.85 69.0899C17.64 69.2699 18.92 68.8099 19.17 69.6199C19.05 70.4299 18.1 70.4199 17.21 70.4499C16.86 71.1099 17.05 72.4699 17.15 73.2499C17.61 73.1299 19.36 70.9699 19.77 72.2399C20.27 73.7899 16.28 75.3699 17.33 77.8899C18.42 77.3799 19.04 76.0699 20.07 75.6899C19.55 77.9699 17.7 79.7499 17.21 82.0599C18.07 81.4199 19.62 77.7699 21.38 78.7899C21.73 78.9899 21.77 79.4799 21.74 80.1599C23.09 79.7799 23.88 80.7399 23.41 81.9999C24.59 81.9899 25.27 82.6799 24.96 83.9699C26.18 84.4299 25.55 85.6599 25.67 86.7099C25.71 87.0799 26.23 87.3699 26.26 87.7199C26.33 88.3899 25.76 88.4099 25.9 88.9699C26.07 89.6499 27.52 89.1699 27.57 90.0399C27.63 91.1799 25.7 90.8199 24.65 90.8699C21.76 91.0299 18.38 91.4699 15.66 91.8799C14.81 93.5999 15.03 99.2499 12.27 99.0199C10.21 98.8499 10.91 95.9099 10.54 93.6599C9.95003 90.0599 8.75003 86.0799 7.92003 81.9899C6.92003 77.1099 5.79003 72.4299 4.77003 67.6499C3.75003 62.8799 2.12003 59.0799 1.38003 54.2599C1.17003 52.8599 0.73003 51.1499 1.08003 49.5599C1.19003 49.0799 1.73003 48.8699 1.44003 48.3699C2.73003 46.2899 4.49003 44.6799 8.10003 44.9199C7.50003 39.9599 9.29003 35.7899 10.9 32.4199C11.51 31.1999 12.33 28.5699 13.95 29.0999ZM11.45 52.3699C12.74 51.3299 11.73 49.9599 10.91 48.7999C10.2 47.7999 9.67003 46.3799 8.17003 46.4799C6.09003 46.6099 4.17003 47.0299 2.63003 47.8499C2.78003 49.4899 2.79003 51.0799 2.93003 52.6099C4.97003 50.9199 6.19003 48.0999 8.64003 47.0199C7.22003 50.3899 3.29003 52.5799 3.76003 57.6699C3.85003 58.6999 4.72003 59.4099 4.89003 60.5299C6.62003 57.6699 8.84003 54.4799 11.45 52.3699ZM8.66003 57.1999C7.51003 58.9599 6.13003 60.6799 5.68003 62.6199C5.32003 64.1899 6.56003 65.7899 6.81003 67.1999C7.22003 67.1099 8.36003 66.8199 8.65003 66.4899C10.05 64.8799 11.07 62.0599 12.88 60.5999C13.34 60.2199 14.22 59.7399 14.31 59.3499C14.53 58.3799 13.79 56.6199 13.54 55.4799C13.3 54.3999 12.89 52.5399 12.23 52.0299C11.11 53.3899 9.93003 55.2399 8.66003 57.1999ZM7.35003 68.8599C6.91003 67.8599 8.29003 68.2899 7.35003 68.8599V68.8599ZM13 73.2099C12.28 74.3699 10.96 76.4899 10.92 77.7899C10.88 79.1199 11.84 80.4399 11.69 82.0799C12.99 80.8799 13.71 78.8299 14.67 77.1399C14.92 76.6899 15.35 76.3299 15.5 75.8299C16.14 73.7799 15.37 71.3799 15.8 68.9899C15.72 68.9899 15.71 68.9099 15.62 68.9299C14.86 70.2599 14 71.5899 13 73.2099ZM12.64 87.4299C13.19 84.8299 15.14 83.2999 15.2 80.4099C14.06 82.3799 12.73 84.7899 12.64 87.4299Z" fill="#282F39"/>
<path fill-rule="evenodd" clip-rule="evenodd" d="M50.8502 54.2201C50.8702 54.3601 50.8402 54.4501 50.7902 54.5201C50.6002 54.5101 50.5002 54.4101 50.4902 54.2201C50.6702 54.1701 50.6802 54.1701 50.8502 54.2201Z" fill="#282F39"/>
<path fill-rule="evenodd" clip-rule="evenodd" d="M102.04 54.2803C100.14 55.5903 99.1103 57.7703 96.5703 58.4503C97.2003 56.1503 99.7503 54.9203 102.04 54.2803Z" fill="#282F39"/>
<path fill-rule="evenodd" clip-rule="evenodd" d="M70.9096 55.77C71.1396 56.57 70.9896 58.14 70.4296 58.69C69.4596 57.99 70.5696 56.45 70.9096 55.77Z" fill="#282F39"/>
<path fill-rule="evenodd" clip-rule="evenodd" d="M30.3204 58.3301C31.0804 58.1501 34.1104 57.4302 34.2504 58.5102C34.3904 59.5802 29.4704 59.9601 30.3204 58.3301Z" fill="#282F39"/>
<path fill-rule="evenodd" clip-rule="evenodd" d="M81.4499 61C80.8099 61.71 80.5199 62.49 79.9599 63.74C79.7699 64.18 78.5999 67.24 78.2899 65.29C78.0199 63.53 80.5099 61.7 81.4499 61Z" fill="#282F39"/>
<path fill-rule="evenodd" clip-rule="evenodd" d="M31.21 68.7399C32.84 68.4399 35.17 68.3099 36.86 68.2599C37.95 68.2299 38.13 69.2599 37.1 69.4499C36.39 69.5799 35.75 69.3099 34.9 69.3299C33.48 69.3799 31.28 70.0499 31.21 68.7399Z" fill="#282F39"/>
<path fill-rule="evenodd" clip-rule="evenodd" d="M54.0102 68.3202C54.8902 68.2802 56.4602 68.2702 57.7002 68.3202C58.7502 68.3602 60.6702 68.0402 60.6202 69.0302C60.5702 70.0602 56.8602 69.8002 55.3802 69.8002C53.7802 69.8002 50.1002 70.1902 50.2002 68.9702C50.2902 67.9402 52.9202 68.3802 54.0102 68.3202Z" fill="#282F39"/>
<path fill-rule="evenodd" clip-rule="evenodd" d="M56.8097 80.88C57.8997 80.43 58.6597 77.4 60.3797 77.84C61.8797 78.23 59.8497 80.53 59.6097 81.11C60.7597 81.36 61.3197 82.59 60.6197 83.73C62.8597 84.83 60.7497 86.98 60.6197 88.37C60.5797 88.8 61.0097 89.23 60.6197 89.62C60.1197 90.12 58.0497 89.67 57.2297 89.62C51.8697 89.29 45.6497 90.35 41.1597 89.98C41.0797 89.98 39.2397 90.11 39.1897 89.21C39.1197 87.84 41.9997 88.65 42.6997 88.2C42.8397 83.16 45.4897 79.6 48.4097 76.95C47.4097 78.9 45.0097 82.77 44.0597 85.4C43.6297 86.59 43.5797 87.72 44.5397 88.26C44.8497 88.33 45.5697 88.41 45.7897 88.2C46.0397 84.39 47.6697 81.43 49.4197 78.56C50.7897 76.31 52.2397 73.54 54.7797 72.96C52.0797 76.99 49.1897 80.82 47.6997 86.05C50.8997 81.91 52.6697 76.21 56.8097 72.78C57.0297 72.6 58.5697 71.37 58.7797 72.42C58.9097 73.11 57.4097 74.33 57.0497 74.74C54.3597 77.79 52.1197 81.57 50.8597 86.05C53.3197 83.66 54.8797 78.43 57.5897 76.11C57.9697 75.79 59.8397 74.26 60.1497 75.58C60.3997 76.66 58.4197 78.02 57.6497 79.15C57.2797 79.68 57.0797 80.38 56.8097 80.88ZM48.0597 88.15C48.2897 88.45 48.7497 88.06 48.5397 87.73C48.2097 87.7 48.1197 87.91 48.0597 88.15Z" fill="#282F39"/>
<path fill-rule="evenodd" clip-rule="evenodd" d="M80.9104 73.5C80.4304 74.45 79.4604 76.25 78.8304 77.25C78.6604 77.52 77.8604 78.97 77.7004 77.73C77.5104 76.32 80.0904 74.05 80.9104 73.5Z" fill="#282F39"/>
<path fill-rule="evenodd" clip-rule="evenodd" d="M42.4 84.2803C42.44 84.7003 42.17 85.8303 41.81 86.2403C41.24 85.4903 42.13 84.7603 42.4 84.2803Z" fill="#282F39"/>
<path fill-rule="evenodd" clip-rule="evenodd" d="M71.6804 89.63C72.0204 90.6 70.3304 90.64 70.2504 89.99C70.1704 89.27 71.2304 89.36 71.6804 89.63Z" fill="#282F39"/>
<path fill-rule="evenodd" clip-rule="evenodd" d="M88.65 56.7202C89.69 57.1502 91.41 56.9002 92.46 57.3102C93.33 52.0702 95.61 48.2402 100.43 46.9502C100.37 40.2602 99.36 33.9002 97.87 29.0402C102.06 32.2302 102.35 39.6402 102.33 46.8302C103.32 47.4702 105.42 47.6202 105.25 49.0302C104.14 49.4202 102.96 48.4902 101.68 48.4902C100.56 48.5002 99.27 49.1402 98.47 49.5602C97.79 49.9202 96.3 50.6902 96.09 51.4102C95.77 52.5102 95.84 53.7902 95.55 54.9802C94.64 58.7802 92.69 62.3802 92.87 67.0102C97.04 63.5602 100.56 59.4702 106.2 57.4902C106.88 55.4902 107.76 51.5302 106.38 49.9302C108.79 50.8802 108.7 53.8602 107.81 56.5402C107.45 57.6302 107.07 59.2902 105.9 59.1002C105.63 58.6402 106.11 58.2102 106.02 57.9102C104.6 58.3202 103.76 59.6102 102.69 60.5302C99.85 62.9502 96.53 65.1202 93.88 68.0302C93.19 68.7902 91.6 70.1702 91.44 71.0102C91.19 72.3202 91.96 73.7902 91.5 75.0002C94.13 72.5602 96.6 70.0002 99.6 67.7402C100.5 67.0602 102.18 66.7702 102.93 66.0102C103.98 64.9502 104.04 63.0402 105.07 61.9602C104.33 67.6102 102.16 72.5902 100.37 77.9102C98.22 84.3002 96.4 90.3502 94.42 96.9502C94 97.1802 93.89 97.5502 93.53 97.7202C90.13 99.3602 90.85 94.4602 90.31 92.0702C87.52 91.1302 83.11 91.8102 80.67 90.5202C80.64 88.8902 82.26 89.7202 83.47 89.6902C83.54 88.6302 82.28 88.9002 81.75 88.4402C81.45 88.1802 81.37 87.6702 81.15 87.3702C80.58 86.5702 79.61 85.9402 80.08 84.5702C78.23 84.6002 78.28 82.2502 78.83 80.7002C79.94 77.5902 82.72 74.3702 85.2 73.2002C83.49 76.4102 80.97 78.8102 80.08 82.8402C81.76 82.0402 82.55 80.0902 83.77 78.6702C85.02 77.2302 86.42 76.0202 87.94 74.9202C88.61 72.6402 89.98 71.0402 91.03 69.1502C90.67 69.3402 90.2 69.9502 89.66 70.1602C87.38 70.0502 84.94 69.9802 82.34 69.8602C81.11 69.8002 78.46 69.9602 78.35 69.1502C78.25 68.4502 79.29 68.2802 79.96 68.2002C79.19 64.5302 82.92 61.7002 85.44 60.3402C84.16 62.0102 83.1 63.9102 82.05 65.8202C84.88 64.3602 86.22 60.9002 88.72 58.9202C84.34 58.7102 80.29 58.8902 76.4 58.2702C76.14 60.7902 77.24 64.3402 76.64 67.2602C76.59 67.5102 76.31 67.8502 76.28 68.1502C76.15 69.6202 76.62 71.6502 76.7 73.3902C76.93 78.9202 76.73 86.3502 79.44 89.4002C79.6 90.6202 79.01 92.2402 78.9 93.5102C78.84 94.3202 79.09 96.2502 78.48 96.3702C77.58 96.5402 77.75 93.7202 77.47 92.9802C76.14 94.2602 77.81 98.7302 75.45 99.3502C74.09 99.7102 71.01 99.6502 70.87 98.5802C70.78 97.9402 71.4 97.7102 71.7 97.1502C72.3 96.0502 72.26 94.6802 72.36 92.9202C72.43 91.6802 72.86 90.5002 72.95 89.5902C73.75 82.2002 71.36 75.8002 69.74 70.7802C68.96 73.4202 67.99 76.9002 67.18 79.6502C66.9 80.6202 66.71 84.1902 66.88 85.3102C67.2 87.3702 68.91 88.5602 69.2 90.3702C69.27 90.7702 69.06 91.1802 69.08 91.5602C69.1 91.9402 69.41 92.2602 69.44 92.5702C69.49 93.2202 69.07 93.9802 68.96 94.5902C68.74 95.8802 69.05 97.4302 68.01 97.5002C66.63 97.6002 66.95 95.4302 66.82 94.4102C65.38 95.2502 65.82 97.6002 64.08 98.1002C62.92 98.4302 60.09 98.5002 58.79 98.3402C56.82 98.0902 57.3 97.1702 58.25 96.1402C59.21 95.1002 60.76 94.2902 61.58 93.1602C62.69 90.9602 62.09 87.9902 62.29 85.3602C62.55 81.9802 62.66 78.4502 62.71 75.0602C62.76 71.4402 61.47 67.5102 61.46 63.7502C61.46 61.8402 62.07 60.2602 61.88 58.4002C62.07 58.0902 61.99 57.5502 61.94 57.1502C60.02 57.7802 60.46 56.0002 61.4 54.8902C63.62 52.2902 65.56 49.3902 67.47 46.6802C67.54 45.9502 68.01 45.6302 68.06 44.8902C67.48 44.3802 66.09 44.5302 65.26 44.7102C65.3 45.4602 64.32 45.7402 64.01 46.3802C62.97 48.4902 62.09 51.6902 60.92 53.7002C60.68 54.1202 60.2 54.3702 60.09 54.7702C60.01 55.0502 60.11 55.5202 60.03 55.7802C59.8 56.5602 58.67 56.7202 58.12 57.0902C57.99 58.3402 60.49 57.4002 60.62 58.2202C60.77 59.2002 56.04 58.9102 55.44 58.4602C55.56 57.2502 55.87 56.1602 56.87 55.7802C57.34 55.6002 58.01 55.7602 58.36 55.4802C58.83 55.1102 59.19 53.2802 59.49 52.6202C59.93 51.6602 60.37 50.7502 60.74 49.9402C61.6 48.0502 63.02 46.7002 63.48 44.7602C59.99 43.0702 51.09 46.5102 50.74 42.2002C50.72 41.9502 50.91 41.7102 50.92 41.4202C50.93 40.4802 50.55 39.9602 51.52 39.4002C51.3 38.2202 48.48 37.6202 48.9 36.1302C49.14 35.2602 51.12 36.2502 51.64 36.4902C52.52 36.8802 53.24 37.6002 54.14 37.8002C54.72 37.9302 55.26 37.7602 55.69 37.9802C56.52 38.3902 56.72 39.4202 57.48 39.7002C60.6 39.4802 64.07 39.6302 66.17 38.3902C67.06 34.7102 66.19 30.3602 66.53 26.5502C66.62 25.5402 67.22 24.5502 67.3 23.6302C67.66 19.5602 66.21 15.1902 66.53 11.3102C66.82 7.78018 69.22 5.0602 72.66 4.7002C75.08 4.4502 77.04 5.7402 78.13 7.1402C80.49 10.1702 78.98 17.3102 81.05 20.4702C81.86 20.6902 82.39 21.1902 82.78 21.8402C85.04 29.9102 86.22 38.7402 88.37 47.1402C89.08 49.9902 88.85 53.5002 88.65 56.7202ZM71.39 5.8902C71.47 6.1502 71.67 6.02019 71.93 6.01019C71.92 6.26019 72.52 6.51019 72.58 6.13019C72.52 5.76019 71.65 5.4802 71.39 5.8902ZM73.77 6.43018C73.8 6.36018 73.83 6.29018 73.89 6.25018C73.9 5.81018 73.43 5.84017 73.06 5.77017C73.13 6.15017 73.38 6.36018 73.77 6.43018ZM70.5 6.31018C70.74 6.42018 71.07 6.35019 71.09 6.07019C70.92 5.97019 70.38 5.93018 70.5 6.31018ZM76.63 7.68018C76.53 6.96018 76.01 6.67017 75.38 6.49017C75.65 6.96017 75.94 8.00018 76.63 7.68018ZM74.36 12.6702C73.93 12.6802 73.74 11.8002 73.53 11.6002C72.96 11.0502 71.73 11.1402 70.85 10.4702C69.95 9.78018 69.67 8.8102 68.95 8.3902C67.51 10.7802 68.27 16.5602 70.2 18.2102C72.96 20.5802 76.09 16.3602 75.44 13.2102C76.66 12.7002 76.25 10.1202 75.32 9.58017C74.18 9.78017 75.35 12.6502 74.36 12.6702ZM75.02 18.4502C74.4 18.9702 73.81 19.0202 73.59 19.7002C73.26 20.7602 73.17 21.6902 72.04 22.0802C71.93 23.4902 72.11 25.0502 73.47 24.4002C74.27 24.0202 76.3 21.2102 76.39 20.0602C76.43 19.5402 76.01 19.1602 75.97 18.4502C75.91 17.2502 76.33 16.1602 75.85 15.7102C75.34 16.5702 75.77 17.8202 75.02 18.4502ZM77.82 20.8902C78.07 20.8602 78.18 20.6902 78.29 20.5302C78.06 20.3002 77.8 20.5402 77.82 20.8902ZM52.1 40.7702C52.42 41.5402 52.24 42.0602 52.16 42.9702C52.53 43.8302 53.1 43.4802 53.83 43.3902C59.57 42.6802 67.39 44.7502 73.41 43.4502C75.17 42.2802 75.9 40.4202 76.92 38.3302C78.04 36.0302 79.83 32.8202 80.97 30.3602C82.25 27.6002 81.89 19.4802 77.99 22.5002C77.79 22.7602 78.12 22.9002 78.05 23.2102C76.15 27.5502 74.85 32.5102 73.23 37.1402C72.11 37.7102 72.26 39.5402 70.73 39.7002C70.02 38.9002 68.7 39.6802 67.52 39.7602C63.24 40.0702 59.51 41.5002 55.32 40.0002C54.2 39.6002 53.54 38.2802 52.11 38.1602C52.77 38.9502 54.13 40.4902 52.1 40.7702ZM70.67 25.3502C70.89 24.4202 71.15 23.2202 71.32 22.4302C70.38 22.5602 70.16 24.5402 70.67 25.3502ZM67.76 32.0802C67.57 34.1302 68.35 36.7102 67.52 38.2702C69.09 38.4302 70.76 37.4702 68.71 36.9002C67.97 32.8302 68.79 27.0402 69.72 23.8102C67.51 24.9402 68.05 29.0502 67.76 32.0802ZM74.6 25.5902C74.73 25.8002 74.9 25.9602 75.26 25.9502C75.48 25.5502 75.65 25.1002 75.68 24.5202C75.67 24.4702 75.63 24.4502 75.56 24.4602C75.3 24.9002 74.73 25.0302 74.6 25.5902ZM71.39 27.3202C71.88 27.1802 71.79 26.4502 72.05 26.0702C71.97 25.9002 71.8 25.8102 71.51 25.8302C71.44 26.3002 71.37 26.7602 71.39 27.3202ZM73.05 26.4802C73.34 26.5002 73.48 26.3602 73.47 26.0602C73.13 26.0002 72.99 26.1402 73.05 26.4802ZM71.21 28.0302C71.38 28.0002 71.44 27.5002 71.27 27.4902C71.17 27.5902 71.22 27.8502 71.21 28.0302ZM83.89 35.2302C84.4 35.3302 84.41 34.5102 84.13 34.3402C84.01 34.6002 83.86 34.8302 83.89 35.2302ZM69.96 44.8102C68.65 46.0402 67.28 48.0502 66.81 49.9902C68.18 49.2102 69.51 48.4102 70.74 47.4902C70.84 46.7702 70.83 45.6502 70.74 44.9302C70.54 44.8702 70.07 44.7102 69.96 44.8102ZM72.22 45.3502C72.4 45.3902 72.44 45.2902 72.58 45.2902C72.69 44.7502 72.13 44.9602 72.22 45.3502ZM75.85 50.2902C72.78 49.9702 69.53 50.5702 68.71 52.4302C67.65 54.8302 68.32 57.1502 68.89 59.6902C69.06 60.4602 68.88 61.1802 68.95 61.8902C69.16 64.0002 70.28 65.8702 70.5 68.0802C70.67 69.7902 70.73 70.8702 71.15 72.2502C71.75 74.2002 72.14 76.6302 72.94 78.3802C74.16 81.0602 75.29 83.7702 74.78 87.1902C74.48 89.2002 73.92 90.6902 73.77 92.7802C75.38 92.5602 75.2 90.9202 75.73 89.3902C76.04 88.5102 76.82 87.8602 76.8 87.2502C76.78 86.7202 76.22 86.1102 76.03 85.5802C75.22 83.3202 75.57 80.9602 75.61 78.0802C75.63 76.7902 75.23 75.3902 75.43 73.9702C75.7 72.1102 76.25 70.3102 76.02 68.2602C74.34 63.5702 75.42 55.7102 72.69 52.2502C72.85 52.0102 73.12 51.9302 73.46 52.0102C73.66 54.2102 75.5 55.7002 76.2 57.7802C77.23 57.6202 78.78 57.4602 79.77 57.0702C79.09 54.2002 78.06 51.6502 75.85 50.2902ZM79.36 51.6002C79.5 51.4602 79.37 51.2402 79.3 51.1202C79.22 51.1202 79.14 51.1202 79.06 51.1202C79.06 51.3902 79.14 51.5702 79.36 51.6002ZM66.39 53.2702C65.82 53.3702 63.76 55.3802 63.77 56.1902C63.78 56.6002 64.16 56.8902 64.31 57.2602C64.43 57.5402 65.47 59.8702 64.67 60.0002C63.72 60.1502 64.11 56.8802 63.66 56.5502C63.24 56.9802 63.12 57.5102 63.06 58.0402C62.69 62.0402 63.15 66.6602 63.48 70.6602C63.64 72.6302 64.33 75.4902 63.78 77.2102C63.72 77.4102 63.4 77.6402 63.36 77.9202C63.31 78.3202 63.62 78.7902 63.72 79.2902C64.52 83.3702 63.78 88.8902 63.24 92.2702C64.06 91.5702 66.44 89.9602 66.45 88.6402C66.46 88.2902 66.08 87.8702 65.97 87.5702C65.45 86.0302 65.35 84.3002 65.61 82.5702C66.15 79.0602 66.83 75.7802 67.57 72.7502C67.96 71.1602 68.81 69.1502 68.82 67.6902C68.83 65.1102 67.35 62.2702 67.09 59.4202C66.89 57.2302 66.8 55.4102 67.09 53.4102C66.97 53.2502 66.62 53.2302 66.39 53.2702ZM86.45 55.0502C86.16 54.6902 85.88 54.3102 85.38 54.1602C85.55 54.6402 85.95 54.8902 86.45 55.0502ZM90.2 58.9802C90.1 59.2702 90.2 59.7402 90.26 60.0502C90.82 59.8302 91.32 59.6502 91.87 59.9902C92.05 59.6102 92.12 59.1302 92.17 58.6202C91.62 58.6402 90.91 58.9502 90.2 58.9802ZM94.36 74.8702C93.14 76.0902 91.75 77.5102 91.09 78.8602C90.75 79.5502 91.11 79.7802 91.09 80.4702C91.06 81.3702 89.98 82.0702 90.55 83.0902C93.3 80.1302 95.81 76.9202 99.54 74.9402C100.33 72.5402 101.52 70.5402 102.1 67.9202C102.06 67.9202 102.02 67.9202 101.98 67.9202C98.99 69.8602 96.82 72.4002 94.36 74.8702ZM86.8 78.5602C87.6 77.8902 88.58 77.4002 89.12 76.4802C87.98 76.3402 87.49 77.8502 86.8 78.5602ZM91.5 85.9402C91.5 85.9802 91.51 86.0102 91.56 86.0002C93.35 84.8502 94.39 82.0802 97.09 82.4302C97.6 80.8802 98.31 79.2002 98.64 77.6702C95.66 79.8202 93.55 82.8502 91.5 85.9402ZM95.02 85.7602C96.4 86.2002 96.52 84.8302 96.57 83.9702C95.87 84.4002 95.34 84.9702 95.02 85.7602ZM88.05 90.5802C88.29 90.6902 88.6 90.7402 88.82 90.8802C89.37 90.0402 88.23 89.8502 88.05 90.5802ZM60.73 96.3602C61.51 96.2202 62.03 95.8402 62.22 95.1102C61.46 95.2602 61.01 95.7202 60.73 96.3602Z" fill="#282F39"/>
<path fill-rule="evenodd" clip-rule="evenodd" d="M38.9502 22.3799C40.4302 23.5699 41.6802 25.7499 42.2802 27.8599C42.8602 29.8999 42.5102 32.2799 43.4102 34.3499C43.7902 35.2099 44.5002 35.9199 44.9602 36.7299C45.9502 38.4599 46.3602 40.4499 46.8602 42.5599C47.1102 43.6099 47.1302 44.7799 47.4602 45.8299C47.6402 46.3999 48.1302 46.9299 48.3502 47.5599C48.6402 48.3699 48.6402 49.3199 48.9402 49.9999C49.3202 50.8399 50.2502 51.2899 50.0102 52.4999C51.1202 53.8499 55.7002 54.0199 54.8302 56.6699C54.7002 57.0799 54.2302 57.2699 54.0002 57.6199C53.4502 58.4599 53.0802 59.5099 52.3302 60.1199C51.7902 61.9799 51.4702 64.0699 50.6002 65.5899C49.9602 68.2599 47.8202 70.1099 46.9702 72.7899C46.5402 74.1399 45.9702 75.3199 45.2402 76.4799C44.5702 77.5599 43.5802 78.7299 43.2202 79.8699C42.2502 82.9099 40.2502 84.8399 38.6402 87.4299C38.4702 87.7099 38.1502 87.8399 38.0502 88.1499C37.4302 89.9199 38.6002 92.1199 39.4802 93.1499C40.3302 94.1499 43.2402 94.7899 43.3502 96.2399C43.4902 98.0999 39.4402 97.5799 38.0502 97.9699C38.2602 99.7699 37.6402 99.7899 36.4402 99.9299C36.1502 99.9599 35.9102 100.28 35.6102 100.29C35.1602 100.3 35.0502 99.8699 34.5402 99.6899C33.1202 99.2099 30.7702 99.6999 29.7202 98.9799C29.6402 98.7599 29.4502 98.6599 29.3602 98.4399C29.9902 95.6999 30.6902 91.0399 29.2402 88.6199C28.0402 88.6499 27.2502 87.7599 27.8702 86.6599C27.3502 86.1099 26.4302 85.7899 26.6202 84.7499C26.6902 84.3599 27.2102 84.1299 27.2802 83.7399C27.4402 82.7799 26.3302 82.1299 26.0302 81.3599C25.3802 79.6899 25.3002 77.7999 24.7202 76.1199C24.5502 75.9899 24.1302 76.1199 23.9502 75.9999C23.0502 74.1799 21.3502 73.1699 21.0302 70.7599C18.4802 67.5399 16.6302 62.2099 17.2802 57.0699C16.5602 55.8599 15.5802 55.0899 15.7902 53.6199C15.8802 52.9899 16.4402 51.9299 16.4402 50.9399C16.4402 50.2799 16.2102 49.0599 16.0202 47.9599C15.8302 46.8599 14.4402 45.7199 14.2302 44.6299C13.5902 41.2099 14.4502 35.9599 15.2402 33.2599C15.5202 32.2999 15.0602 31.9799 14.9402 31.2399C14.6302 29.3499 15.1402 27.4199 15.3602 25.7599C15.5602 27.6999 16.8302 29.2299 16.4302 31.3499C16.3302 31.8699 15.9702 32.2199 16.1302 33.0799C16.4402 34.6899 16.8702 36.5999 16.9102 38.3199C17.5102 38.4799 17.3202 37.5399 17.7402 37.7299C18.2502 38.6699 17.2402 40.4399 17.0902 41.4799C16.6402 44.5299 19.7802 41.6999 21.8502 42.4899C22.3502 40.8799 22.3302 38.2599 20.7802 37.8499C20.6702 36.6099 21.3602 35.7199 21.2002 34.4599C21.0202 33.0899 20.1202 31.7199 20.6602 30.1799C21.0002 29.2099 22.0102 28.3499 22.3902 27.2599C21.9602 28.5299 22.3202 29.9499 22.4502 31.0699C22.6002 32.3699 22.2102 33.0899 21.9702 34.5199C21.7202 35.9999 23.3602 37.8399 23.2802 39.5199C23.2602 39.8499 22.9402 40.1999 22.9202 40.4699C22.8102 41.9199 23.7802 43.7199 23.4602 45.3499C23.3102 46.0999 22.5002 46.3899 22.3302 47.3199C23.4602 47.9599 24.8402 48.3799 26.0802 49.0399C26.5102 49.2699 26.8702 49.7499 27.2702 49.8099C28.6002 50.0399 30.2602 48.9599 31.5002 48.6799C32.9402 48.3499 34.3902 48.3999 35.5502 47.9699C36.2702 47.6999 36.6902 46.9699 37.7502 47.0799C38.0802 45.0399 36.4302 44.4699 36.1402 42.8499C35.3502 43.6999 33.6102 43.6499 34.2402 41.8399C35.0502 39.4999 36.7202 36.3399 36.5002 33.0899C36.1902 32.8599 36.0302 33.4699 35.6702 33.2099C35.4002 31.6099 35.1102 28.2499 36.6802 27.7299C37.6502 28.2799 36.8802 29.4499 37.0402 30.6499C37.1202 31.2999 37.4302 31.9799 37.5802 32.7299C37.7902 33.7999 37.3602 35.0599 37.5802 35.9999C37.9002 37.3599 40.6402 37.9299 39.8402 40.1099C40.2002 40.5999 40.9802 40.6799 41.3302 41.1799C41.4002 41.6299 41.2302 41.8399 41.1502 42.1299C42.2602 43.5199 43.1802 45.0899 44.1902 46.5899C44.1402 46.8599 44.0002 47.0299 43.8902 47.2499C44.1002 47.8399 44.6102 47.9999 44.7202 48.4999C44.9202 49.3299 44.5002 50.0599 44.9002 50.6999C45.2902 51.3499 47.1402 51.0099 46.9802 52.4299C47.4402 52.2799 47.6902 51.9099 48.1102 51.7199C48.0502 51.1299 48.1702 50.7099 48.3502 50.3499C47.4902 48.2699 46.9002 46.2899 46.2102 44.0399C46.1402 43.8199 46.0202 43.4599 45.9102 43.2699C44.4502 40.6999 44.3602 37.4999 42.7502 35.2299C42.5202 35.1599 42.2002 35.1899 41.9802 35.1099C40.7402 31.1599 40.8602 25.7799 38.9502 22.5499C38.9502 22.4999 38.9502 22.4399 38.9502 22.3799ZM36.8702 40.1699C38.0502 40.4399 37.5802 41.7099 37.9402 42.7299C38.1102 43.1999 38.8302 43.6199 39.1302 44.2199C39.7902 45.5499 39.7702 47.2399 40.5602 47.9699C41.7002 48.2399 42.4702 49.1899 43.4202 49.4599C43.2102 46.0799 40.4802 44.7099 39.7302 41.6599C38.5902 40.6999 37.5802 39.2299 37.5902 37.4899C37.5102 37.4899 37.5102 37.4099 37.4102 37.4299C37.1002 38.2199 37.0302 39.2399 36.8702 40.1699ZM20.6802 47.6099C20.8002 47.1999 20.4202 46.8899 20.3802 46.4799C20.3302 45.9699 20.8202 45.5999 20.8002 45.2299C20.7402 44.1099 18.6902 43.6699 17.6502 44.3999C17.6502 44.8199 18.0302 45.6699 17.4702 45.7699C17.2502 45.3699 17.2402 44.5099 16.5802 44.7599C16.6202 45.3799 17.0002 45.6499 17.3502 45.9499C17.3702 47.1699 17.9202 47.8799 18.0602 48.9899C18.8102 48.4399 20.4102 48.4999 20.6802 47.6099ZM37.6402 48.2099C37.9302 48.4199 37.9302 48.9099 38.0002 49.3399C38.4702 49.1099 38.8702 48.8199 39.0702 48.3299C38.8102 48.0599 38.3402 47.9899 38.0602 47.7299C37.8802 47.8499 37.7302 47.9999 37.6402 48.2099ZM18.3602 50.8299C17.8602 53.9899 19.6902 55.3299 21.5702 56.3099C21.5702 54.1899 19.6802 53.3199 20.0202 51.2499C20.6802 52.6399 21.8002 53.5599 22.8802 54.5199C22.6302 53.6599 21.7002 52.6299 22.2902 51.6599C22.4902 51.5599 22.6002 51.6999 22.8802 51.6599C22.8202 51.2099 22.0902 51.7799 22.1102 51.2999C23.5902 50.0799 25.0302 52.0799 26.2202 52.4899C26.6702 48.4199 20.3202 48.8599 18.3602 50.8299ZM39.8402 50.4699C40.2002 50.2299 40.6102 50.0499 40.7902 49.6399C40.3302 49.1799 39.9502 50.0099 39.8402 50.4699ZM28.4202 50.0499C28.4202 50.2299 28.8402 50.2199 28.7802 49.9899C28.7102 49.8499 28.4102 49.8299 28.4202 50.0499ZM29.1902 51.6599C29.6002 51.3099 30.0702 50.7199 30.0202 50.1099C29.1302 49.5499 28.8602 50.9799 29.1902 51.6599ZM30.2602 53.8599C31.4102 52.9099 31.9102 51.2999 32.7602 50.0499C31.0602 50.2199 31.0002 52.5299 30.2602 53.8599ZM41.6902 52.1299C42.1102 49.8899 43.5802 51.4299 41.6902 52.1299V52.1299ZM24.5502 55.4099C25.3902 55.5099 24.8502 54.2399 25.2702 53.9199C25.3602 54.3599 25.4202 54.8399 25.8602 54.9299C26.2102 54.6399 25.7502 54.0799 25.8602 53.8599C25.9102 54.1199 26.1502 54.2099 26.4502 54.2199C26.5302 54.0499 26.5302 53.7999 26.4502 53.6199C25.1002 53.3499 24.5702 52.2499 23.3002 51.8899C23.3702 53.1699 24.1902 54.2199 24.5502 55.4099ZM28.3002 53.6799C28.4102 53.0299 29.1702 52.7299 29.0102 52.0099C28.3302 52.0699 28.1802 53.2299 28.3002 53.6799ZM53.5902 55.6499C53.3802 55.1399 52.5102 55.0099 51.8602 54.7599C51.2002 54.4999 50.9902 53.8499 50.3702 53.6299C49.0302 53.1599 48.1502 53.7599 47.2202 54.3399C46.9802 55.2699 47.1802 56.8699 47.2202 57.7299C48.2402 57.5399 48.2802 56.3699 48.5902 55.4699C51.7302 54.1399 50.3502 57.9499 51.2702 59.2799C52.2602 58.5899 51.4202 56.3899 51.8702 55.1099C53.7602 55.6699 51.3802 57.9199 52.4102 59.0399C52.9902 58.4199 54.0102 56.6799 53.5902 55.6499ZM34.7202 54.4599C34.8902 54.1599 35.2002 53.9899 35.2602 53.5699C34.9502 53.6699 34.4502 54.1499 34.7202 54.4599ZM19.1302 56.1799C19.0802 55.3699 18.6102 54.5299 18.1202 53.9799C17.6802 54.3099 17.3602 53.9899 16.8702 53.9199C17.5502 54.7099 18.2202 55.8199 19.1302 56.1799ZM25.1402 61.5399C25.4102 60.7599 26.4002 59.7099 26.3902 58.9799C26.3702 57.9099 25.2102 56.7199 25.2002 55.5299C25.0902 55.5599 25.0502 55.6599 24.9002 55.6499C24.7402 55.8699 24.7802 56.2899 24.7802 56.6599C23.7202 58.1599 23.5302 60.3699 22.8702 62.3699C22.2702 64.1999 21.7702 66.1699 21.9802 68.2599C22.1002 69.4799 22.4502 71.6699 23.2902 72.2499C23.4002 68.1999 24.0802 64.6199 25.1402 61.5399ZM22.6402 58.9199C22.8702 58.4199 23.6402 57.5999 23.5302 57.0199C23.2702 55.5399 22.3802 57.4499 22.2202 57.5599C21.5602 58.0099 21.1202 57.4899 20.5502 57.4999C20.3602 58.4399 19.3502 58.5599 18.5902 58.9299C18.6402 59.5499 18.4702 60.3999 18.8902 60.6599C19.4402 60.4799 19.4202 59.7199 19.7202 59.2899C19.4102 61.6899 19.0202 64.9899 20.6102 66.3699C21.2502 64.1799 21.7002 60.9399 22.6402 58.9199ZM37.3402 73.3799C37.6802 72.6599 38.4202 71.8299 38.5302 71.1199C38.6002 70.6799 38.4502 70.3399 38.4702 69.9899C38.5502 68.2999 39.4202 67.6199 40.0202 66.2399C40.8402 64.3599 40.2102 61.9399 39.0702 60.9399C38.5102 60.4499 37.5402 60.0899 36.8702 59.5099C35.2502 58.1199 32.8702 56.5299 29.4902 57.3699C28.7202 58.2799 29.4902 60.6299 29.4302 61.8999C29.4002 62.4499 29.1302 62.9199 29.1302 63.3899C29.1402 63.9999 29.5202 64.6599 29.6702 65.2899C30.0702 67.0699 30.3102 69.0799 30.9802 70.7699C31.5802 72.2899 32.7202 73.3399 33.0602 74.8799C33.5202 76.9399 33.0302 78.6599 33.9502 80.2999C35.1102 78.2499 36.2302 75.7599 37.3402 73.3799ZM25.3802 66.1799C24.9902 68.5099 24.6902 70.3899 24.8402 72.6099C24.8902 73.3699 25.1402 74.8499 25.6702 74.8099C26.2702 74.7699 26.2102 73.3599 26.3202 72.7899C26.4802 71.9499 26.7502 71.0199 26.8602 70.5899C27.2602 69.0299 27.9702 67.6699 28.1102 66.3599C28.3502 64.0699 27.5002 62.0199 27.0402 60.3499C27.0402 60.3099 27.0302 60.2799 26.9802 60.2899C26.2702 61.4699 25.7302 64.1199 25.3802 66.1799ZM49.8402 65.7099C49.9102 65.6099 50.0402 65.5499 50.0202 65.3499C49.9502 65.2999 49.8602 65.2699 49.7202 65.2899C49.6402 65.3799 49.6002 65.7599 49.8402 65.7099ZM41.0302 71.2399C41.6002 70.6199 42.3602 70.1899 42.6402 69.2799C41.8202 69.1899 41.4202 70.5099 41.0302 71.2399ZM28.5902 69.3999C28.3202 70.4799 28.0802 71.9899 27.8802 73.6299C27.6302 75.6399 26.9802 78.0999 28.0602 78.9899C28.5702 75.9399 30.9902 71.8199 28.8302 69.2899C28.7202 69.2799 28.6302 69.3199 28.5902 69.3999ZM43.7102 75.8199C44.0802 75.4199 44.4802 75.0399 44.6602 74.4499C44.6502 74.3999 44.6102 74.3799 44.5402 74.3899C44.2802 74.8499 43.6502 75.2499 43.7102 75.8199ZM31.4502 75.7699C31.2702 75.4899 31.3102 74.9899 30.9702 74.8799C30.2802 76.7299 29.9102 79.5299 30.1402 81.8999C30.5002 79.7699 31.1502 77.9399 31.4502 75.7699ZM32.2302 85.3499C32.2802 84.6999 32.4602 83.4099 32.0502 83.0299C32.0102 83.7199 31.6902 84.9499 32.2302 85.3499ZM32.2302 94.5099C32.7502 93.2499 34.2502 91.8099 33.6602 90.2199C32.4702 90.5999 32.1102 93.4599 32.2302 94.5099ZM30.8502 90.4699C30.7102 90.6399 31.0202 90.7499 30.9702 91.0099C31.2402 90.9899 31.2302 90.6099 31.1502 90.4099C31.0202 90.3899 30.9202 90.4199 30.8502 90.4699ZM39.9002 95.8799C40.0402 95.9199 40.3102 95.9999 40.4402 95.8799C40.4302 95.6099 40.1302 95.6299 39.9002 95.5799C39.8602 95.7699 39.8602 95.6999 39.9002 95.8799ZM31.6302 97.6699C31.7902 97.7799 32.2502 97.7599 32.3402 97.6099C32.3602 97.4599 32.2302 97.4799 32.2802 97.3099C31.9402 97.3099 31.7802 97.4899 31.6302 97.6699Z" fill="#282F39"/>
</svg>
