<svg width="153" height="87" viewBox="0 0 153 87" fill="none" xmlns="http://www.w3.org/2000/svg">
<path fill-rule="evenodd" clip-rule="evenodd" d="M145.11 25.0902C144.73 25.1602 144.17 24.9002 143.9 24.6702C142.26 24.3802 140.73 23.4202 139.06 23.1002C138.28 22.9502 136.29 23.0302 136.34 22.1902C136.39 21.2602 139.75 21.9902 140.21 22.1302C142.18 22.7302 143.97 23.7602 145.11 25.0902Z" fill="#282F39"/>
<path fill-rule="evenodd" clip-rule="evenodd" d="M2.83013 29.1401C2.77013 29.8201 2.25013 30.9701 2.11013 31.8601C0.640128 41.2201 8.40014 43.5101 13.9001 46.8501C16.7301 48.5701 19.3901 50.5501 22.0601 51.8101C23.6001 53.0401 26.5502 53.4801 26.5302 55.8601C24.2402 55.7401 22.4201 54.1001 20.4901 53.0801C18.5501 52.0501 16.6901 50.8401 14.9301 49.5801C10.8201 46.6201 6.45014 44.0501 2.90014 40.7001C2.74014 41.7401 3.57016 42.9201 3.14016 44.0201C1.80016 43.9301 1.66013 42.1901 1.21013 40.6301C0.130134 36.9401 0.0701416 31.1101 2.78014 29.1501C2.79014 29.1401 2.81013 29.1401 2.83013 29.1401Z" fill="#282F39"/>
<path fill-rule="evenodd" clip-rule="evenodd" d="M70.8902 33.0699C72.7802 31.6899 74.5602 34.1499 73.3102 35.9099C76.3902 36.2199 80.2302 36.0799 83.2201 36.2699C82.3902 35.1499 82.2302 32.9299 83.8202 32.6999C84.4802 32.6099 84.8602 33.0599 85.3902 33.0599C85.6802 33.0599 85.9402 32.8099 86.2402 32.7599C88.1702 32.3899 90.5102 32.8599 92.2201 32.9999C90.6901 33.7699 88.1302 33.4999 86.2402 33.9099C85.2302 34.9799 86.6202 36.6699 87.7502 37.0499C89.9902 37.8099 92.1402 36.0299 92.7102 34.6299C93.6202 35.7499 91.5102 37.2499 92.5902 37.7699C92.3602 38.0399 91.6202 37.7999 91.4402 38.1299C91.6902 38.4299 92.6202 38.0299 92.6502 38.5499C92.5102 39.0599 91.5502 38.8199 90.9602 38.8499C89.1902 38.9399 86.8501 39.3299 85.2201 39.1499C83.6801 38.9799 84.6302 37.4099 86.1902 37.8199C85.0802 37.1599 83.3602 37.2199 81.7802 37.0999C78.2802 36.8299 74.1802 36.8099 71.2002 37.1599C70.6202 37.2299 70.0802 36.9999 70.0502 37.6999C70.8102 37.9899 72.0802 37.6399 71.9802 38.5499C71.8602 39.6999 67.0102 38.7399 65.6902 38.6099C65.0002 38.5399 63.6402 38.8499 63.6402 38.2499C63.6402 37.6599 64.6702 37.9699 65.0302 37.8899C64.1602 36.9599 61.8202 37.9299 60.9202 38.4999C62.0102 39.5099 63.5702 39.6799 65.4502 39.8299C69.2202 40.1199 73.4401 40.1699 77.7201 40.4999C82.7001 40.8799 88.3002 41.4699 92.7702 40.4999C93.2902 40.3899 94.0802 40.1899 94.4602 39.9599C94.7802 39.7599 95.7402 38.6199 95.8502 39.8399C95.9602 41.0999 93.6702 41.4899 92.3402 41.7799C87.8302 42.7299 83.7702 41.9099 78.9202 41.5399C73.2602 41.0999 67.2502 41.5299 62.7202 40.5099C61.5602 40.2499 59.7902 39.5299 59.7602 38.5199C59.7202 36.9599 62.5202 37.1899 63.6902 36.5199C63.6902 35.8999 63.1702 34.6799 63.5702 33.8599C63.8602 37.0399 69.6002 38.2999 70.5202 34.8299C70.3802 34.4899 70.1402 34.2399 70.1002 33.7999C68.0202 33.5099 65.8202 33.3299 64.0002 32.7699C66.1502 32.4999 69.1702 32.1799 70.8902 33.0699ZM71.1302 35.6699C71.7102 35.6499 72.2702 34.8099 71.9802 33.9199C70.8802 33.1799 70.9402 35.1399 71.1302 35.6699ZM85.2702 35.6699C85.2002 34.9799 85.4302 34.3099 85.1502 33.9199C83.7002 33.3399 84.1002 35.8299 85.2702 35.6699Z" fill="#282F39"/>
<path fill-rule="evenodd" clip-rule="evenodd" d="M65.2703 41.6502C65.1703 41.9002 64.5102 41.7502 64.3002 41.7102C64.2702 41.6602 64.2402 41.6102 64.2402 41.5302C64.5202 41.4202 65.1003 41.4602 65.2703 41.6502Z" fill="#282F39"/>
<path fill-rule="evenodd" clip-rule="evenodd" d="M32.6299 41.5898C32.7099 41.5898 32.7899 41.5898 32.8699 41.5898C32.8699 41.6698 32.8699 41.7498 32.8699 41.8298C32.7099 41.8298 32.6299 41.7498 32.6299 41.5898Z" fill="#282F39"/>
<path fill-rule="evenodd" clip-rule="evenodd" d="M69.1301 42.1998C68.1201 42.8998 66.8501 41.8998 65.6201 42.0198C66.4301 41.8098 68.6101 41.5498 69.1301 42.1998Z" fill="#282F39"/>
<path fill-rule="evenodd" clip-rule="evenodd" d="M78.5604 43.53C78.5304 47.72 78.6204 53.11 78.6204 57.86C78.6204 59.63 78.3303 62.22 78.9803 63.42C79.3103 64.04 80.3104 64.52 79.9504 65.41C79.2304 65.43 79.2704 64.68 78.8604 64.38C78.6804 64.86 78.6804 65.83 78.8604 66.32C79.3304 66.66 80.4104 66.54 80.6104 66.08C82.5604 66.47 85.4403 65.92 86.2303 67.47C84.2603 68.53 81.1203 67.1 78.9203 67.89C78.3203 68.11 77.9404 68.92 77.0504 68.74C76.6204 68.65 76.3604 68.05 76.0204 67.95C73.6404 67.27 70.5804 68.68 68.4004 67.53C69.4004 66.09 72.3904 66.64 74.2604 66.08C74.6204 66.16 74.0504 66.43 74.2604 66.56C74.7804 66.69 75.5204 66.59 76.1304 66.62C76.4404 66.04 76.3304 64.66 76.0704 64.08C75.4904 64.44 75.7304 65.64 74.7404 65.59C74.5804 64.46 75.8604 63.74 76.1904 62.69C76.0804 56.07 76.5104 49.67 76.4304 43.29C75.1304 43.08 73.9704 42.73 72.6204 42.57C77.2804 41.81 83.6504 42.66 89.0604 42.33C89.6804 42.29 90.5904 42.11 91.2404 42.21C91.4204 42.24 92.1204 42.51 92.1504 42.76C92.2704 43.81 87.9404 43.5 86.7704 43.54C83.9404 43.65 81.0504 43.29 78.5604 43.53ZM77.4803 43.65C77.5003 48.69 77.6604 53.79 77.3004 58.64C77.1004 61.35 77.1003 64.6 77.6603 66.8C77.6003 59.1 77.8903 51.19 77.5403 43.47C77.5303 43.54 77.4603 43.55 77.4803 43.65Z" fill="#282F39"/>
<path fill-rule="evenodd" clip-rule="evenodd" d="M104.01 50.1198C104.18 50.0698 104.17 50.2098 104.31 50.1798C104.31 50.3598 103.95 50.3398 104.01 50.1198Z" fill="#282F39"/>
<path fill-rule="evenodd" clip-rule="evenodd" d="M100.81 52.7202C100.86 53.3802 100.76 54.9302 100.51 55.6802C99.7099 55.1102 100.29 53.1502 100.81 52.7202Z" fill="#282F39"/>
<path fill-rule="evenodd" clip-rule="evenodd" d="M17.5105 54.0401C17.5805 54.0301 17.6205 54.0501 17.6305 54.1001C16.1805 59.3001 14.1705 64.0301 13.2805 69.8101C13.0005 71.6101 13.4705 73.8101 12.7405 75.2501C11.6905 73.1101 12.2605 68.7401 12.9205 66.0001C14.0705 61.2801 15.4605 57.5301 17.5105 54.0401Z" fill="#282F39"/>
<path fill-rule="evenodd" clip-rule="evenodd" d="M12.3805 55.6201C11.7805 58.1501 11.4105 61.4201 9.96051 63.3001C9.49051 60.4101 11.3805 57.8301 12.3805 55.6201Z" fill="#282F39"/>
<path fill-rule="evenodd" clip-rule="evenodd" d="M106.85 57.5498C107.2 57.9698 107.13 59.4598 106.49 59.4798C106.02 58.8298 106.64 58.0898 106.85 57.5498Z" fill="#282F39"/>
<path fill-rule="evenodd" clip-rule="evenodd" d="M135.441 52.17C135.511 52.18 135.471 52.23 135.441 52.23C135.361 52.64 135.041 52.7999 134.771 53.0199C131.331 60.5299 128.251 70.38 128.481 80.64C130.161 80.11 130.611 77.81 131.561 76.35C132.191 70.91 133.241 65.5 134.761 60.88C135.741 57.9 136.611 54.5599 138.451 52.2999C139.461 51.0599 140.361 49.2199 141.051 47.5899C136.841 50.3299 132.971 53.05 128.171 55.51C127.751 55.72 126.341 56.47 126.121 55.69C125.891 54.9 127.511 53.7499 128.171 53.3299C130.931 51.5799 133.791 50.2299 136.451 48.5599C138.181 47.4699 140.071 46.2999 141.831 45.1799C144.161 43.6999 146.651 42.7199 148.421 40.7699C150.731 38.2099 151.541 33.57 150.051 29.47C151.231 30.46 152.101 32.25 152.351 34.13C152.91 38.32 151.12 41.3299 150.351 44.3999C148.061 53.5499 145.791 64.6 145.331 75.35C145.321 75.62 145.551 78.19 144.301 78.13C143.821 78.11 143.781 77.31 143.331 77.22C142.861 77.13 141.281 78.47 140.551 78.79C137.401 80.15 134.641 81.39 131.301 82.6C128.171 83.73 126.171 84.68 122.901 85.5C121.791 85.78 119.82 88.0799 118.791 85.7399C117.931 85.8299 116.921 85.77 116.131 85.44C114.681 84.83 112.981 83.73 112.381 82.54C113.851 82.01 115.191 83.56 116.731 83.75C116.531 82.25 113.961 82.6099 114.251 80.4299C113.771 81.6799 111.66 82.77 111.47 80.3699C111.36 79.0399 111.541 77.1 111.831 75.29C112.261 72.63 112.5 69.9899 113.101 68.3999C113.271 67.95 113.791 67.24 113.701 66.89C113.621 66.59 112.211 65.94 111.951 65.98C111.161 66.11 111.781 68.3599 111.711 69.2999C111.491 72.2699 110.651 75.76 110.501 78.97C109.991 79.02 109.961 78.5799 109.711 78.3699C108.421 79.9799 109.991 81.04 110.981 81.88C110.381 81.95 110.251 81.56 109.651 81.64C109.351 82.53 109.891 83.8299 109.051 84.1799C108.001 84.6099 105.351 83.82 105.241 85.39C103.941 85.78 101.121 86.15 99.6805 85.69C99.3005 85.57 98.5105 85.05 98.7105 84.48C98.9505 83.81 100.921 84.04 101.371 83.39C99.8805 83.58 97.2505 82.4899 99.1905 81.3299C99.6205 81.0699 100.121 81.13 100.701 80.97C102.051 80.61 103.221 79.61 103.781 78.92C101.111 77.02 97.7605 75.08 94.6505 73.72C92.6705 72.86 92.4705 71.9999 93.0205 69.6099C93.4705 67.6499 92.8205 64.5999 92.7205 62.3599C92.5505 58.4999 93.1205 54.22 93.9305 50.57C94.7105 47.04 94.7505 44.09 95.8605 41.14C96.4105 39.68 97.6005 37.9 98.5205 36.73C98.9405 36.19 100.821 35.0199 100.821 34.4899C100.821 33.8399 99.1705 33.2799 98.6505 32.8599C97.5805 32.0199 96.4805 30.6999 95.3205 30.0799C94.7905 29.7999 93.9205 29.27 93.5105 29.23C92.2905 29.13 90.8505 30.1899 89.1005 29.7099C88.0605 29.4299 85.9905 28.45 85.9605 27.47C85.9305 26.39 87.0605 26.7799 87.9605 26.8699C88.2205 26.7599 87.8805 26.2199 88.0805 25.9599C89.6805 25.8499 91.9006 25.75 93.3406 25.72C94.5506 25.7 96.2405 26.78 97.3305 27.23C98.7805 27.84 100.001 28.5899 101.501 28.7999C102.881 28.3099 103.241 26.87 104.281 25.66C105.301 24.48 105.731 24.1999 106.151 22.5799C106.391 21.6399 107.441 20.9999 107.541 20.2799C107.601 19.8299 107.171 19.4 107.061 18.95C106.571 16.96 107.911 15.6999 108.631 14.2999C108.561 11.8399 107.461 10.39 107.061 8.37996C106.471 5.39996 107.6 2.32994 109.66 1.48994C113.66 0.139942 117.441 1.71994 117.881 5.35994C119.771 6.78994 119.301 10.34 119.751 13.1C123.841 13.96 123.051 19.3599 124.531 22.7699C127.151 22.3299 130.45 21.1499 133.66 21.9899C132.47 22.9199 130.291 22.8499 129.191 23.8599C127.681 23.4899 126.451 24.4099 124.901 24.3999C124.531 25.0999 124.521 26.1599 123.871 26.5799C123.761 27.2699 124.181 28.1099 123.511 28.2099C123.161 28.0399 123.371 27.31 123.211 26.94C122.251 26.95 120.961 27.04 119.821 26.94C119.211 29.32 119.881 31.3999 119.881 33.8299C119.881 35.8199 116.811 38.0299 115.651 39.2099C114.551 40.3299 112.761 43.19 111.541 43.38C111.011 43.46 110.51 43.09 109.97 43.2C108.73 43.45 107.861 44.84 107.551 46.04C111.761 46.05 113.881 43.58 116.251 41.39C117.351 40.37 118.881 39.6399 119.751 38.6099C120.491 37.7399 121.69 36.7099 122.35 35.7099C123.42 34.0799 122.951 32.1799 123.501 30.0899C123.621 29.6099 123.99 29.0599 124.1 28.5199C124.35 27.3499 124.231 26.7299 125.371 26.3999C125.911 26.8999 125.64 28.23 126.16 28.76C127.03 27.19 127.901 25.6299 128.821 24.1099C128.831 27.6699 127.061 30.49 127.191 34.57C128.121 31.35 128.901 27.9799 130.691 25.6199C131.611 25.9099 131.821 25.6399 132.621 25.6199C132.951 25.8999 132.251 26.2599 132.501 26.6499C133.271 26.1499 133.681 24.53 134.981 25.14C135.391 25.81 134.771 26.34 134.741 26.95C135.531 25.48 137.131 25.4999 137.281 27.4899C137.351 28.3599 136.361 29.58 135.951 30.39C135.001 32.3 134.221 34.81 133.781 37.04C135.011 34.5 136.021 31.7499 137.231 29.1799C137.821 28.3899 139.351 26.65 140.431 28.0299C139.211 31.8499 137.161 34.77 135.961 38.73C135.811 39.75 135.381 40.7999 135.481 41.8699C135.751 41.7499 135.941 41.0399 136.271 40.7799C137.471 38.1499 138.581 34.8099 139.841 31.8999C140.301 30.8399 141.001 28.5199 142.141 28.5799C143.871 28.6699 141.851 31.5199 141.781 32.3299C142.531 31.5599 143.571 29.3299 144.741 31.1199C144.561 28.4899 147.121 28.29 147.461 30.76C147.621 31.92 147.4 32.91 147.16 33.72C146.16 37.03 142.921 42.45 140.211 44.72C139.541 45.28 139.031 45.34 138.211 45.69C137.261 46.1 136.251 47.24 135.251 47.92C130.161 51.38 124.471 53.3 121.041 58.44C120.8 58.81 119.41 61.71 119.291 59.41C119.21 57.95 120.761 56.78 120.921 55.72C117.561 56.53 114.771 59.66 110.521 58.98C109.881 60.19 109.711 62.48 110.461 63.69C111.041 64.62 113.321 64.95 114.511 65.38C115.771 65.84 116.611 66.6699 117.711 66.7699C118.091 65.2499 118.571 63.8399 118.921 62.2999C118.081 62.5199 117.571 61.83 117.041 61.51C116.021 60.89 113.8 61.13 113.72 59.82C115.1 59.6 116.111 60.7599 117.101 61.3299C117.9 61.2199 118.641 60.74 119.461 60.85C119.691 63.57 119.381 66.7699 119.521 69.4299C120.041 68.1899 120.441 66.67 121.031 65.2C121.571 63.84 122.441 62.63 122.961 61.39C123.371 60.42 123.271 59.15 123.631 58.19C123.751 57.86 124.661 56.1399 125.381 56.7399C126.341 57.5299 123.981 59.8299 123.931 60.4299C122.731 66.3699 120.291 73.21 120.481 80.44C120.521 82.11 120.11 85.5399 122.41 84.6099C121.47 83.0999 121.221 79.31 121.681 76.63C122.861 69.78 124.5 62.05 127.6 57.23C126.15 63.62 123.141 71.29 122.641 78.51C122.521 80.23 122.441 82.37 123.001 83.47C124.791 84.32 127.171 82.98 128.681 82.38C127.591 82.07 126.951 81.47 126.811 80.14C126.271 75.12 127.751 70.1099 128.931 65.9299C130.471 60.4499 131.57 55.27 134.791 52.39C135.101 52.35 135.281 52.27 135.441 52.17ZM110.121 2.54994C111.271 2.78994 112.561 3.21995 113.751 3.21995C112.921 2.64995 111.141 1.58994 110.121 2.54994ZM109.511 2.90995C109.501 2.73995 109.561 2.48994 109.391 2.48994C109.301 2.57994 109.261 2.96995 109.511 2.90995ZM110.181 3.02995C110.251 3.39995 111.001 3.98996 111.211 3.44996C110.911 3.28996 110.651 2.80995 110.181 3.02995ZM109.631 13.6099C110.401 14.6199 111.41 13.76 112.351 13.19C113.611 12.42 114.441 11.4 114.101 9.37996C111.41 8.83996 109.241 7.79997 108.421 5.38997C108.001 7.76997 108.461 12.0699 109.631 13.6099ZM112.591 15.1199C112.881 14.9299 113.071 14.6399 113.071 14.1499C112.161 13.9799 112.231 14.7199 112.591 15.1199ZM121.66 15.66C121.39 15.19 121.051 14.78 120.631 14.45C120.321 14.49 119.85 14.36 119.72 14.57C119.24 15.25 118.941 16.7499 118.451 17.8399C118.021 18.7999 116.921 19.9 117.061 20.92C117.131 21.44 117.861 21.64 118.271 22.13C118.941 22.93 119.201 24.05 119.301 25.45C120.401 25.33 121.661 24.92 122.931 24.91C123.841 21.62 122.08 18.61 121.66 15.66ZM109.631 18.8099C109.131 20.1599 108.841 21.7299 108.001 22.7399C108.511 23.1099 108.751 23.77 109.451 23.95C110.251 22.57 110.551 20.6999 111.381 19.3599C111.401 20.3099 111.331 20.8299 111.201 21.8399C110.961 23.7099 109.881 25.99 110.231 27.76C110.491 29.06 112.211 29.99 112.281 31.26C112.451 34.01 112.591 36.7999 113.551 39.2999C114.931 37.8799 117.401 36.4799 118.511 34.3999C119.251 33.0199 118.931 30.65 118.751 28.66C118.631 27.34 117.891 26.57 117.541 25.7C117.331 25.17 117.541 21.5799 116.941 21.5899C116.511 21.5899 116.431 23.1699 115.671 22.7399C115.021 24.3899 114.481 26.6 115.001 28.72C113.461 29.52 113.181 27.2299 113.311 25.5799C112.351 26.1299 112.851 28.1399 112.281 29.0899C111.401 27.9699 111.231 26.2099 111.561 24.5599C111.691 23.9099 112.16 23.3499 112.22 22.8099C112.31 22.1299 111.811 21.23 111.801 20.39C111.771 18.73 112.541 16.99 112.281 16.1C111.721 17.31 110.551 17.9299 109.631 18.8099ZM108.601 18.32C108.521 18.68 109.031 18.61 108.901 18.26C108.771 18.24 108.67 18.27 108.601 18.32ZM109.031 27.8099C109.511 26.0599 108.851 24.1799 107.461 24.1799C107.061 24.1799 105.75 25.27 105.47 25.75C104.58 27.25 103.871 28.4399 103.541 29.6199C103.311 29.7699 103.051 29.9 102.881 30.1C103.281 31.81 101.641 31.8799 101.731 30.3999C100.971 29.9499 100.281 29.95 99.4905 29.67C98.0105 29.15 96.7205 27.7799 95.3805 27.5499C93.9805 27.3099 92.8505 27.55 91.6305 27.19C91.0305 28 89.4605 27.36 88.4905 27.91C89.0205 28.15 89.6305 28.83 90.3005 28.88C91.3005 28.94 91.8505 27.86 92.6605 27.73C94.1705 27.48 95.5005 28.76 96.1605 29.66C98.6405 30.52 100.091 32.4199 102.751 33.1099C105.041 31.5699 107.081 29.7299 109.031 27.8099ZM134.6 27.51C134.63 27.38 134.741 27.1799 134.541 27.1499C134.511 27.2799 134.4 27.48 134.6 27.51ZM133.991 29.0199C134.041 28.8699 134.091 28.67 133.871 28.66C133.881 28.85 133.711 29.0199 133.991 29.0199ZM109.751 30.17C108.201 30.92 106.79 32.06 105.16 33.01C101.5 35.13 98.8905 38.24 96.8805 41.89C96.7205 42.18 96.3606 42.3999 96.2806 42.7399C95.8106 44.7699 96.3305 47.1799 96.1605 49.3299C96.0405 50.8799 95.5405 52.2199 95.8005 53.6799C95.8905 52.1799 97.4705 50.9 97.3705 49.51C97.3405 49.06 96.8605 48.8199 96.9505 48.3599C97.0505 47.8099 97.9105 47.73 98.1605 47.39C98.1405 44.47 99.1205 41.0299 100.701 39.1099C101.541 38.0899 102.811 37.1499 103.901 36.1499C106.111 34.1199 107.601 32.16 110.491 31.25C110.311 30.8899 110.241 29.93 109.751 30.17ZM132.6 32.3999C132.79 32.3699 132.84 31.96 132.6 31.98C132.6 32.12 132.6 32.2699 132.6 32.3999ZM113.261 44.4299C113.621 45.1299 112.64 45.42 112.72 45.94C112.81 46.55 113.931 46.69 113.931 47.39C113.931 48.78 110.061 48.8299 109.521 49.9299C110.791 50.3899 111.891 51.0299 112.121 52.5299C113.581 53.25 113.511 55.3899 113.631 57.2999C115.971 56.8699 118.021 56.4099 119.741 55.4299C120.841 54.7999 121.801 53.5 122.881 53.25C123.641 53.08 124.211 53.0599 124.811 52.5299C124.611 50.5999 127.2 48.5199 127.35 47.0899C127.46 46.0299 126.741 44.64 126.501 43.64C125.871 41.04 124.751 38.5899 124.501 36.0199C120.991 39.0699 117.891 42.5199 113.261 44.4299ZM103.591 44.07C105.461 42.84 104.871 39.15 105.651 36.82C105.641 36.77 105.601 36.75 105.531 36.76C103.451 38.03 103.4 41.6499 103.351 44.7399C103.59 44.6799 103.511 44.29 103.591 44.07ZM106.491 41.1099C106.901 40.7899 107.29 39.6299 106.91 39.1099C106.73 39.7399 106.501 40.3099 106.491 41.1099ZM101.771 39.72C101.401 41.37 100.84 43.4499 101.1 45.3399C101.41 45.1099 101.741 44.8899 102.011 44.6199C101.971 42.7399 102.501 41.12 102.611 39.6C102.271 39.57 102.041 39.67 101.771 39.72ZM128.791 44.6199C129.261 46.8899 128.011 48.9099 127.401 50.8399C129.861 49.6299 132.061 48.17 134.291 46.73C132.601 45.89 130.91 45.0299 128.791 44.6199ZM102.261 47.1499C103.381 46.6099 105.661 47.58 105.521 45.76C105.711 45.55 105.991 45.4199 106.061 45.0899C104.791 45.5399 103.521 46.4999 102.261 47.1499ZM142.941 47.0899C141.721 48.5099 141.141 50.5699 140.521 52.5899C142.091 50.9199 142.601 47.66 144.021 45.64C143.331 45.56 143.091 46.4299 142.941 47.0899ZM99.8406 46.67C100.081 46.67 100.291 46.6399 100.261 46.3699C100.111 46.2899 100.081 46.11 99.8406 46.13C99.7706 46.3 99.7706 46.5 99.8406 46.67ZM105.641 47.3299C105.931 47.7899 106.431 48.03 106.791 48.42C106.241 48.47 106.101 48.0999 105.581 48.1199C105.491 47.9499 105.521 47.65 105.281 47.64C104.891 48.38 106.091 48.5 106.311 49.0299C105.521 48.8699 105.081 48.3699 104.191 48.3099C104.161 48.9899 104.831 48.9599 105.041 49.3999C104.021 49.5299 103.661 48.4299 102.801 48.7999C102.921 49.4699 103.591 49.58 103.951 50.01C102.951 50.01 102.591 49.35 101.711 49.22C101.791 49.84 102.531 49.8099 102.621 50.4299C101.711 50.2699 100.901 49.0799 99.9605 49.7099C100.701 50.7399 102.421 50.8 103.281 51.7C105.881 49.91 109.121 48.76 112.041 47.29C111.941 46.99 111.761 46.7699 111.561 46.5599C109.741 46.9599 107.741 47.3799 105.641 47.3299ZM100.811 47.76C101.371 47.96 101.901 47.5999 102.141 47.2799C101.671 47.18 101.191 47.57 100.811 47.76ZM107.941 80.04C108.001 79.6 107.691 79.06 107.761 78.53C107.881 77.59 108.411 76.64 108.611 75.57C108.751 74.77 108.621 73.8699 108.791 73.03C108.881 72.56 109.191 72.16 109.271 71.7C109.841 68.53 109.411 66.1799 109.031 63.2399C108.821 61.6499 108.301 60.28 108.731 59.13C109.391 57.34 111.151 56.5999 112.301 55.6199C113.171 52.4999 109.51 50.9699 107.22 51.0299C106.84 51.0399 104.821 52.2299 104.561 52.72C104.181 53.45 104.321 54.4399 104.141 55.5599C104.011 56.3299 103.6 57.1699 103.66 57.8599C103.71 58.4599 104.151 59.2599 104.321 60.0299C104.971 62.8599 105.271 66.08 105.831 68.98C106.511 72.5 107.501 76.9199 106.131 80.5199C105.991 80.8799 105.601 81.0799 105.831 81.6099C106.431 81.3399 107.831 80.83 107.941 80.04ZM100.201 51.38C99.5505 51.47 99.5905 54.12 99.6005 54.89C99.6105 57.81 100.44 59.6099 101.35 61.8399C101.9 63.1799 101.901 64.78 102.321 66.13C103.651 70.41 104.69 74.0499 105.16 78.28C104.82 78.89 104.421 79.75 104.251 80.34C104.451 80.4399 104.821 80.28 105.041 80.22C105.561 79.47 105.561 78.2 106.131 77.5C105.221 73.12 104.901 68.58 103.831 64.32C103.331 62.29 102.631 60.57 101.961 58.82C100.911 56.08 102.991 54.14 103.891 52.29C103.391 52.27 103.451 52.8199 102.921 52.7699C102.201 52.5899 100.921 51.28 100.201 51.38ZM139.431 55.32C137.241 61.31 136.441 68.6899 133.751 74.1799C133.581 75.1799 133.161 76.51 133.511 77.63C138.231 73.68 138.351 64.71 140.821 58.47C141.271 57.33 140.261 56.4699 140.581 54.9599C140.541 54.9599 140.501 54.9599 140.461 54.9599C140.221 55.1699 139.701 55.12 139.431 55.32ZM143.72 57.91C143.94 57.91 143.891 57.64 143.901 57.42C143.681 57.43 143.73 57.7 143.72 57.91ZM143.541 59C143.511 58.77 143.65 58.7099 143.6 58.4599C143.52 58.4599 143.521 58.3799 143.421 58.3999C143.461 58.6699 143.221 58.95 143.541 59ZM142.881 61.3599C142.881 61.1799 143.061 60.88 142.821 60.82C142.821 60.99 142.641 61.2999 142.881 61.3599ZM138.951 75.0799C141.321 71.8899 141.891 66.5799 142.581 61.8999C141.611 66.5399 139.331 69.8599 138.951 75.0799ZM110.781 68.5499C111.111 67.7499 111.221 66.7299 111.441 65.8299C110.181 64.1899 110.201 67.8899 110.781 68.5499ZM114.531 67.04C114.341 67.22 114.161 67.62 114.111 67.89C113.471 71.33 113.201 76.1399 112.901 79.7399C115.371 77.0899 114.07 70.67 116.41 67.89C115.88 67.5 115.121 67.36 114.531 67.04ZM129.091 82.1499C129.291 82.1199 129.611 82.2299 129.631 82.03C129.481 81.9 129.141 81.9799 129.091 82.1499ZM117.551 84.3299C117.851 84.4899 118.081 84.72 118.521 84.75C118.581 84.67 118.681 84.63 118.761 84.57C118.711 83.95 118.701 83.3 118.401 82.94C118.281 83.56 117.961 83.9899 117.551 84.3299Z" fill="#282F39"/>
<path fill-rule="evenodd" clip-rule="evenodd" d="M57.2306 43.71C57.3506 44.69 57.4806 45.75 57.7706 46.73C59.2206 51.66 60.1506 57.62 59.8906 63.66C59.8106 65.36 59.4706 67.33 59.6506 69.04C59.8206 70.65 60.6306 72.37 59.0506 73.33C57.2806 74.41 55.3606 74.63 53.7906 75.93C54.5106 77.14 56.4706 76.91 57.9006 77.8C58.7806 78.36 60.7806 79.34 60.2606 80.28C59.7006 81.28 57.5406 80.6 56.3906 80.76C56.7606 81.46 58.0806 81.73 58.6306 82.45C58.7006 83.07 58.4906 83.4 58.2706 83.72C54.5806 84.97 50.9406 82.74 48.3006 81.3C47.5906 80.92 46.9906 80.76 46.7906 79.91C45.2306 80.69 43.3706 81.16 42.3206 82.45C41.2206 82.54 40.7606 81.99 40.4406 81.3C40.1706 81.41 40.1206 81.75 39.9606 81.97C40.0106 82.3 40.4506 82.24 40.5006 82.58C39.2506 83.85 37.4006 85.44 35.1206 85.72C34.8006 85.76 34.3506 85.63 34.0306 85.72C33.6206 85.84 33.4306 86.48 33.0006 86.63C31.6906 87.07 30.8606 85.97 29.9806 85.42C25.3706 84.53 21.9306 82.47 17.7106 81.19C15.1306 79.64 11.8106 78.83 9.43057 77.08C9.10057 78.21 7.80058 78.28 7.56058 77.02C7.33058 75.86 7.56058 74.48 7.50058 73.15C7.16058 65.11 4.86057 57.43 4.36057 49.39C7.58057 56.62 9.17058 65.75 9.19058 75.99C11.6906 76.77 13.8806 77.87 16.2006 78.83C15.8506 70.7 16.6506 61.79 21.2206 57.79C20.8806 58.48 20.6106 59.24 20.2506 59.91C18.4506 64.65 17.0806 70.6 17.4106 77.26C17.4506 78.03 17.5906 79.94 18.3206 79.98C19.2806 80.03 20.3106 76.04 20.4906 75.2C21.1406 72.33 20.8306 68.98 21.5206 65.89C21.8906 64.22 22.2206 62.36 22.7306 60.75C23.1306 59.47 23.5306 57.03 25.1506 57.12C25.4006 58.4 24.4006 59.42 24.3006 60.75C24.2906 60.96 24.0906 60.98 24.0606 61.17C22.8606 66.4 21.4006 73.7 22.4906 79.73C23.6606 78.78 23.3706 76.44 23.4606 74.29C23.5406 72.31 23.8306 69.55 24.3106 67.1C24.6106 65.55 25.0906 61.26 26.6706 61.42C27.6906 61.53 27.1106 64.33 26.9106 65.41C26.1106 69.85 24.7306 76.2 25.4606 81.25C27.9306 77.52 25.4206 68.19 27.5106 63.84C27.7806 63.27 28.2006 62.59 29.1406 62.75C29.2406 60.91 28.5406 59.73 27.8106 58.4C27.5706 57.97 26.7006 56.77 27.5706 56.53C28.3906 56.29 28.9606 57.62 29.1406 58.04C29.5706 59.04 29.4306 60.19 29.7406 61.12C31.4006 63.43 32.3206 66.48 33.2506 69.52C33.4806 66.73 33.0206 63.63 33.3106 60.63C34.1406 60.61 34.8706 61.29 35.5506 61.23C36.7906 61.13 37.6706 59.05 39.1806 59.72C38.8206 60.97 36.7806 60.88 35.7306 61.53C35.2906 61.81 34.8106 62.42 33.9206 62.07C34.0506 63.61 34.8806 64.97 34.9506 66.78C38.3806 65.47 41.5606 63.92 45.0406 62.67C45.4506 61.07 45.3006 59.43 44.8606 57.96C43.4106 58.14 42.0806 58.76 40.7506 58.87C41.5606 57.99 43.4906 57.18 44.8006 56.39C44.8406 55.64 44.4406 55.34 44.0106 55.06C41.2906 54.73 37.1206 54.82 34.5806 53.85C33.7206 53.52 32.7306 52.66 31.8606 52.34C31.2406 52.11 30.8806 52.26 30.7706 51.79C30.6006 51.01 31.8806 49.73 32.2806 49.25C33.5406 47.77 35.2705 46.17 37.7206 46.29C35.6506 47.81 33.5906 49.33 32.5206 51.85C34.1406 52.72 37.2906 53.64 40.5606 53.42C42.0506 53.32 45.0106 52.52 46.2406 53.36C46.9006 53.81 46.9706 55.45 45.7506 55.29C46.3506 60.12 46.1206 65.17 47.9306 68.89C48.1006 69.25 48.4206 69.53 48.5306 69.92C49.1806 72.12 48.1506 74.43 48.9506 76.63C49.1606 77.02 49.8306 76.96 50.2806 77.11C50.9806 76.04 50.4106 74.77 50.3406 73.42C50.1806 70.25 50.7806 67.07 51.0006 64.05C51.2606 60.54 51.3206 57.31 52.3306 54.44C51.4206 53.6 51.3706 51.89 50.8206 50.69C43.9106 52.53 40.8606 47.64 36.8006 45.49C35.9206 43.85 33.6906 43.56 32.9306 41.8C35.6106 42.9 37.8006 44.96 40.2406 46.69C41.4106 47.53 42.7406 48.91 43.6906 47.05C43.6406 46.76 43.2606 47.07 43.1506 46.93C41.9806 44.92 39.3106 43.01 37.7706 40.7C37.0306 39.59 36.5706 37.95 34.7506 38.28C34.0406 38.41 33.9506 39.42 33.0606 39.43C32.7306 38.26 34.3606 37.75 34.5106 36.65C34.9306 33.63 34.3906 31.03 34.2106 27.83C34.0306 24.65 34.6706 22.05 33.7906 19.73C33.4306 18.79 31.7406 17.53 30.9506 17.62C30.4206 17.67 29.5506 19.22 29.4406 19.79C28.8806 22.63 30.5006 26.46 29.6806 28.86C29.7006 29.14 29.2606 28.96 29.1406 29.1C29.3706 29.94 29.1706 30.51 29.2606 31.52C29.4806 31.18 29.2806 30.41 29.5006 30.07C30.2706 32.12 31.3906 34.97 31.6806 37.75C31.7606 38.47 32.6006 40.25 31.8006 40.53C30.4706 41 30.9706 36.51 29.6306 36.42C28.9206 40.29 25.7706 45.67 28.9006 49.05C29.4306 49.57 30.6806 49.88 30.3506 50.86C27.2106 50.43 25.7806 46.88 26.3606 43.12C25.6206 43.09 25.7506 43.6 25.8206 43.97C24.3706 44.46 23.1306 44.7 21.2906 45C20.4606 45.13 18.1206 45.52 18.0906 46.21C18.0706 46.68 19.8806 47.58 20.3306 47.84C23.1306 49.48 26.4106 51.25 29.1006 52.98C30.6006 53.94 31.6206 55.26 32.5506 56.79C32.8306 57.25 34.3206 60 33.0306 60.17C32.4106 60.26 32.1406 58.91 31.8806 58.48C30.8006 56.71 28.5706 54.62 26.8606 53.22C26.8006 53.18 26.6806 53.08 26.6206 53.04C24.4006 51.52 21.8706 50.14 19.4906 48.75C16.6706 47.09 13.9506 45.21 11.6906 42.77C9.59058 40.49 7.09059 37.85 5.89059 34.85C5.41059 33.65 5.07057 31.27 5.65057 29.89C5.96057 29.9 5.72059 30.46 6.07059 30.43C6.59059 29.68 6.71057 28.21 7.46057 27.89C7.15057 29.05 6.71059 30.4 6.98059 31.94C7.96059 31.27 7.29059 28.63 8.98059 28.86C9.64059 30.38 7.27058 33.46 9.16058 34.48C9.69058 32.53 10.1406 30.51 11.1606 29.04C10.8606 31.05 10.0306 34.72 9.83057 37.44C9.73057 38.81 10.7506 39.14 11.3406 40.16C11.6906 40.76 11.5906 41.58 12.4306 41.67C12.4406 34.99 13.3706 29.23 16.3606 25.53C15.5706 29.94 12.9106 36.84 13.9406 42.27C14.2306 43.82 15.3106 44.09 15.8206 42.51C16.0706 37.33 16.5906 32.13 18.0606 28.18C18.5506 26.85 19.0506 25.31 20.3606 24.68C21.2106 25.11 20.7606 26.5 20.5406 27.34C20.1006 29.08 19.7006 30.94 19.2706 32.84C18.4606 36.4 17.0806 40.23 17.7006 43.9C21.1206 40.42 20.2506 31.51 22.7806 26.86C23.2306 26.03 24.3406 24.08 25.3206 25.05C24.6206 30.57 21.6306 35.3 21.9906 41.49C23.4906 39.22 23.1906 35.17 24.1106 31.7C24.6206 29.78 25.3206 27.03 26.3506 25.59C27.5106 23.96 28.0906 25.81 28.6506 26.98C28.8506 26.26 28.6906 24.9 28.3506 24.32C25.0906 24.89 21.1506 23.36 17.1106 23.53C18.0106 22.96 19.4406 22.92 20.5506 22.56C19.5006 22.37 18.2906 21.6 16.9806 21.9C16.6406 21.98 16.3406 22.5 16.0706 22.62C15.0506 23.11 13.5806 22.97 12.3806 23.41C9.26058 24.54 6.28059 25.81 4.10059 27.64C5.58059 25.05 8.44057 22.8 11.9006 22.02C13.4606 21.66 15.0106 21.86 16.6806 21.66C17.8706 21.51 19.1406 21.07 20.3706 21.06C23.2406 21.02 26.0406 21.77 28.4106 22.45C29.2206 20.96 28.3006 18.35 29.3806 17.01C30.4306 15.7 32.4606 14.29 34.4006 14.23C35.1506 13.69 36.4506 13.7 37.0606 13.02C36.3806 9.30999 37.3106 4.11001 39.4206 2.32001C40.1706 1.68001 41.0306 1.60001 42.0206 1.29001C42.3906 1.18001 42.6406 0.800006 43.1106 0.750006C44.7306 0.580006 46.4306 1.98 47.2806 2.81C47.9306 3.43 48.4706 5.06001 48.6106 6.19001C49.3206 12.12 48.3306 19.81 48.6106 26.02C48.6406 26.76 48.4306 27.69 48.6106 28.38C48.8306 29.22 49.8306 30.22 50.4206 31.1C51.7606 33.11 54.0606 34.67 55.3806 36.54C56.9806 36.72 59.0906 37.35 59.3706 39.38C59.5406 41.27 59.1106 44.4 57.2306 43.71ZM45.9206 11.07C46.5206 10.01 47.3406 3.87001 45.6206 3.82001C44.5206 3.78001 43.5406 6.58002 41.9906 6.42002C41.0706 4.04002 38.7006 6.07001 39.6306 8.29001C39.7606 8.60001 40.4106 8.91002 40.4806 9.20002C40.5306 9.42002 40.3406 9.78999 40.3606 10.11C40.4506 11.38 40.9706 12.61 39.0906 12.23C38.6406 12.55 38.1706 12.84 38.3006 13.74C37.8506 14.7 36.0806 14.34 35.2806 14.95C35.8006 18.83 37.2306 22.95 41.6906 22.69C42.6906 20.82 41.7806 18.02 40.9706 16.65C41.4406 15.81 41.5006 14.56 42.3006 14.05C42.0206 13.47 41.2306 13.11 41.3306 12.36C43.0806 13.9 45.0906 12.53 45.9206 11.07ZM46.8906 14.21C47.3106 14.33 47.3006 13.4 47.0106 13.36C46.9406 13.66 46.8106 13.92 46.8906 14.21ZM46.4106 16.63C46.4206 15.85 47.2106 15.17 46.7106 14.45C46.6606 15.15 46.0906 15.97 46.4106 16.63ZM32.3206 16.21C33.4506 16.63 34.6206 17.01 35.0406 18.15C34.8706 17.07 34.4306 16.26 34.4406 15.01C33.5306 14.54 32.7106 15.55 32.3206 16.21ZM45.8606 18.99C45.9506 18.89 45.9806 18.51 45.7406 18.57C45.6406 18.67 45.6506 19.01 45.8606 18.99ZM42.2406 24C38.6106 25.43 36.7206 20.84 35.3506 19.41C35.2606 19.44 35.2006 19.51 35.1706 19.59C35.5806 25.11 35.7706 31.46 35.9006 36.88C36.2606 37.37 36.7606 37.71 36.7506 38.57C38.7006 40.04 39.8806 42.29 41.7706 43.83C42.2006 42.91 43.6106 42.65 44.0106 41.9C42.6806 41.84 40.5806 40.87 40.5106 39.3C40.4506 37.95 41.0406 36.05 41.2306 34.59C41.4806 32.75 42.0006 31.41 43.4106 30.96C45.0306 29.18 44.0006 25.38 43.1706 23.28C42.6106 23.54 42.6706 23.83 42.2406 24ZM44.7106 32.1C47.8606 33.63 49.8306 36.33 53.4706 37.36C51.7606 35.66 50.9906 32.28 48.8806 30.95C48.4306 32.38 47.7806 31.4 46.6406 31.55C45.9306 30.9 44.4306 30.08 44.7106 32.1ZM29.3006 33.98C29.3706 33.56 29.4406 32.79 29.2406 32.47C29.2506 32.9 29.0206 33.67 29.3006 33.98ZM8.93057 36.52C9.00057 36.2 9.21058 35.5 8.87057 35.31C8.30057 35.48 8.51057 36.34 8.93057 36.52ZM58.6206 39.66C58.6506 39.04 56.0106 36.61 56.0806 38.63C57.9706 38.86 56.3006 41.27 57.7106 41.83C57.6706 41.08 58.5806 40.34 58.6206 39.66ZM53.2406 41.23C53.4706 41.91 53.2806 42.73 53.6006 43.53C53.9306 44.35 55.2606 44.61 55.9006 45.16C55.6706 43.37 55.6606 41.04 54.7506 39.84C53.4506 39.59 53.0206 38.47 51.5506 38.39C52.2206 39.27 52.8506 40.1 53.2406 41.23ZM54.2006 66.07C55.0806 61.79 55.2406 56.05 56.0106 51.87C55.2306 50.5 56.3706 49.48 55.7706 47.52C55.4906 46.61 54.0406 45.75 53.0506 45.41C50.6906 44.59 48.6406 43.39 46.6406 42.75C46.2206 42.61 45.6606 42.69 45.5506 42.75C44.7706 43.19 42.7606 43.34 42.4706 44.08C42.1206 44.95 42.8306 45.59 43.1306 46.13C44.5006 46.84 46.8106 46.6 48.8106 46.67C50.8206 47.5 51.4906 49.34 52.3206 51.44C52.5906 52.14 53.1306 52.7 53.0406 53.5C52.9906 53.93 52.6306 54.22 52.5606 54.59C52.1406 56.68 52.7406 59.41 52.5606 61.9C52.2106 66.78 51.4106 72.02 52.2606 75.92C52.7406 72.66 53.5406 69.3 54.2006 66.07ZM15.8206 44.86C16.0106 44.93 16.0806 45.12 16.3006 45.16C16.3306 44.77 16.1506 44.59 15.8806 44.5C15.8106 44.57 15.8106 44.71 15.8206 44.86ZM43.6906 48.61C45.2106 50.18 48.1706 50.14 50.4606 49.34C50.0906 46.91 46.9406 47.14 44.2306 47.22C43.9906 47.62 43.7206 47.99 43.6906 48.61ZM41.1506 65.77C42.0906 66.58 41.1306 68.16 40.8506 69.15C40.4506 70.54 40.0806 72.15 39.5806 73.8C38.7906 76.39 37.8106 79.12 38.4306 81.84C40.5606 79.62 40.2406 73.05 41.2706 69.21C41.6806 67.7 43.0106 64.3 44.5906 66.07C45.7006 66.04 45.4006 64.24 45.1306 63.47C43.6206 64.05 42.5806 65.1 41.1506 65.77ZM37.4006 67.34C36.4406 68.51 36.6306 70.37 36.0706 72.11C35.7506 73.11 35.2906 74.06 35.1606 75.07C34.9706 76.58 35.2006 78.11 34.8006 79.36C34.7306 79.59 34.3806 79.83 34.3206 80.09C33.9306 81.63 34.2806 83.31 34.3206 84.68C35.4806 84.21 36.3706 83.47 37.5806 83.05C37.4606 82.49 37.1306 82.13 36.9206 81.66C36.5906 81.65 36.8206 82.2 36.4406 82.14C37.3706 76.59 37.8606 70.58 40.1306 66.36C39.0806 66.33 38.3006 67.05 37.4006 67.34ZM34.9206 68.25C35.0206 69.15 34.6906 70.5 35.2806 70.91C35.6806 69.76 36.4206 68.95 36.7306 67.71C36.1206 67.87 35.4006 67.94 34.9206 68.25ZM43.1406 72.12C43.3906 72.15 43.4206 71.38 43.2006 71.33C43.2406 71.65 43.1006 71.79 43.1406 72.12ZM41.9906 80.64C43.0306 78.54 43.0206 75.39 43.1406 72.36C43.0806 72.36 43.0206 72.36 42.9606 72.36C42.7006 74.98 40.7806 77.91 41.9906 80.64ZM28.9406 80.04C29.3506 77.97 28.9206 75.3 28.5806 73.39C28.5906 75.4 27.8606 78.64 28.9406 80.04ZM55.3506 78.1C54.6006 77.87 53.7106 77.26 53.2406 77.26C52.8806 77.26 51.9606 77.75 52.0906 78.35C52.1606 78.65 53.7806 79.5 54.1506 79.56C55.2606 79.72 56.6306 79.62 57.7206 79.74C57.2705 79.21 56.3806 78.41 55.3506 78.1ZM51.2406 78.83C50.3706 78.5 49.6006 78.89 48.7006 78.77C48.5306 79.06 48.3606 79.36 48.3406 79.8C50.6406 81.59 53.4606 83.16 57.2306 83.12C55.6106 81.31 53.1006 80.39 51.2406 78.83ZM19.5706 80.7C20.7306 81.37 22.2006 81.74 23.6206 82.15C23.7706 81.84 23.6206 81.35 23.5006 81.12C21.4906 82.29 20.9606 80.07 20.3606 78.76C20.1306 79.45 19.7206 79.95 19.5706 80.7ZM26.5206 83.12C26.8506 83.34 27.4606 83.58 27.9706 83.42C27.9606 82.32 26.6706 81.37 26.5206 83.12ZM30.5106 84.45C30.5206 84.1 30.2006 84.08 29.9706 83.97C29.9706 84.3 30.1206 84.5 30.5106 84.45ZM31.5406 84.39C31.6106 84.46 31.7506 84.46 31.9006 84.45C31.9706 84.27 31.9306 84.23 31.7806 84.15C31.7206 84.25 31.5606 84.25 31.5406 84.39Z" fill="#282F39"/>
</svg>
