<svg width="144" height="80" viewBox="0 0 144 80" fill="none" xmlns="http://www.w3.org/2000/svg">
<path fill-rule="evenodd" clip-rule="evenodd" d="M94.3496 19.6799C95.2496 19.6499 96.2596 19.1699 97.3396 19.0599C98.2296 18.9699 99.4796 19.1299 100.39 19.0599C101.23 18.9899 102.34 18.9599 102.32 19.8699C102.3 20.9399 99.8596 21.0699 98.6496 20.9899C97.3596 20.8999 96.5096 20.2999 95.7296 20.1199C95.1796 19.9899 94.4796 20.1999 94.3496 19.6799Z" fill="#282F39"/>
<path fill-rule="evenodd" clip-rule="evenodd" d="M139.66 36.9199C141.59 37.9399 143.44 39.1999 143.58 41.6499C143.65 42.8899 143.34 44.5499 142.96 45.7599C142.87 46.0299 142.68 46.2599 142.59 46.5099C142.27 47.3299 142.19 48.2399 141.97 49.0599C141.33 51.3699 140.11 53.5299 138.92 55.3499C138.52 58.1799 137.19 60.4499 136.37 63.1899C136.18 63.8099 135.97 64.4999 135.81 65.1799C135.65 65.8499 135.39 66.5699 135.31 67.2299C135.27 67.5299 135.36 67.8599 135.31 68.1599C135.19 68.8399 134.65 69.6099 134.44 70.5199C134.01 72.4099 133.82 73.8699 133.07 75.6199C132.58 76.7699 132.21 78.0699 130.58 77.4899C129.8 76.4099 130.08 74.2599 129.9 72.5699C129 72.0199 127.74 72.1499 126.6 72.0699C123.2 71.8499 119.46 71.6799 116.58 70.8899C117.08 70.6699 117.82 70.6799 118.32 70.4499C118.39 70.1399 118.07 69.7199 118.07 69.2699C116.13 69.1799 117.34 65.8799 117.76 64.8499C118.27 63.5999 118.95 62.5499 119.57 61.6799C120.63 60.1599 121.67 58.8499 123.05 57.6999C123.51 57.3199 123.95 56.8199 124.54 56.6999C124.48 57.0099 124.04 57.2199 123.86 57.5099C123.33 58.3199 122.98 59.2199 122.43 59.9999C120.89 62.1899 118.86 64.3499 118.32 67.5299C118.69 67.2099 118.78 66.5999 119.07 66.0999C120.36 63.8399 122.67 61.2699 124.55 59.1299C125.05 58.5699 126.03 57.1899 126.98 57.4499C128.02 57.7399 126.96 58.8799 126.61 59.3199C124.96 61.3699 123.47 63.2999 122 65.4199C121.42 66.2599 120.81 67.1499 120.57 68.1599C122.1 66.7699 123.16 64.9499 124.49 63.2499C125.14 62.4099 125.84 61.6399 126.54 60.8199C127.22 60.0299 128.12 59.3299 128.72 58.5199C129.39 57.5999 129.78 56.4799 130.46 55.5999C128.25 55.3999 125.38 55.3299 123.49 54.5999C125.75 54.1199 129.19 53.7399 131.08 54.8499C131.77 54.5099 131.16 54.1699 130.96 53.5399C130.37 51.7999 130.95 48.4699 131.08 46.6299C129.89 46.2599 128.32 46.2799 127.1 45.9499C128.37 45.7099 129.68 45.4899 131.14 45.4499C131.55 44.8199 131.57 44.0599 131.82 43.3899C132.31 42.0999 133.1 41.1499 133.94 40.0899C134.34 39.5899 134.65 38.9199 135.06 38.5299C135.78 37.8499 136.84 37.6799 137.74 37.1599C137.77 33.5799 137.24 29.1799 136.43 26.1499C135.72 23.4999 134.12 22.5099 132.14 21.0499C131.36 20.4699 131.07 20.2899 129.9 19.9899C129.03 19.7699 128.06 19.4899 127.04 19.1799C128.42 19.0799 130.34 18.6699 131.09 19.6099C132.4 19.8499 133.22 20.6499 134.2 21.3499C134.81 21.7899 135.49 22.1699 136.01 22.5899C137.09 23.4899 137.86 25.2399 138.5 26.8799C139.55 29.6999 140.33 33.2799 139.66 36.9199ZM136.42 39.2199C135.71 39.5499 135.01 40.4499 134.43 41.1499C133.86 41.8299 133.16 42.6399 132.88 43.5799C132.43 45.0399 132.17 47.0899 131.88 48.8699C131.6 50.5799 131.98 52.5099 131.63 54.0299C132.44 53.4999 133.03 52.6699 133.75 51.9799C134.48 51.2799 135.25 50.6099 135.99 49.9299C137.49 48.5599 139.1 47.1999 141.09 46.3799C141.49 44.8199 141.5 42.5899 140.65 41.4699C139.87 41.7899 139.36 42.5099 138.78 43.0899C137.6 44.2699 136.32 45.2999 135.23 46.5099C134.35 47.4899 133.61 48.7299 132.37 49.0599C133.07 47.1699 134.48 45.7599 135.85 44.5199C137.25 43.2399 138.73 41.9699 140.52 41.0999C140.08 39.6099 138.28 38.3599 136.42 39.2199ZM140.84 46.8199C140.76 46.8299 140.71 46.9099 140.65 46.9399C139.83 47.4199 139.19 48.3999 138.41 49.1799C137.08 50.5099 135.4 51.8699 134.05 53.2199C133.39 53.8799 132.26 54.8399 132.06 55.4599C131.63 56.8299 132.09 58.2799 131.63 59.7499C132.03 59.8199 132.17 59.3499 132.38 59.1299C134.07 57.2799 135.84 55.5299 138.1 54.3399C138.24 54.1799 138.51 54.3899 138.6 54.2799C139.38 52.6499 139.93 50.5199 140.47 48.6799C140.66 48.0099 140.94 47.3499 140.91 46.8099C140.88 46.8199 140.86 46.8199 140.84 46.8199ZM137.73 55.3999C137.21 56.0199 136.79 56.7299 136.18 57.3899C135.63 57.9799 135.1 58.6299 134.5 59.3199C133.41 60.5799 131.63 62.2199 131.33 64.0499C131.65 64.1199 131.84 63.7399 132.01 63.5499C133.2 62.2699 134.56 60.6599 135.93 59.6299C136.2 59.4299 136.57 59.3299 136.74 59.1299C137.1 58.6999 137.23 57.7999 137.49 57.1999C137.84 56.3599 138.7 55.4799 138.24 54.8399C138.17 55.1199 137.89 55.2099 137.73 55.3999ZM130.01 58.2699C130.16 58.2899 130.13 58.4899 130.32 58.4599C130.58 58.3599 130.64 57.7499 130.51 57.4599C130.33 57.7099 130.09 57.8999 130.01 58.2699ZM128.95 61.7499C129.31 61.7199 129.59 61.7699 129.88 61.8099C129.94 61.3299 130.29 60.6099 130 60.1899C129.65 60.6599 129.05 61.2199 128.95 61.7499ZM134.55 63.8699C134.79 63.8999 134.96 63.9999 135.17 64.0599C135.45 63.6899 135.7 62.9699 135.67 62.4999C135.66 62.4499 135.62 62.4299 135.55 62.4399C135.29 62.9899 134.68 63.1899 134.55 63.8699Z" fill="#282F39"/>
<path fill-rule="evenodd" clip-rule="evenodd" d="M120.8 21.9901C121.08 22.1401 121.48 21.8801 121.8 22.0501C122.26 23.1901 121.66 24.7301 121.3 25.6601C120.73 25.4401 120.6 24.9301 120.55 24.3501C120.51 23.9101 120.75 23.3901 120.67 22.9801C120.6 22.6101 119.87 21.9501 120.3 21.1101C121.02 20.8901 120.42 21.6501 120.8 21.9901Z" fill="#282F39"/>
<path fill-rule="evenodd" clip-rule="evenodd" d="M21.0503 24.4202C19.5103 24.5502 18.7103 23.4002 17.5703 22.9202C17.5603 22.8702 17.5903 22.8602 17.6303 22.8602C18.7803 22.8402 21.2103 22.9202 21.0503 24.4202Z" fill="#282F39"/>
<path fill-rule="evenodd" clip-rule="evenodd" d="M82.2201 42.6499C82.3101 43.3699 82.7701 44.9499 82.5901 45.6999C82.5301 45.9499 82.2801 46.2799 82.0301 46.2599C81.1001 46.1799 82.0301 43.4499 82.1501 42.8399C82.1901 42.7799 82.2201 42.7299 82.2201 42.6499Z" fill="#282F39"/>
<path fill-rule="evenodd" clip-rule="evenodd" d="M85.3899 44.1401C85.7699 44.5401 86.4599 44.9201 86.3199 45.6301C85.8599 45.5701 85.3499 44.7201 85.3899 44.1401Z" fill="#282F39"/>
<path fill-rule="evenodd" clip-rule="evenodd" d="M96.1602 46.9998C95.4902 46.9798 93.6802 46.9098 93.8602 46.1898C94.0402 45.4498 97.6802 45.7198 96.1602 46.9998Z" fill="#282F39"/>
<path fill-rule="evenodd" clip-rule="evenodd" d="M99.1499 54.97C99.4399 56.11 97.8699 55.95 96.8499 55.9C95.5799 55.84 94.2599 55.87 94.1699 55.15C95.4499 54.75 96.8899 54.51 98.5899 54.53C98.7599 54.69 99.0199 54.76 99.1499 54.97Z" fill="#282F39"/>
<path fill-rule="evenodd" clip-rule="evenodd" d="M96.5899 57.0203C96.6999 57.0003 96.7199 57.0803 96.6499 57.0803C96.7099 57.4303 96.3499 57.5003 96.2099 57.7003C95.9599 58.0903 95.8599 58.6303 95.6499 59.0703C95.2599 59.8703 94.6599 60.6403 94.3399 61.5603C94.0899 62.3003 94.1099 63.2103 93.4699 63.6103C93.0499 63.3803 92.9699 62.8703 93.0999 62.3003C93.5799 60.2103 95.1299 58.1403 96.5899 57.0203Z" fill="#282F39"/>
<path fill-rule="evenodd" clip-rule="evenodd" d="M97.3997 70.8401C98.4497 70.7901 100.22 70.9101 101.57 70.9601C102.56 71.0001 103.77 70.8101 103.81 71.5801C103.85 72.3601 102.93 72.2301 102.01 72.2601C100.88 72.3101 98.7397 72.3401 97.2797 72.2601C96.4897 72.2201 94.9297 72.1501 94.9797 71.4501C95.0297 70.7301 96.6197 70.8701 97.3997 70.8401Z" fill="#282F39"/>
<path fill-rule="evenodd" clip-rule="evenodd" d="M124.41 17.3801C124.68 17.3801 124.41 16.8501 124.6 16.7601C126.53 19.5101 126.16 25.3001 125.84 29.8901C125.79 30.6201 125.93 31.3501 125.84 32.0101C125.76 32.6001 125.29 33.1601 125.28 33.6901C125.27 34.3001 126.08 35.6701 125.59 36.4301C125.29 36.9101 124.06 37.1501 123.41 37.3001C123.38 40.1101 125.38 41.9401 125.03 44.9501C124.97 45.4401 124.69 45.9701 124.53 46.5101C124.07 48.0501 123.63 49.5801 122.73 50.6801C122.53 50.8201 123.04 50.9401 122.79 51.1201C121.83 53.5901 120.69 56.1601 119.68 58.7101C119.35 59.5501 118.84 60.1101 118.31 60.8901C117.59 61.9401 116.95 63.2101 116.32 64.4401C116.04 64.9701 115.77 65.5701 115.45 66.3101C115.2 66.8601 114.63 67.8201 114.64 68.2401C114.66 68.8601 115.4 69.3501 115.39 70.1701C115.38 70.7201 114.89 71.2601 114.77 71.9701C114.64 72.7701 115.03 73.7301 114.89 74.5201C114.84 74.7901 114.58 75.0301 114.45 75.3901C114.23 76.0401 114.31 76.4101 113.95 76.5701C113.7 76.6801 113.51 76.6101 113.08 76.6301C112.96 76.8001 113.04 77.1701 112.89 77.3201C111.88 77.7901 109.18 78.1401 107.91 77.5101C107.83 77.1201 107.83 76.6301 107.66 76.3301C106.93 76.1701 107.26 76.8901 107.1 77.0101C106.98 76.9601 106.44 76.3101 106.42 76.0101C106.41 75.8001 106.65 75.6101 106.73 75.3301C106.85 74.9001 106.78 74.3401 106.92 74.0201C107.08 73.6401 107.6 73.4601 107.73 73.0901C107.88 72.6501 107.89 71.7101 107.79 71.4101C107.67 71.0301 106.87 70.8301 106.86 70.4101C106.85 69.9601 107.37 69.9001 107.67 69.6001C106.82 66.9701 105.44 64.8601 104.43 62.3801C103.45 62.0601 102.96 60.5401 102.44 59.6401C101.39 57.8501 100.7 56.4601 100.08 54.1601C99.7996 53.1201 99.6696 51.8001 99.2096 51.1101C98.8196 50.5201 98.2796 50.5501 98.0296 49.9901C97.8996 49.7001 97.6996 49.0301 97.6596 48.6901C97.6096 48.3401 97.7696 48.1301 97.7196 47.6901C97.6796 47.3601 97.4096 47.0901 97.4696 46.5701C97.5096 46.2201 97.8296 45.9901 97.9096 45.7001C97.9796 45.4501 97.8496 45.1701 97.9096 44.9501C98.1796 43.9901 99.0996 42.9801 99.8396 41.9601C100.54 41.0001 101.32 39.9101 102.08 39.3501C102.28 39.2001 102.6 39.1001 102.76 38.9801C103.33 38.5601 103.81 37.9301 104.38 37.3601C105.3 36.4401 106.17 35.9901 106.31 34.4401C106.02 34.2701 105.66 34.5201 105.25 34.4401C104.71 34.1701 104.53 33.7501 104.25 33.2601C104.01 32.8201 103.59 32.3301 103.5 31.8301C103.42 31.3601 103.57 30.6401 103.62 30.0301C103.71 29.0701 103.82 28.3101 103.93 27.5401C104.15 26.1101 103.8 24.5701 104.18 23.1201C104.3 22.6601 104.68 22.3801 104.74 21.8701C104.83 21.0401 104.51 20.3301 104.74 19.4401C104.84 19.0501 105.16 18.4501 105.42 18.0101C106.15 16.7701 106.63 16.4601 108.03 15.7101C108.64 15.3801 109.37 14.9801 109.9 14.7801C110.22 14.6501 110.55 14.6701 110.83 14.5301C111.21 14.3501 111.49 14.0001 111.83 13.8501C112.29 13.6501 113.16 13.5701 113.39 13.1001C113.6 12.6701 113.31 12.0001 113.64 11.6101C113.26 10.8601 112.56 10.5201 112.27 9.62006C112.12 9.17006 112.01 8.53006 111.96 8.00006C111.92 7.61006 112.08 7.18006 112.02 6.75006C111.99 6.52006 111.77 6.32006 111.71 6.07006C111.56 5.49006 111.7 4.91006 111.65 4.33006C111.12 4.01006 110.91 3.20006 111.46 2.65006C111.62 2.49006 112.12 2.40006 112.21 2.15006C112.3 1.90006 111.85 1.48006 112.02 1.15006C112.27 0.680061 113.46 0.780061 113.89 0.720061C114.22 0.470061 114.27 0.110061 114.7 0.030061C115.19 -0.059939 116.1 0.150061 116.57 0.280061C117.51 0.540061 118.71 1.26006 119.12 1.84006C119.39 2.22006 119.42 2.69006 119.87 2.77006C120.68 4.19006 120.92 5.06006 120.49 6.94006C120.23 8.07006 120.08 9.31006 119.68 10.1801C119.2 11.2201 117.98 13.2001 119.37 14.2301C121.21 14.4301 122.11 15.5601 123.6 16.1001C123.77 16.6101 124.26 16.8301 124.41 17.3801ZM113.02 3.75006C112.85 4.62006 112.69 5.49006 112.65 6.49006C112.69 6.62006 112.96 6.51006 112.9 6.74006C112.51 9.79006 114.27 11.6401 116.82 10.9701C117.24 11.9501 115.75 12.2401 114.89 12.1501C114.91 13.2601 114.57 14.0301 113.89 14.4501C114.41 15.4101 116.68 15.6901 117.62 14.9501C117.53 14.6401 117.52 14.2601 117.43 13.9501C117.44 13.7601 117.76 13.8701 117.74 13.6401C116.78 12.8001 117.87 11.6301 117.74 10.7201C117.71 10.5001 117.39 10.3001 117.37 10.1001C117.32 9.68006 117.83 9.22006 117.99 8.61006C118.27 7.55006 118.43 6.74006 118.8 6.00006C118.94 5.81006 119.32 5.86006 119.36 5.56006C119.47 5.28006 119.53 4.86006 119.36 4.63006C118.89 4.53006 118.57 4.96006 118.43 5.38006C118.14 5.09006 117.81 4.84006 117.25 4.82006C116.81 4.55006 116.6 4.06006 116.13 3.82006C114.94 4.23006 114.05 3.42006 113.02 3.75006ZM118.56 4.31006C118.82 4.38006 118.81 3.88006 118.62 3.87006C118.54 3.96006 118.56 4.15006 118.56 4.31006ZM118.44 4.87006C118.59 4.78006 118.62 4.41006 118.38 4.37006C118.14 4.43006 118.27 4.84006 118.44 4.87006ZM119.12 16.3901C118.85 16.3001 118.57 15.7601 118.25 15.7701C117.98 15.7701 117.57 16.2801 117.25 16.3901C115.33 17.0501 113.98 15.7301 113.33 14.6501C113.33 14.6101 113.32 14.5801 113.27 14.5901C113.08 14.8401 112.63 14.7301 112.27 14.8401C111.32 15.1401 110.73 16.1401 110.09 16.3301C109.68 16.4501 109.27 16.3401 108.91 16.4501C108.24 16.6601 107.45 17.1401 106.98 17.6301C106.66 17.9701 106.03 18.8201 105.92 19.2501C105.75 19.9301 105.73 20.6301 105.49 21.3001C105.4 21.5401 105.47 21.8601 105.43 22.1701C105.21 23.6301 104.74 25.2001 104.81 26.9601C105.14 27.0401 105.72 27.0801 105.99 27.0201C106.66 26.4301 105.78 26.2601 105.74 25.7101C105.71 25.1901 106.53 24.1901 106.99 23.7801C107.51 23.3201 108.15 23.0201 108.54 22.6601C108.62 21.9701 108.96 21.5501 109.22 21.0401C109.36 21.4601 109.35 22.0301 109.34 22.6001C109.83 22.8601 109.77 23.4701 110.03 24.0301C110.41 24.8801 110.8 25.3601 110.28 26.2701C110.63 26.8201 110.38 27.5801 110.28 28.2001C112.92 27.7201 115.24 29.2701 117.81 29.3801C118.95 29.4301 119.39 29.8401 120.42 29.8201C120.67 28.5501 120.74 27.1101 121.35 26.2101C121.34 26.5101 121.4 26.7401 121.6 26.8301C122.31 26.2801 123.62 26.6301 124.65 26.6401C124.79 23.6801 124.77 20.3101 123.78 18.3001C123.45 17.6401 122.58 17.6301 122.29 16.9301C121.48 16.4001 120.19 16.7501 119.12 16.3901ZM108.42 23.2901C108.04 24.0701 107.15 24.3401 106.93 25.2801C107.36 25.6301 107.79 25.0201 108.17 24.7201C108.69 24.3101 109.2 24.0301 109.29 23.2901C109.08 23.0901 108.65 23.1701 108.42 23.2901ZM107.11 26.5901C108.09 26.8901 108.23 25.8001 109.23 25.9101C110.02 23.9801 107 25.6001 107.11 26.5901ZM109.48 27.0301C109.36 26.1201 107.64 27.0401 107.8 27.9601C108.43 28.3701 109.55 27.6201 109.48 27.0301ZM104.62 28.2101C104.37 29.2701 104.48 30.9501 104.68 31.9401C104.71 32.2401 104.38 32.1801 104.31 32.3801C104.76 32.4801 104.89 33.3501 105.31 33.6201C105.85 33.9801 107.3 33.6901 108.11 33.6201C109.59 33.4901 111.17 33.0401 112.72 32.9401C113.82 32.8601 114.34 32.6801 115.15 32.5001C115.95 32.3301 116.79 32.3501 117.45 32.1901C117.99 32.0601 118.44 31.7501 118.94 31.6901C119.85 31.5801 120.18 31.8401 120.25 30.8801C119.57 30.0101 118.73 30.4301 117.26 30.2601C116.15 30.1301 114.73 29.7601 113.34 29.5701C112.74 29.4901 112.05 29.3301 111.41 29.2001C109.97 28.8901 109.34 28.6901 108.42 29.3201C108.01 29.6001 107.82 30.2601 107.24 30.1901C106.88 29.7401 107.45 29.4401 107.61 29.1301C107.19 29.0701 106.73 29.1401 106.61 28.7001C106.49 28.2501 107.02 27.9101 106.92 27.7001C106.22 27.9701 105.47 28.2801 104.62 28.2101ZM121.61 28.3301C121.52 28.8401 121.81 29.4901 122.17 29.7601C121.88 30.2801 122.03 31.2301 121.86 31.8801C121.38 32.3701 120.71 31.9301 120.12 32.0701C119.87 32.1301 119.62 32.5501 119.37 32.6901C118.59 33.1301 117.34 33.3301 116.26 33.4401C114.84 33.5901 113.26 33.7601 111.78 33.8701C111.2 33.9201 110.54 33.6801 110.04 34.0601C110.88 34.6101 112.22 34.2301 113.34 34.5601C113.58 34.6301 113.77 34.8101 114.02 34.8701C115.35 35.2201 117.06 35.0201 118.44 34.8701C120.41 34.6501 122.34 34.0801 123.85 33.6301C123.88 32.6601 124.73 32.0101 124.85 31.0801C124.94 30.3801 124.66 29.6301 124.79 28.6501C123.92 28.1801 122.68 27.9501 121.61 28.3301ZM110.72 35.3001C110.27 34.7801 109.76 34.3201 109.17 33.9301C108.68 34.4901 108.54 35.2801 108.17 35.9201C107.96 36.2801 107.53 36.4701 107.49 36.9201C109.21 37.1001 110.32 38.2901 111.97 38.4801C114.57 38.7801 117.23 37.3201 119.93 37.4201C120.72 37.4501 121.39 37.8201 121.98 37.4201C122.09 36.9701 121.92 36.3401 121.86 35.8601C118.34 35.6601 113.58 36.6701 110.72 35.3001ZM124.35 35.0501C124.51 35.1201 124.56 35.3001 124.72 35.3601C124.83 35.1401 125.01 34.6601 124.91 34.4301C124.79 34.7101 124.42 34.7401 124.35 35.0501ZM123.04 35.8001C123.18 35.7601 123.21 35.4701 123.1 35.3601C123.04 35.3601 122.98 35.3601 122.91 35.3601C122.79 35.5001 122.9 35.7501 123.04 35.8001ZM106.24 37.8601C106.25 37.4801 106.04 37.3101 105.74 37.2401C105.59 37.6101 105.22 37.7501 105.12 38.1701C105.36 38.3701 105.83 37.7901 106.05 38.1701C105.5 38.6301 105.33 39.4801 104.31 39.4801C103.52 40.5801 103.35 41.9801 102.94 43.5901C102.73 44.4001 102.47 45.2501 102.32 46.0801C101.9 48.3901 101.39 51.8301 101.82 54.4201C102.05 55.8001 102.31 56.6801 102.82 57.7201C103.09 58.2801 103.38 58.9801 103.75 59.2101C103.98 58.5401 103.83 57.5401 103.87 56.6001C103.93 55.2201 104.06 53.8501 104.24 52.4901C104.39 51.3801 104.75 50.2901 104.68 49.6301C104.63 49.2301 104.35 48.9001 104.31 48.5101C104.27 48.1301 104.29 47.7001 104.31 47.3301C104.46 45.0401 105.12 42.4501 105.87 40.6701C106.14 40.0401 106.31 39.3001 106.8 38.9301C106.69 39.3901 106.5 40.2201 106.43 40.9201C106.22 42.8801 105.82 44.8301 105.5 46.7101C105.71 46.6101 105.65 46.2401 105.93 46.2101C106.46 43.4601 107.2 40.5901 108.48 38.8101C107.55 38.6601 106.96 38.1901 106.24 37.8601ZM122.11 38.6701C121.88 38.6101 121.37 38.7901 121.24 39.0401C121.28 39.5801 121.69 39.7601 122.17 39.8501C122.22 39.5401 122.19 39.0201 122.11 38.6701ZM109.29 39.4101C108.65 41.2001 107.77 43.0701 107.67 45.2001C108.59 44.1101 108.54 42.4101 109.1 41.0301C109.43 40.2101 110.02 39.6301 110.22 38.8501C109.85 38.8501 109.47 38.8501 109.1 38.8501C109.15 39.0501 109.19 39.2601 109.29 39.4101ZM119.87 40.5901C119.53 40.7701 119.09 41.6801 118.81 42.1401C117.8 43.7901 116.89 45.9501 116.01 47.3701C115.78 47.3901 115.58 47.4401 115.45 47.5601C115.24 48.3101 115.21 49.0501 115.14 49.9201C114.97 51.8901 114.17 53.8401 114.33 55.6501C115.47 52.9701 116.86 50.5401 118.25 48.1201C119.28 46.3301 120.33 44.4201 121.55 42.8301C121.95 42.3101 122.74 41.8401 122.61 41.0301C121.62 40.9001 120.8 40.0901 119.87 40.5901ZM116.13 44.8301C116.54 44.3701 116.8 43.7301 117.13 43.1501C117.46 42.5601 117.85 41.9801 118 41.4101C116.95 41.8601 116.04 43.0101 116.13 44.8301ZM102.19 42.1501C101.78 42.7701 101.22 43.4501 100.7 44.2101C100.22 44.9101 99.5296 45.6001 99.2096 46.2601C98.6496 47.4001 99.1196 48.4101 99.1496 49.6201C100.23 49.7801 100.33 50.9301 100.77 51.7401C101.1 48.3501 101.58 44.7901 102.45 42.1601C102.45 42.1201 102.44 42.0901 102.39 42.1001C102.37 42.1601 102.28 42.1501 102.19 42.1501ZM114.45 58.7701C114.75 58.8701 115.11 58.4001 115.57 58.6501C116.65 56.8601 117.86 54.4001 119.18 52.4901C119.64 51.8201 120.83 49.9101 121.36 51.4301C122.57 49.2101 124.22 45.9301 123.1 42.7201C123.02 42.7201 123.01 42.6401 122.91 42.6601C120.04 47.9601 116.54 52.6601 114.45 58.7701ZM114.89 44.0801C114.25 45.3801 112.88 44.1801 111.84 44.3901C111.51 44.4601 111.01 45.0601 110.66 45.3801C110.28 45.7201 109.76 46.0901 109.48 46.3801C109.19 46.6801 108.47 47.4201 108.36 47.8701C108.29 48.1401 108.39 48.5701 108.36 48.9301C108.27 49.8601 107.88 50.9601 107.92 51.7901C107.95 52.3501 108.24 52.9001 108.11 53.4701C108.08 53.7501 107.68 53.6601 107.68 53.9701C107.55 56.3601 107.44 59.1501 107.8 61.3801C107.8 59.6901 108.53 57.9501 108.3 56.3401C108.23 55.8401 107.92 55.4501 108.24 54.9701C108.36 55.7601 109.06 56.3301 109.3 57.0901C109.5 57.7301 109.44 58.4301 109.61 59.0801C109.74 59.5801 110.05 60.0201 110.23 60.5101C110.61 61.5401 110.76 62.7401 110.91 63.9301C110.98 64.5101 110.99 65.2301 111.28 65.6101C111.95 64.2301 111.93 62.3201 112.15 60.3801C112.29 59.1101 112.46 57.8001 112.65 56.5201C113.03 53.9301 113.39 51.3501 113.96 49.1201C114.21 48.1201 114.94 47.0801 114.96 46.2001C114.96 45.9201 114.78 45.6701 114.77 45.3901C114.76 44.6301 115.4 44.0001 115.2 43.2801C114.92 43.3601 115.05 43.8601 114.89 44.0801ZM106.55 47.5601C106.33 47.8501 106.55 48.2001 106.92 48.2401C107.11 48.0901 107.2 47.8401 107.11 47.5601C106.96 47.5201 106.68 47.4401 106.55 47.5601ZM105.87 58.7001C106.2 57.2301 106.23 55.5301 106.43 54.0301C106.64 52.4701 107.43 50.1501 105.81 49.6701C105.33 52.9601 104.83 56.8501 105.13 60.5001C105.51 60.1701 105.71 59.4101 105.87 58.7001ZM118.06 57.1501C119.19 55.6901 120.06 53.9601 120.92 52.2301C120.91 52.1601 120.85 52.1301 120.8 52.1101C119.77 53.6701 118.77 55.2601 118.06 57.1501ZM117.13 58.8301C117.43 58.6501 117.82 57.9701 117.63 57.7101C117.6 58.2201 117.12 58.2801 117.13 58.8301ZM113.58 60.5701C113.31 61.0601 112.38 62.2301 113.33 62.6301C113.57 61.9001 114.39 61.1401 114.26 60.4501C114.18 60.6301 113.84 60.5501 113.58 60.5701ZM109.16 72.7001C109.19 73.0001 109.53 73.0701 109.72 72.8901C109.72 72.6101 109.37 72.6101 109.16 72.7001Z" fill="#282F39"/>
<path fill-rule="evenodd" clip-rule="evenodd" d="M87.0096 13.0899C86.7596 14.1799 87.5896 14.2799 88.1296 14.7099C88.5496 15.0399 89.0796 15.6899 89.7496 16.1399C90.3996 16.5799 91.2096 16.9399 91.4896 17.4499C91.7696 17.9599 91.6396 18.4599 92.1096 19.0099C92.3296 20.1299 92.6096 21.3199 92.7296 22.6799C93.0696 26.5099 93.6296 30.4099 93.9096 34.3799C94.0296 36.0799 93.8196 37.5299 92.3496 37.6799C92.1896 38.5999 92.7196 39.6099 92.8496 40.6699C92.8996 41.0899 92.7996 41.5499 92.7896 41.9799C92.7496 43.1799 93.1596 44.2699 93.2296 45.2799C93.3296 46.8999 92.3896 48.0099 91.6096 48.9499C91.5596 51.5099 92.0896 53.3699 92.2996 55.8599C92.5596 59.1499 92.1296 62.8099 92.4896 65.8799C92.5496 66.3999 92.6496 66.8899 92.7396 67.3699C92.8296 67.8499 93.0296 68.2799 93.1096 68.7399C93.2896 69.6499 93.2796 70.3699 93.5496 71.0399C93.6596 71.2999 93.9696 71.6299 94.1096 71.9699C94.4696 72.8499 94.6596 73.9799 95.0396 75.1399C95.1796 75.5599 95.3196 76.1399 95.5396 76.6999C95.7596 77.2599 96.1296 77.7599 96.0396 78.1899C95.9296 78.7199 94.8396 79.1699 94.2296 79.2499C93.7696 79.3099 93.3896 79.0999 92.8596 78.9999C92.5296 78.9399 92.1996 78.9899 91.9296 78.9399C91.3896 78.8299 90.8596 78.4399 90.4996 78.4399C90.1596 78.4399 89.8996 78.7899 89.4996 78.8699C89.1496 78.9399 88.5996 78.9299 88.1296 78.9899C86.6596 79.1799 85.9396 78.8499 85.3296 77.9299C85.3696 75.7999 86.1696 73.6599 86.0096 71.4599C85.9696 70.8899 85.8396 70.2899 85.7596 69.7199C85.6696 69.0999 85.6696 68.4899 85.5696 67.9099C85.4696 67.3299 85.0496 66.8499 85.1396 66.2299C85.6096 67.1599 86.4196 68.1399 86.7596 69.3999C87.1096 70.6799 87.1296 72.2499 87.1996 73.6899C87.2296 74.2199 86.9896 74.6899 87.3896 75.0599C88.0296 75.2899 88.4396 74.8999 88.6996 74.5599C88.9496 71.9599 88.4296 69.6899 88.0796 67.4699C87.6996 65.0599 87.7996 62.4499 87.2696 60.1899C86.8496 58.3899 86.5596 56.5799 86.0196 54.8999C85.3396 52.7399 84.8896 50.4499 84.3996 47.9299C84.1196 46.4899 83.5896 45.0899 83.1496 43.4499C82.8196 42.2099 82.1396 40.1199 80.7196 40.1499C79.5296 40.1799 78.3696 41.7999 78.3596 43.1399C78.3496 43.6999 78.5896 44.3599 78.7896 44.9399C78.9696 45.4499 79.3796 46.2999 79.2296 46.7399C79.0896 47.1199 78.7396 46.9599 78.4796 47.1099C78.4796 47.9999 78.9896 48.7299 79.2296 49.5399C79.9496 52.0099 80.4696 54.5399 81.4696 56.7599C81.7896 57.4599 82.1996 58.1499 82.5296 58.8799C83.1996 60.3499 83.9696 61.6399 84.5796 63.1699C84.8596 63.8599 85.3996 64.7099 84.9496 65.5299C84.1996 65.3299 84.0496 64.4199 83.8296 63.8499C82.0696 59.3599 79.2396 55.5299 77.9796 50.4699C77.7696 50.3099 77.3396 50.7799 77.1096 50.5999C75.9796 49.8499 75.4996 47.8299 75.2396 45.8699C75.0196 44.1699 74.9396 42.0699 75.1196 40.2699C75.1596 39.8499 75.4996 39.2899 75.4296 38.8999C75.3196 38.2799 74.3996 38.1599 74.0596 37.9699C73.7596 37.4799 73.2196 37.2299 73.0696 36.7299C72.6396 35.3099 73.4296 32.5199 73.6296 31.1299C73.7596 30.2199 73.9596 29.3499 74.1896 28.5199C74.4396 27.6399 74.5096 26.8299 74.6896 25.9099C74.8896 24.8899 75.3996 24.0999 75.5596 23.2999C75.8396 21.9199 75.7196 20.4999 76.1196 19.2599C76.2596 18.8299 76.5296 18.3299 76.7396 17.8299C76.9596 17.3099 77.0396 16.6499 77.2996 16.3399C77.6696 15.8999 79.0596 15.3899 79.7896 15.0299C80.3796 14.7399 82.1496 14.3699 82.0296 13.5399C81.9996 13.3199 81.4896 13.2399 81.2796 12.9799C80.9096 12.5299 80.5996 11.5799 80.1596 10.6799C79.3396 8.96993 78.9696 6.23993 79.7196 3.95993C80.2396 2.37993 81.2996 0.499929 83.1996 0.289929C84.0896 0.189929 85.5996 0.179929 86.2496 0.539929C86.7496 0.819929 87.5696 2.00993 87.9896 2.52993C89.0796 3.88993 90.1396 5.69993 89.4196 8.18993C88.9896 9.66993 87.5196 10.6799 87.5496 12.6699C87.4996 12.9199 87.0096 12.7599 87.0096 13.0899ZM83.2796 2.75993C83.2696 3.12993 83.5396 3.19993 83.7796 3.31993C83.8696 3.03993 83.8096 2.86993 83.6596 2.69993C83.4596 2.64993 83.4196 2.75993 83.2796 2.75993ZM82.4696 3.19993C80.4396 3.79993 81.1096 9.69993 82.3496 10.8499C82.9996 11.4599 84.5896 11.8599 85.6496 11.2899C86.1496 11.0199 86.6096 10.1699 86.6496 9.60993C86.7096 8.61993 85.8996 7.54993 85.9696 6.49993C84.3696 5.81993 83.1796 4.73993 82.4696 3.19993ZM82.2796 13.1499C83.0496 13.1899 82.7996 12.2999 82.5896 11.9099C81.8796 11.6399 82.2496 12.7399 82.2796 13.1499ZM83.3996 12.7199C83.3196 12.7199 83.3396 12.8299 83.2796 12.8399C83.5996 13.6199 84.3696 13.9499 85.2696 14.1499C85.1496 13.2099 84.0196 12.9499 83.3996 12.7199ZM76.3096 33.7499C76.9396 32.3499 77.6896 31.0899 78.1096 29.8899C78.6996 28.1999 77.3496 26.9099 77.2996 25.2199C77.2396 22.7099 78.8496 20.4499 78.3596 17.9399C78.3196 17.9399 78.2796 17.9399 78.2396 17.9399C78.2396 17.8999 78.2296 17.8699 78.1796 17.8799C78.1596 17.9299 78.0996 17.9799 78.0596 17.9999C76.6196 19.0299 76.1396 21.5599 75.8196 23.5999C75.6796 24.5299 75.7296 25.4799 75.5696 26.4599C75.4396 27.2799 75.1596 28.1499 74.9496 29.0099C74.7396 29.8599 74.6196 30.7699 74.5096 31.6899C74.2896 33.6799 74.0196 36.1199 74.1396 37.7299C75.4996 37.6199 76.8196 38.3099 78.2496 38.1599C79.0596 38.0799 79.5596 38.1999 80.4296 38.2799C81.7796 38.4199 83.3796 38.1299 84.5396 38.3399C85.0596 38.4299 85.6496 38.8199 86.2196 39.0299C86.8396 39.2599 87.4996 39.3799 87.8996 39.7799C88.1796 40.3299 87.9096 41.4299 88.3996 41.7699C89.5296 41.3099 88.2396 40.1199 88.5896 39.3999C89.0496 39.8999 89.4396 40.4599 89.5196 41.3299C90.1896 40.9199 89.3696 39.0399 90.2096 38.9699C90.4296 39.4099 90.0096 40.4999 90.5796 40.5899C91.0896 39.6899 90.3296 38.9299 90.1396 38.1599C89.4096 38.0699 88.8696 37.1799 88.2096 37.0399C87.1896 36.8199 86.2796 37.4399 85.1596 37.2299C84.8096 37.1599 84.4596 36.8399 84.0996 36.7299C83.7296 36.6099 83.3396 36.6299 82.9796 36.5399C82.5196 36.4299 82.0896 36.1899 81.6096 36.0399C80.0696 35.5699 78.4996 35.2799 76.9996 34.9199C76.7096 35.0999 76.5296 35.3999 75.9996 35.3499C75.4296 34.9899 76.0196 34.3999 76.3096 33.7499ZM90.6196 25.6599C90.3996 28.0899 89.6596 30.3999 89.6896 32.9999C89.8896 33.3399 90.5996 33.4899 90.6196 33.8099C89.0396 34.0299 87.4996 34.2499 86.0196 34.6799C84.9796 34.9799 83.8696 35.1899 83.1596 35.7999C83.9996 35.9599 84.7896 36.0699 85.7696 36.1099C88.3096 36.2199 90.3696 37.1199 92.7396 36.4199C93.1096 35.5799 92.8696 34.6099 92.7996 33.5599C92.6696 31.5699 92.2596 29.7499 92.1196 27.8999C92.0296 26.7399 91.6996 25.5299 91.7496 24.4799C91.8096 23.0699 91.7496 21.6299 91.3096 20.3099C91.3096 20.2699 91.2996 20.2399 91.2496 20.2499C90.7896 21.9999 90.7796 23.8399 90.6196 25.6599ZM77.3696 34.0599C78.1396 33.5399 78.7396 32.1899 78.2996 30.8899C78.2596 30.8899 78.2196 30.8899 78.1796 30.8899C78.1396 32.1699 77.5396 32.9099 77.3696 34.0599ZM91.3696 70.2099C91.4896 70.7899 91.4196 71.3899 91.4296 72.0799C91.4396 72.8299 91.5096 74.2799 91.8696 74.8199C92.0696 75.1199 92.8196 75.6799 93.4296 75.5699C94.5496 75.3599 93.8596 73.8199 93.6796 73.3299C93.2096 72.0999 92.9096 71.0999 92.5596 69.8499C92.3896 69.2299 91.9996 68.7199 91.8796 68.2299C91.3096 65.9899 91.3396 63.5999 91.3796 60.6999C91.4196 58.2699 91.0796 55.6099 90.9496 53.4199C90.9096 52.7599 90.9296 52.0699 90.8896 51.4299C90.7996 50.0199 90.8496 48.5699 90.6396 47.3199C90.5496 46.7999 90.2496 46.0299 90.0196 45.3299C89.7996 44.6399 89.6796 43.7599 89.3996 43.3399C89.1996 43.0399 88.6396 42.9599 88.3996 42.5899C88.1596 42.2199 88.0596 41.7199 87.8396 41.3499C87.5896 40.9199 87.4796 40.4399 87.0896 40.2899C85.1096 39.7399 84.4296 42.1599 84.5996 44.0199C84.6996 45.1099 85.0996 46.2199 85.4096 47.2599C85.7096 48.2399 85.8296 49.1999 85.9696 50.3099C86.2196 52.2899 86.9796 54.1599 87.3396 56.1599C88.0996 60.3799 89.2896 64.4399 90.1996 67.7299C90.5696 68.4699 91.1596 69.1699 91.3696 70.2099ZM90.3096 72.8299C90.6796 70.4499 89.8496 68.7199 89.3096 67.0399C89.0696 69.2999 89.7796 71.1399 90.3096 72.8299Z" fill="#282F39"/>
<path fill-rule="evenodd" clip-rule="evenodd" d="M25.47 13.2102C24.66 12.3402 25.13 10.1902 24.91 8.73016C24.79 8.87016 24.48 8.96016 24.16 8.73016C23.69 9.12016 23.53 9.69016 23.1 10.2202C22.65 10.7902 21.94 11.0102 22.04 12.2102C21.42 12.1402 21.37 12.8102 20.92 12.7702C20.32 12.7102 20.61 11.6102 20.05 11.2802C18.96 11.4902 18.38 12.7702 19.24 13.7102C19.53 14.0302 19.95 14.0702 20.24 14.3302C20.6 14.6702 20.87 15.5502 21.36 16.2002C22 17.0302 22.66 18.3702 23.97 17.6902C24.61 17.3602 25.2 16.5202 25.28 15.1402C25.52 15.8702 25.74 17.0902 25.4 17.7502C24.97 18.6002 23.36 18.1902 23.22 19.2402C23.3 19.6402 23.42 20.0502 23.22 20.4202C23.36 20.8502 23.93 21.1302 23.66 21.7902C21.79 21.3902 20.25 20.7402 18.93 19.8002C18.52 19.5102 18.03 19.0502 17.44 19.1802C17.35 19.5802 17.64 19.6002 17.88 19.6802C17.06 20.1202 17.58 21.6302 17.13 22.3602C16.86 22.6102 16.68 22.3102 16.38 22.4202C15.9 23.4702 14.61 24.8102 15.38 26.1502C15.66 25.2502 15.92 24.3302 16.44 23.6602C16.51 24.9102 15.95 26.3302 16.07 27.7102C16.1 28.0502 16.28 28.3802 16.26 28.7102C16.23 29.1602 15.78 29.6102 16.07 30.0802C16.31 30.2202 16.38 29.6502 16.69 29.6402C17.53 31.1302 18.51 32.4002 19.43 34.0602C20.05 35.1702 20.99 36.1702 21.67 37.3602C22.6 38.9902 23.44 40.9902 24.78 42.5202C25.19 42.9902 25.77 43.8002 26.15 43.8902C26.5 43.9702 26.91 43.8102 27.27 43.8302C27.59 43.8502 27.88 44.0202 28.2 44.0802C28.82 44.1902 29.56 44.1702 30.25 44.2702C31.29 44.4202 32.2 44.5902 33.42 44.5202C34.29 44.4702 35.17 44.1702 36.09 44.0802C36.73 44.0202 37.56 44.3302 38.08 43.7702C37.8 43.3802 37.24 43.4002 36.84 43.2702C34 42.3702 30.99 41.1202 28.07 40.1602C27.72 40.3402 27.77 41.2302 27.2 40.9702C26.93 40.7002 27.18 39.9402 27.14 39.4802C27.05 38.5902 26.59 38.1002 26.27 37.4302C26.08 37.0402 26.04 36.5902 25.9 36.1802C25.63 35.3902 25.12 34.5402 24.72 33.7502C23.52 31.4302 22.32 28.8302 21.67 26.1602C21.92 26.0402 22.04 26.4302 22.17 26.5902C23.22 28.0202 24.22 29.8802 24.85 31.7602C25.12 31.2502 25.08 30.6102 25.16 30.0202C25.26 29.3102 25.51 28.7502 25.47 28.0302C25.37 26.0702 23.81 24.4902 23.98 22.4902C24.97 23.2502 25.18 24.4802 25.72 25.4102C26.14 26.1202 26.86 26.7702 26.97 27.8402C27.06 28.7902 26.77 29.7002 26.53 30.5802C26.46 30.8602 26.32 31.2402 26.34 31.3902C26.39 31.7402 26.9 32.0402 27.09 32.3202C27.34 32.7002 27.46 33.1802 27.71 33.5702C27.97 33.9702 28.42 34.1902 28.46 34.6302C29.66 34.1202 30.41 33.1402 31.57 32.4502C32.35 31.9902 33.21 31.5002 33.93 31.0202C34.96 30.3302 35.91 29.0202 37.35 29.3402C38.08 29.1202 38.73 28.0502 39.59 27.8502C39.87 27.7802 40.21 27.8902 40.46 27.8502C41.01 27.7702 41.53 27.2502 42.08 27.6002C42.31 28.0802 41.92 28.3602 41.83 28.7202C42.51 29.9502 43.83 29.2302 45.07 28.9102C45.6 28.7702 46.6 28.5302 46.69 29.2202C46.76 29.7402 46.23 29.8602 45.76 30.2802C45.53 30.4802 45.37 30.8402 45.2 30.9602C44.83 31.2402 43.85 31.4602 43.15 31.7102C42.43 31.9702 41.77 32.4602 41.16 32.4602C40.36 32.4502 39.91 31.7802 39.04 31.8402C38.64 31.8702 38.01 32.2202 37.67 32.4602C37.15 32.8402 36.55 33.7902 36.11 34.3302C34.65 36.1202 33.08 38.2302 31.63 39.9302C32.56 40.4202 33.7 40.5702 34.87 40.9902C35.88 41.3502 36.95 42.0202 37.92 42.1702C39.08 42.3502 40.19 42.0602 41.22 42.2302C42.21 42.4002 43.16 42.8502 44.02 43.1602C44.89 43.4802 45.83 43.7302 46.57 44.2802C46.67 44.8102 46.4 44.9802 46.32 45.3402C46.35 45.7202 46.81 45.7902 47 46.2102C47.2 46.6302 47.22 47.2002 47.31 47.7702C47.54 47.7902 47.5 47.5402 47.56 47.4002C49.61 49.4602 49.42 52.7402 49.74 56.3602C50.06 60.0002 50.89 63.4302 51.42 67.0602C51.69 68.8802 51.88 70.9602 52.17 72.7802C52.84 73.0702 53.38 73.6602 53.1 74.7102C53.38 75.0902 53.92 75.2202 54.41 75.3902C55.24 76.2402 56.43 76.2202 58.02 76.7602C58.67 76.9802 60.57 77.1902 60.57 77.7502C60.57 78.4302 59.09 78.2602 58.21 78.1902C55.83 77.9902 54.58 78.0002 51.86 78.0002C50.78 78.0002 49.04 78.1102 48.56 77.6902C47.87 77.0702 48.54 75.1302 48.19 74.0802C48.07 73.7402 47.76 73.6402 47.63 73.3302C47.55 73.1502 47.63 72.9002 47.57 72.7102C47.43 72.2902 47.07 72.2602 47.01 71.9002C46.92 71.3502 47.29 70.8102 47.26 70.2202C47.23 69.5702 46.72 68.5702 46.45 67.7902C45.68 65.5302 44.79 62.7602 43.9 60.8202C43.76 60.5202 43.5 60.2802 43.4 60.0102C43.15 59.3302 43.27 58.7302 42.84 58.2102C41.74 63.5602 40.47 68.7002 39.79 74.5102C41.02 74.8402 42.1 75.1902 43.46 75.5702C44.14 75.7602 46.63 76.0002 46.45 77.2502C46.3 78.2701 42.87 77.8202 41.6 77.8702C39.57 77.9502 38 77.6102 36.37 77.8102C36.04 77.8502 35.87 78.0002 35.62 78.0002C35.28 78.0002 35 77.7902 34.75 77.7502C34.28 77.6802 33.82 77.7902 33.32 77.8102C26.96 78.1002 19.35 77.9902 13.16 78.0002C12.09 77.5201 12.07 75.7001 13.35 75.3902C14.08 75.2102 15.26 75.3902 16.27 75.3902C19.51 75.3902 22.98 75.3002 26.04 75.2702C28.05 75.2502 30.26 75.2402 31.89 75.6402C32.87 75.3602 33.94 75.1602 34.88 74.8302C34.13 73.8702 35.05 72.8502 35.19 71.9102C35.33 70.9302 34.94 69.6302 34.88 68.4902C34.72 65.3602 34.78 61.9102 35.13 58.9102C35.27 57.7102 35.36 56.3602 35.5 54.9902C34.11 55.2802 32.89 56.1102 31.46 56.6702C30.14 57.1902 28.7 57.6102 27.35 58.2302C24.62 59.4802 21.58 60.5702 18.51 60.7802C16.85 60.8902 15.16 60.2902 14.09 59.6002C13.59 59.2802 12.41 57.8302 12.16 57.1702C11.99 56.7302 12 56.1002 11.85 55.5502C11.71 55.0302 11.52 54.5402 11.48 54.0502C11.42 53.3802 11.59 52.7002 11.6 52.0002C11.62 50.9002 11.35 49.6402 11.29 48.3302C11.12 44.4202 11.27 40.2802 11.1 36.3202C11.04 34.9302 11.08 33.6202 11.29 32.2102C11.4 33.1602 11.91 33.8002 12.16 34.7602C12.53 36.2002 12.4 38.2102 12.47 39.9902C12.55 42.0202 12.5 44.2502 12.59 46.4002C12.68 48.4902 12.81 50.5902 12.71 52.3102C12.68 52.8402 12.44 53.1602 12.4 53.4302C12.04 55.7802 13.04 57.3702 14.14 58.4102C14.61 58.8502 15.24 59.3702 15.82 59.5902C17.04 60.0502 19.05 60.0202 20.74 59.8402C22.16 59.6902 23.73 58.8902 25.22 58.3502C26.66 57.8202 28.18 57.2702 29.51 56.7302C30.91 56.1702 32.23 55.4002 33.55 54.8002C34.24 54.4902 34.93 54.1802 35.6 53.8702C36.28 53.5602 36.91 53.0802 37.53 52.8702C38.01 52.7102 38.97 52.8602 39.52 52.9302C39.98 53.4202 40.07 54.3502 40.14 55.3602C40.27 57.1102 39.96 58.9602 39.77 60.7102C39.42 63.9202 38.75 67.3902 38.15 70.4802C38 71.2502 37.81 72.0501 37.59 72.7802C37.25 73.9302 37.11 74.9602 36.59 75.7702C35.28 76.6102 33.63 75.8202 32.11 75.8302C31.24 75.8402 30.31 76.0402 29.37 76.0802C24.35 76.3102 18.12 76.0901 13.38 76.6402C13.64 77.4101 14.7 77.2102 15.31 77.2602C17.52 77.4602 20.38 77.3702 22.84 77.2602C27.26 77.0602 31.35 77.3802 35.53 77.0102C37.37 76.8502 38.26 76.6102 38.52 74.8302C38.56 74.5902 38.5 74.3302 38.52 74.0802C38.62 72.9502 38.97 71.7702 39.2 70.6002C39.43 69.4402 39.6 68.2202 39.82 67.0502C40.45 63.8202 40.99 61.0202 41.44 57.5302C41.5 57.1002 41.72 56.7402 41.75 56.4102C41.8 55.8602 41.6 55.5302 41.5 54.9802C41.24 53.5802 41.29 52.1702 40.25 51.6802C38.42 50.8302 36.37 51.7802 34.71 52.3002C32.72 52.9302 30.89 53.6102 28.86 54.2902C27.07 54.8902 25.28 55.2702 23.26 55.7802C22.19 56.0502 21.3 56.6002 20.02 56.4602C18.5 56.3002 17.68 55.4502 16.54 54.5902C16.55 54.2202 16.79 54.6302 16.91 54.4702C13.98 50.7002 14.38 43.2202 14.05 36.6702C14.02 36.0402 14.12 35.4202 14.05 34.8002C13.85 32.9202 13.06 30.8802 12.37 29.0802C11.68 27.2902 10.64 25.5802 9.32002 24.7202C8.34002 24.0902 6.23001 23.7102 4.53001 24.0302C3.95001 24.1402 3.12001 24.8202 2.73001 25.2802C2.15001 25.9502 1.66002 26.9002 1.80002 27.9502C3.11001 27.8702 3.38002 26.7702 4.10002 26.2102C4.70002 25.7402 6.08001 25.1802 7.34001 25.4002C8.17001 25.5502 9.83003 26.7202 10.14 27.4502C10.45 28.1702 11.22 30.0302 10.64 30.3102C10.11 30.5702 9.15001 28.6902 8.65001 28.3802C7.75001 27.8202 5.93001 27.5202 4.54001 28.0702C3.82001 28.3502 2.04002 30.0902 0.990018 28.9402C0.680018 28.6002 0.670005 28.0802 0.680005 27.6302C0.730005 25.3302 2.69002 23.4402 4.60002 23.0302C5.55002 22.8202 7.10002 22.8402 7.96002 23.0302C10.85 23.6602 12.19 26.6402 13.44 29.0002C13.51 27.7302 13.44 26.0902 13.69 24.7102C13.84 24.8502 13.75 25.2302 13.94 25.3302C14.26 24.9302 14.04 24.4302 13.88 24.0202C14.28 22.9702 14.52 21.9902 15 21.1002C15.46 20.2402 16.31 19.6102 16.56 18.6102C16.23 18.2802 15.53 18.3802 15.5 17.8602C15.48 17.4602 16.18 17.1802 16.25 16.7402C16.4 15.7002 15.22 14.4602 15.07 13.3802C14.7 10.7402 16.09 7.17016 18.24 6.29016C18.51 6.18016 19.12 6.07016 19.67 5.85016C20.33 5.59016 20.92 5.16016 21.66 5.16016C22.1 5.16016 22.62 5.59016 23.22 5.72016C23.53 5.79016 23.85 5.65016 24.15 5.78016C24.53 5.94016 24.92 6.88016 25.15 7.46016C25.47 8.31016 25.88 8.96016 25.96 9.89016C26.06 11.0202 26.12 12.7002 25.47 13.2102ZM19.68 16.8802C19.93 17.1102 20.18 17.3302 20.61 17.3802C20.66 16.7702 20.38 16.4902 20.24 16.0702C20 16.2902 19.8 16.5502 19.68 16.8802ZM17.56 18.5702C18.07 18.6902 18.97 18.7202 19.36 18.7602C19.14 18.0402 17.87 17.7102 17.56 18.5702ZM16.51 19.6802C16.58 19.8702 16.83 19.8602 16.76 20.1802C17.11 19.9102 17.18 19.3502 17.44 19.0002C16.92 18.6502 16.52 19.1502 16.51 19.6802ZM16.57 20.5602C16.84 20.6002 16.77 20.2402 16.63 20.1902C16.59 20.3102 16.44 20.4302 16.57 20.5602ZM44.14 29.6402C44.14 29.7802 44.66 30.1502 45.01 29.9502C44.99 29.8002 45.02 29.7102 45.07 29.6402C44.88 29.5402 44.33 29.5402 44.14 29.6402ZM38.6 30.0202C38.5 30.2402 38.54 30.5902 38.54 30.8902C39.75 31.7702 42.36 31.1602 43.46 30.5802C41.86 30.3202 40.38 29.1802 38.6 30.0202ZM17 31.8802C17.21 31.9602 17.15 31.4602 17.06 31.4402C17.05 31.5902 16.97 31.6802 17 31.8802ZM17.5 34.0602C17.79 33.8902 18.18 33.2802 17.81 33.0002C17.68 33.3202 17.43 33.5302 17.5 34.0602ZM16.82 37.7902C16.81 38.1002 16.96 38.5602 17.01 38.9702C17.05 39.3402 16.93 39.8802 17.32 40.0302C17.84 38.6202 18.7 37.5502 19.5 36.4202C19.04 35.8202 18.89 34.9102 18.32 34.4302C18.1 35.4902 16.88 36.5502 16.82 37.7902ZM18.56 40.3502C18.07 41.6302 17.39 43.0302 17.5 44.5202C17.94 43.6302 18.34 42.6502 18.93 41.4702C19.23 40.8802 20.08 38.9402 20.98 39.0402C21.99 39.1502 20.99 40.9102 20.79 41.3402C19.83 43.4102 18.87 45.4902 18.49 47.6902C19.14 47.6102 19.12 46.8502 19.24 46.3802C19.71 44.5202 20.6 42.4502 21.85 41.4702C22.03 41.4002 22.21 41.3302 22.47 41.3402C21.97 39.4502 20.87 38.1702 19.73 36.9202C19.43 38.0702 19 39.1802 18.56 40.3502ZM22.98 42.7702C23.02 42.6202 23.21 42.6302 23.35 42.5802C23.33 42.3802 23.3 42.1802 23.1 42.1402C23.05 42.3102 22.79 42.5802 22.98 42.7702ZM39.72 42.9002C39.59 43.2302 39.47 43.5602 39.47 44.0202C40.8 44.0602 42.34 44.2102 43.51 44.2102C42.38 43.6302 41.1 43.2202 39.72 42.9002ZM45.01 45.2602C45.32 44.8302 44.86 44.4702 44.33 44.5102C44.36 44.9602 44.61 45.1802 45.01 45.2602ZM34.86 45.4502C35.79 45.8002 34.92 46.6302 34.55 47.1302C33.42 48.6702 32.24 50.0902 31.94 52.0502C32.87 52.1502 33.39 51.4302 33.93 50.9302C35.05 49.9002 35.43 48.7902 36.29 47.5102C36.86 46.6602 37.52 46.0802 37.97 45.3302C37.17 45.1402 35.49 45.0402 34.86 45.4502ZM27.89 46.0702C27.78 46.8002 27.03 47.3202 26.65 47.8102C26.21 48.3702 25.68 49.5202 25.28 50.3602C24.82 51.3302 23.67 53.6302 25.09 54.0302C25.55 53.6502 26.39 53.1402 26.65 52.4702C26.9 51.8402 26.92 51.1902 27.15 50.6002C27.8 48.9602 28.73 47.2402 29.89 46.2402C30.15 46.0202 30.62 45.6402 31.01 45.7402C31.89 45.9802 30.74 47.5202 30.51 47.9202C30.12 48.5902 29.8 49.1002 29.51 49.6002C28.8 50.8002 27.79 51.7502 28.02 53.2702C28.6 53.3102 29.03 52.7302 29.45 52.3402C29.86 51.9502 30.38 51.5102 30.63 51.1002C30.92 50.6202 31.07 49.9902 31.32 49.4802C32.09 47.8602 33.12 46.2002 34.62 45.3702C32.41 45.1802 29.57 45.3402 27.89 46.0702ZM40.15 45.2602C38.64 46.7802 37.19 48.3602 36.35 50.5502C38.23 50.5302 38.86 49.0302 39.71 47.6902C40.31 46.7502 41.13 46.0902 41.51 45.3202C41.17 45.2002 40.61 45.2802 40.15 45.2602ZM42.95 45.4502C42.27 47.0302 40.78 47.8002 40.34 49.6202C41.12 49.9202 41.65 49.5702 41.96 49.0602C42.02 47.4602 43.67 47.1302 43.7 45.7002C43.52 45.5402 43.3 45.4402 42.95 45.4502ZM46 47.5002C45.27 47.1202 45.38 45.8702 44.51 45.7602C44.1 45.7102 43.78 45.9902 43.83 46.4402C43.87 46.8002 44.25 46.8002 44.27 47.1902C44.29 47.5402 43.79 47.9202 43.65 48.4302C43.45 49.1302 43.31 50.3602 43.21 51.1702C43.05 52.5502 42.84 54.1102 43.89 54.9702C44.23 53.3702 44.6 51.6702 45.26 50.4902C45.48 50.1002 45.7 49.5902 46.07 49.4302C45.69 51.8702 45.09 54.8102 44.95 57.5202C44.91 58.3302 44.93 59.0102 45.32 59.3902C45.71 58.9102 45.66 58.1902 45.76 57.5902C46.06 55.6902 46.48 53.7502 47.25 52.3602C48.19 52.1102 47.72 50.9902 47.75 49.8102C47.76 49.3102 47.91 48.8702 47.69 48.5702C47.59 48.5702 46.99 48.9502 46.82 48.5702C47.08 48.3702 47.33 48.0102 47.07 47.6402C46.56 47.5102 46.35 47.6802 46 47.5002ZM22.61 49.6802C21.75 50.2902 21.7 51.6902 21.43 52.9202C21.52 52.9602 21.58 53.0202 21.62 53.1102C22.18 53.2102 22.45 52.7802 22.86 52.9202C22.86 53.1102 22.86 53.2902 22.86 53.4802C23.06 53.3202 23.17 53.0202 23.23 52.8002C23.41 52.0902 23.51 51.4202 23.79 50.7502C24.06 50.1202 24.48 49.5702 24.54 48.9502C23.87 49.2702 23.13 49.3002 22.61 49.6802ZM19.12 50.8002C19.51 51.3002 19.9 51.8102 20.49 52.1102C21.04 51.4702 21.51 50.7702 21.92 49.9902C21.02 50.0402 19.88 50.3902 19.12 50.8002ZM41.58 50.8002C41.7 51.0902 41.91 51.2902 42.08 51.5502C42.26 51.2702 42.51 50.4802 42.27 50.1802C42.08 50.4202 41.72 50.5002 41.58 50.8002ZM43.82 56.0302C43.86 55.8502 44.03 55.2102 43.7 55.2202C43.57 55.4502 43.52 55.9102 43.82 56.0302ZM47.19 62.8702C47.61 62.3802 47.54 61.6502 47.69 60.9402C47.82 60.3002 48.23 59.5902 48.25 59.0102C48.27 58.4402 47.76 56.8402 47.57 56.5802C47.2 58.3902 46.96 60.8902 47.19 62.8702Z" fill="#282F39"/>
<path fill-rule="evenodd" clip-rule="evenodd" d="M74.3804 20.6801C74.3704 21.4201 73.5804 21.5501 73.1304 21.7401C70.8104 22.7301 69.1304 24.7501 68.0904 27.2201C67.8404 27.8001 67.6804 28.5301 67.4104 29.2101C67.1204 29.9101 66.8404 30.5501 66.7904 31.2001C66.6404 32.9501 67.3704 35.3601 66.6004 36.8601C66.2804 37.0901 66.0004 36.7801 65.7304 36.8601C66.6604 37.4401 67.3204 38.6201 67.2904 39.9701C66.6404 38.8601 65.7604 37.9701 64.2404 37.7301C63.8904 37.6201 64.1004 38.0901 63.8004 38.0401C63.7704 37.9501 63.8704 37.7201 63.7404 37.7301C62.5504 37.5801 62.2004 38.5301 61.8104 39.3501C61.5104 39.9901 61.0604 40.6501 61.1904 41.2201C61.8804 40.0001 62.7204 38.9301 63.7404 38.0501C63.4404 38.8601 62.9304 39.7301 62.4304 40.6701C61.9904 41.5101 61.3404 42.4501 61.1204 43.3501C60.6304 45.3701 61.7104 47.1501 61.8704 49.0701C62.4204 48.4201 62.5004 47.5201 62.8704 46.7701C63.4904 45.5001 64.2404 44.3901 65.1704 43.4101C65.5204 43.0401 65.8804 42.5801 66.3504 42.4101C65.6404 43.6301 64.8604 45.2601 64.1704 46.6401C63.5004 47.9901 62.9204 49.4201 62.8004 50.7501C62.6904 51.9701 63.1904 52.7301 63.4804 53.7401C63.1604 54.3101 63.5604 55.0001 63.8504 55.4801C64.9304 52.3901 66.6404 49.9301 69.0204 48.1401C68.8904 46.5601 68.8304 44.9601 68.9004 43.4101C69.3804 44.0301 69.6104 44.9001 70.0204 45.5901C71.1204 45.9001 72.8904 45.5401 73.6304 46.2101C73.5104 46.6601 72.6804 46.8201 72.0104 46.8301C71.5004 46.8401 70.9204 46.6601 70.4504 46.8301C70.4704 48.0001 70.5604 50.1001 70.4504 51.4301C70.4104 51.9401 70.2104 52.9501 69.6404 52.8601C68.8104 52.7301 69.2604 49.5901 69.0204 48.5701C68.2504 48.9301 68.0804 49.9101 67.7104 50.6901C66.5304 53.1501 64.4204 55.7501 64.7904 59.5901C64.8404 60.0801 65.0204 61.0401 65.4104 61.0801C65.9904 61.1501 66.2304 59.8501 66.4704 59.3401C67.3804 57.4401 68.3704 55.7301 69.7704 54.4201C69.6804 54.2801 69.6104 54.1201 69.6504 53.8601C70.0904 54.1501 70.2504 54.7101 70.7704 54.9201C73.4904 54.9201 76.0504 55.0701 78.2404 55.6001C76.9004 55.9601 75.3504 56.1101 73.6304 56.1001C73.6004 56.5701 73.9604 56.6501 73.9404 57.0901C74.2504 56.9801 74.7904 56.5801 75.0004 56.1601C75.2004 56.1301 75.0504 56.4501 75.1904 56.4701C75.9804 56.1301 76.5704 56.5901 76.8104 57.1601C77.0904 57.3201 77.3604 56.7801 77.7404 57.0301C77.7104 58.2301 76.5204 58.7901 76.1804 59.8901C76.2704 60.1601 76.5604 60.2201 76.8004 60.3301C77.3704 59.9001 77.7904 59.0401 78.3604 58.5301C78.7604 58.1701 80.0204 57.4301 80.2904 58.4101C80.4904 59.1501 79.6204 59.9101 79.2304 60.5301C78.3304 61.9601 77.7004 63.0301 76.9304 64.5101C76.2504 65.8201 75.7504 66.8301 75.5004 68.3701C76.1704 67.9101 76.3804 66.4701 76.8704 65.5101C77.4504 64.3601 78.2904 62.9501 79.2304 61.9001C79.6504 61.4301 80.3604 60.6401 81.1004 60.7801C81.3904 60.8401 81.7004 61.2401 81.7204 61.4701C81.7804 62.0601 81.0404 62.7401 80.7204 63.2101C79.5904 64.9101 78.7004 66.6301 78.1104 68.7501C78.6404 68.6501 78.6704 67.9001 78.8604 67.3801C79.3204 66.1301 80.4304 64.0201 81.3504 63.3301C81.6604 63.1001 82.0804 62.9701 82.4104 63.0201C83.5804 63.1901 83.1404 64.6601 82.6604 65.3801C83.3704 65.4801 84.0804 65.6901 84.2104 66.4401C84.3904 67.4201 83.5704 68.5201 83.4604 69.3601C83.6104 69.8501 84.0604 70.0501 84.3904 70.3601C83.9604 70.4001 83.6104 70.8701 83.2704 70.9801C82.0504 71.3701 78.4604 71.0901 76.5504 71.2301C74.9604 71.3401 73.2504 71.3401 71.5704 71.5401C71.3304 71.5701 70.7904 71.6501 70.6404 71.7301C69.2504 72.4501 70.0904 77.1501 67.9004 77.0201C66.7004 76.9501 66.7504 75.4901 66.6504 74.1001C66.5704 72.8701 66.1704 71.6801 65.9004 70.5501C65.7604 69.9701 65.6604 69.3601 65.5304 68.8101C65.3904 68.2601 65.0904 67.7701 64.9704 67.2501C64.6804 65.9501 64.6804 64.5501 64.3504 63.2101C64.0604 62.0201 63.5304 60.8501 63.2904 59.6601C62.9404 57.9301 62.4604 56.2101 62.1104 54.4901C61.5904 51.9501 60.9104 49.8901 59.9304 47.8901C59.1604 46.3301 58.5804 44.6801 58.4404 42.7901C58.3204 41.2601 58.8304 40.3001 59.5004 39.1801C60.4904 37.5201 61.4704 36.3001 64.0404 36.3801C64.3604 36.3901 64.7904 36.5601 64.9704 36.5101C64.6104 35.6901 64.1304 34.7901 64.0404 33.5901C63.9404 32.3101 64.2504 31.0801 64.4104 30.0401C64.5004 29.4301 64.4804 28.7601 64.7204 28.1701C65.5704 26.0501 68.0804 23.3201 69.8904 22.0701C71.0704 21.2401 72.7704 20.4501 74.3804 20.6801ZM70.8304 56.0901C70.8304 56.5801 70.9904 57.3501 71.2004 57.8301C71.6004 57.1701 72.2904 56.8001 72.6304 56.0901C71.9704 56.1501 71.4004 55.9201 70.8304 56.0901ZM66.8504 64.3001C66.7504 65.1101 66.5404 66.0701 66.9104 66.9101C67.5804 65.3401 68.1104 63.6201 68.8404 62.1201C69.0904 61.6101 69.5004 61.0901 69.5904 60.6301C69.7604 59.7601 69.5204 58.8301 69.4004 57.9501C68.2404 59.6701 67.1604 61.7901 66.8504 64.3001ZM66.6004 69.3401C66.5504 69.2001 66.7104 68.8501 66.4804 68.9101C66.4904 69.0801 66.4204 69.3301 66.6004 69.3401Z" fill="#282F39"/>
<path fill-rule="evenodd" clip-rule="evenodd" d="M99.1498 58.5098C99.2298 59.0098 98.8498 59.0398 98.6498 59.2598C97.8398 62.2098 95.7398 64.1899 95.4098 67.4099C96.1998 67.2999 96.3798 66.3799 96.6598 65.7899C97.2598 64.4999 97.8898 63.3999 98.7798 62.1799C99.0898 61.7499 100.51 59.9598 100.96 61.3698C101.12 61.8798 100.61 62.5498 100.34 63.0498C99.4798 64.6098 98.6598 66.3498 98.2198 68.0298C99.4198 67.8498 100.26 65.0699 101.39 64.2299C101.9 63.8499 102.78 63.9698 102.95 64.5998C103.16 65.3798 102.55 65.8198 102.58 66.3398C102.99 66.3398 103.29 65.8498 103.83 65.8398C104.68 65.8298 105.27 66.7098 104.76 67.7098C104.59 68.0398 104.13 68.3799 103.76 68.8299C103.19 69.5199 103.19 69.7599 102.14 70.0099C101.53 70.1599 101.25 70.5199 100.52 70.4399C99.9698 70.3799 99.6898 69.9799 99.2098 69.6899C97.8998 70.7199 96.2998 70.0098 95.9098 68.6298C94.4698 69.2698 93.6398 67.9798 93.7898 66.3898C93.8998 65.2998 94.4398 64.0598 95.0398 62.9098C95.5698 61.8798 96.1798 60.7298 96.8498 60.0498C97.4298 59.4498 98.1598 59.0198 98.6498 58.6198C98.7698 58.5398 98.8998 58.3198 99.1498 58.5098Z" fill="#282F39"/>
</svg>
