<svg width="121" height="90" viewBox="0 0 121 90" fill="none" xmlns="http://www.w3.org/2000/svg">
<path fill-rule="evenodd" clip-rule="evenodd" d="M50.5599 28.0801C50.3699 28.1801 50.1999 28.3001 49.8699 28.2501C49.6799 28.8901 49.4599 29.4901 49.3499 30.2101C49.1299 28.8401 48.9999 26.1201 49.5199 25.1501C50.5499 23.2401 51.4499 27.1401 50.5599 28.0801Z" fill="#282F39"/>
<path fill-rule="evenodd" clip-rule="evenodd" d="M38.8405 30.09C37.9205 31.65 33.6705 31.3 32.9805 29.8C34.5705 30.62 37.4905 28.57 38.8405 30.09Z" fill="#282F39"/>
<path fill-rule="evenodd" clip-rule="evenodd" d="M104.141 38.1403C104.181 38.1403 104.221 38.1403 104.251 38.1403C103.211 39.0303 101.641 41.5903 101.261 43.3103C101.141 43.8503 101.201 45.1403 100.681 45.2103C100.151 45.2803 99.9307 44.4203 99.9307 43.8303C99.9307 41.1703 101.881 39.2403 103.671 38.1403C103.861 38.1903 104.131 38.0503 104.141 38.1403Z" fill="#282F39"/>
<path fill-rule="evenodd" clip-rule="evenodd" d="M35.16 45.3801C32.64 45.9901 27.71 46.1401 24.58 45.7201C23.56 45.5901 23.48 44.5801 24.41 44.4001C25.91 44.1001 27.55 44.6201 29.3 44.6901C31.59 44.7901 33.16 45.1001 35.16 45.3801Z" fill="#282F39"/>
<path fill-rule="evenodd" clip-rule="evenodd" d="M41.7108 47.1001C40.9408 46.6801 39.9708 46.4601 39.3008 45.9501C40.0208 45.1801 41.2608 46.5001 41.7108 47.1001Z" fill="#282F39"/>
<path fill-rule="evenodd" clip-rule="evenodd" d="M78.6208 50.5C79.4308 51.75 81.9008 51.32 82.7608 52.51C81.4408 53.87 78.5708 52.16 78.6208 50.5Z" fill="#282F39"/>
<path fill-rule="evenodd" clip-rule="evenodd" d="M39.9304 18.1302C39.4704 18.4902 38.6604 18.1702 38.1504 18.4202C38.6304 19.7202 40.2504 19.6002 41.2004 20.2602C43.3604 21.7802 43.9604 26.1702 44.5304 29.1102C44.9704 31.3402 46.5404 33.0402 47.8104 34.2302C47.4604 32.6302 47.7204 30.4902 49.9404 30.6702C50.5704 29.0702 52.8004 28.9102 55.1104 28.4902C56.3504 28.2602 59.8404 27.2702 60.2304 28.4902C60.4604 29.2202 59.5804 30.5902 59.2504 31.1902C58.7504 32.0902 58.2804 32.7202 57.9304 33.6102C60.1904 33.6102 62.8504 33.0402 63.9104 34.5302C64.3804 35.2002 64.6704 36.3702 65.2904 37.1202C65.7104 37.6302 66.4604 38.0302 66.6704 38.5602C67.4404 40.5202 66.5304 43.1002 66.1004 44.7702C65.8604 45.7002 65.6104 46.6102 65.3004 47.5302C65.0304 48.3102 64.8704 49.8602 64.0904 49.8902C62.9904 49.9202 63.5504 48.1402 63.7504 47.3602C64.3004 45.1502 65.7504 40.9702 65.2404 38.4502C65.0104 37.3002 63.6904 36.5302 63.4604 38.2802C63.3904 38.6302 63.5004 39.0002 63.5004 39.4002C63.5004 44.2402 61.6604 47.7902 60.9104 51.5302C61.7304 51.9302 62.2704 51.2002 63.0404 50.9502C64.2004 50.5802 65.7804 51.2702 65.9104 50.0302C67.5504 49.2502 69.7404 50.3602 71.5404 49.7402C72.2904 49.4902 72.7204 48.9402 73.4404 48.7102C73.7304 42.6302 80.3804 42.6302 86.2004 42.2702C84.4004 40.6902 86.4404 38.8202 86.7204 37.3802C86.7904 37.0102 86.6404 36.6702 86.6604 36.2302C86.7404 34.7902 87.4204 32.7502 87.9804 31.4602C88.7404 29.7102 90.1204 28.6202 91.1404 27.5502C91.7604 26.9102 91.5804 26.5802 92.7504 26.3402C93.4704 26.1902 94.2204 25.7302 94.8204 25.5902C96.1904 25.2802 97.8104 25.9902 99.2504 26.4002C100.71 26.8102 102.33 28.3502 102.99 29.6202C103.89 31.3702 103.05 33.3302 103.45 35.4302C103.81 35.5602 104.35 35.6602 104.72 35.6002C104.94 35.6902 104.77 36.1602 105.06 36.1802C107.53 36.1102 109.72 37.0402 110.75 38.6502C111.02 39.0702 112.04 42.4602 110.63 42.4502C110.16 42.4402 109.63 39.7902 109.19 39.2302C108.48 38.3202 107.43 37.9602 105.8 37.7302C104.9 37.6102 103.68 36.7902 102.75 37.0402C102.48 37.1102 102.35 37.6702 102.06 38.1302C100.92 39.9602 98.0104 42.7402 99.6404 46.0602C99.8304 46.4502 100.07 46.8002 100.27 47.0402C101.26 48.1602 102.98 47.6502 103.72 48.8202C104.45 48.9502 105.29 48.7602 105.85 48.5302C106.86 46.0702 108.82 44.5602 110.91 43.1802C113.86 43.3602 115.23 44.7202 117.69 45.4202C118.7 45.7102 119.9 45.6102 120.33 46.4602C120.81 47.4102 120.43 49.6902 119.93 50.4302C119.4 51.2002 117.94 52.0102 117.23 52.6702C116.78 53.0902 114.52 55.5302 114.3 53.6502C114.2 52.8402 115.57 52.1202 115.05 51.0602C113.22 51.8502 111.9 53.3602 110.45 54.6202C108.56 56.2602 106.03 57.5402 105.45 60.5402C105.39 60.8402 105.47 61.1802 105.45 61.5202C105.26 65.3702 104.73 69.4902 104.53 73.6502C104.33 77.9002 104.75 82.3002 104.3 86.2402C104.06 88.3502 102.87 90.7802 100.39 89.4002C98.7804 88.5102 97.3004 87.2802 95.4504 86.3502C93.7304 85.4902 92.1904 84.2202 90.4504 83.4202C88.9504 82.7302 87.2904 82.2902 86.0804 81.3502C85.7004 81.3602 85.3304 81.3702 85.1004 81.2302C84.8104 80.9502 84.8704 80.3102 84.8704 79.7402C82.4104 79.9102 83.2704 75.9602 83.4304 74.2202C82.9104 74.0102 82.2004 74.4902 81.5304 74.5102C81.0904 73.3302 82.4204 73.0002 83.0204 72.6102C88.2104 69.3202 93.2204 66.1802 97.8504 62.2002C100.38 60.0302 103.13 57.8802 105.9 55.8202C108.95 53.5402 111.8 51.1202 115.1 49.3202C114.47 48.4502 113.11 49.3002 112.51 49.6602C110.63 50.8002 109.11 52.4802 107.39 53.8602C103.85 56.6902 100.06 59.3702 96.4704 62.3102C95.2904 63.2702 93.5004 65.3102 92.0404 64.8402C89.8604 68.3602 85.3304 69.4902 81.8704 71.8502C81.5604 72.0602 81.3804 72.4302 81.1204 72.6002C78.5304 74.2602 74.7704 71.9002 72.1004 71.6202C75.0304 72.8102 78.0104 73.9502 81.4704 74.6102C78.0204 76.1302 73.9504 74.5302 70.7804 73.4002C66.3404 71.8202 62.4504 70.2302 57.6704 68.9202C53.5804 67.8002 48.8604 66.9102 44.6804 68.5802C42.5604 69.4202 40.0904 70.8102 38.0704 72.0902C37.2204 72.6302 35.9004 72.8402 35.6604 73.7602C35.4504 74.5402 35.7804 75.4902 35.8304 76.1702C35.9604 77.8202 35.6804 79.5602 35.5404 81.2302C35.4104 82.7602 34.9804 84.6902 35.3104 86.3502C35.3804 86.6802 35.7904 86.8902 35.8304 87.3302C35.9104 88.2902 35.0504 89.9302 33.8704 89.8002C32.7904 89.6802 31.0904 88.6002 29.8504 88.1902C28.0104 87.5802 25.9104 86.0102 24.5604 84.6302C23.9204 83.9702 23.0804 82.1202 22.2004 82.0402C21.8004 82.0002 21.4704 82.4502 21.1104 82.6702C20.2804 83.1802 19.1504 83.5302 18.2904 83.9302C18.9904 83.1302 19.6704 82.3902 20.5304 81.5702C21.0804 81.0602 22.4204 79.6302 23.2304 79.7302C23.6804 79.7902 24.1404 80.6902 24.6104 80.9902C25.9104 81.8202 27.4304 82.5702 28.8604 83.6402C30.2604 84.6802 31.6404 85.7002 32.9404 86.4002C32.5904 84.8902 32.7104 82.0002 32.8204 79.6702C32.9004 77.9202 33.4304 76.2302 32.9904 75.0102C29.9504 76.0902 27.6304 78.1902 24.4804 78.9802C29.1104 74.9202 35.6904 71.7402 41.3804 68.5202C43.7604 67.1702 47.6004 65.3402 51.0404 66.0502C51.9204 66.2302 53.3004 66.7802 54.7204 66.4502C52.2004 65.6102 49.7304 64.7402 46.5004 64.6102C49.1704 63.5102 53.4604 64.6402 56.5604 65.4702C59.5104 66.2602 62.0904 66.9502 64.3204 67.9402C64.9104 68.2002 65.4704 68.5002 65.4704 69.2602C66.9004 69.6502 68.0404 70.3302 69.4904 70.7002C68.7704 70.0002 67.5604 69.7902 66.7304 69.2002C71.2204 68.8602 75.1904 71.6102 79.4304 71.3902C81.9404 71.2602 83.2404 69.1102 85.4104 68.3402C84.1304 67.7202 82.6804 68.1102 81.3904 67.7602C80.3004 67.4702 80.0904 65.8802 78.9804 65.5802C78.4704 67.5902 76.1204 67.6202 73.5204 67.9402C71.8804 68.1402 70.9604 68.9802 69.0904 68.5202C64.2204 67.3202 59.3204 64.8602 53.9104 63.8602C52.0604 63.5202 50.0904 63.4902 48.2204 63.0002C46.9804 62.6802 45.5104 61.6702 43.9104 61.3302C42.8504 61.1102 41.5004 60.6802 40.6304 60.7602C40.0304 60.8102 39.5504 61.6402 38.6804 61.8002C38.4104 61.8502 38.0404 61.7902 37.8204 61.8602C37.2204 62.0402 36.8304 62.8902 36.3304 63.3002C34.1904 65.0202 31.7404 66.2902 29.4304 67.7202C28.2204 68.4702 27.1104 69.1502 25.8704 69.7902C24.5404 70.4702 22.8304 70.6802 21.5004 71.5102C19.7504 72.6002 17.2404 74.6602 15.9204 76.1702C15.4404 77.6202 15.9404 79.3202 14.6504 79.8502C13.5304 80.3202 11.8504 80.4502 10.5104 80.7702C12.2704 81.6702 14.1304 83.2802 16.2604 83.8102C15.9504 82.5702 17.5704 82.1902 18.2104 81.3402C18.8704 80.4602 19.1104 79.4602 19.7104 78.8102C20.4804 77.9502 21.8504 77.2802 22.9304 76.5702C26.4404 74.2402 30.2204 72.5502 34.0304 70.1902C37.1404 68.2702 39.8204 66.1902 43.6304 65.2502C40.8604 67.4902 37.2904 69.1802 33.9104 71.2302C31.7304 72.5502 29.6104 74.1502 27.3604 75.4302C25.1904 76.6602 22.5504 78.1702 20.9204 79.6802C19.8904 80.6502 19.5904 81.7902 18.5104 82.7302C17.9404 83.2202 17.0004 83.5002 17.8204 84.2802C16.2704 86.8502 12.8004 84.9202 11.2704 83.1902C10.7604 82.6102 10.6404 81.7202 10.0604 81.3502C9.68041 81.1002 9.20041 81.3002 9.20041 80.7802C7.36041 80.6002 4.11041 81.3002 2.01041 81.0102C1.51041 80.9402 1.04041 80.6402 0.980408 80.3202C0.650408 78.7302 3.85041 78.7602 4.49041 77.8502C2.88041 77.4302 -0.409592 76.5702 1.15041 74.6302C5.59041 74.4502 9.40041 74.1302 12.0704 72.2102C11.3704 70.7702 12.1304 70.3002 13.1604 69.6802C14.9304 68.6202 16.4004 65.6902 18.1604 64.7402C17.2704 63.6002 18.2604 61.9702 18.3904 60.3702C18.7804 55.6402 17.2804 51.6402 16.5504 47.0902C16.1904 44.8602 15.7204 42.7702 15.2304 40.7702C14.7004 38.6002 14.7204 36.3902 14.3104 34.1002C14.1604 33.2702 13.8804 32.1002 13.5004 31.5102C13.1404 30.9402 12.4204 30.7202 12.0604 30.2502C11.2204 29.1302 9.91041 26.7302 10.6204 24.7902C11.7504 21.7102 14.9304 20.7102 18.3204 19.4402C20.9604 18.4602 24.1604 17.2802 27.0604 18.0602C28.4304 17.4902 29.0704 16.2002 29.7004 14.9002C27.7804 13.5602 27.1404 8.64021 27.4004 5.13021C27.6004 2.55021 30.7604 0.11021 33.4404 0.0702103C34.4004 0.0602103 35.4804 0.100211 36.0804 0.360211C36.4004 0.500211 36.6004 0.820211 36.9404 0.930211C38.6404 1.48021 40.1404 1.88021 40.7904 3.52021C42.4204 7.46021 40.6704 14.4702 39.9304 18.1302ZM34.0104 5.48021C33.5304 5.61021 33.5004 6.98021 33.4304 7.72021C33.2704 9.60021 32.9804 11.8402 33.0904 13.7602C32.7904 14.2102 31.8004 13.7902 31.4204 14.0502C31.5104 15.4002 33.1204 14.5102 33.6604 15.6002C33.9804 16.2602 33.9904 17.5702 34.1204 18.3002C34.3004 19.3202 35.0904 21.3402 34.0004 21.5802C32.1904 21.9802 30.8104 18.8802 29.8604 18.1902C28.2604 20.9802 21.9804 22.5302 24.5104 27.4502C26.7404 31.7802 29.3804 36.2002 30.6004 41.3602C31.3904 41.3802 32.0204 41.5502 31.9804 42.4002C33.6904 42.0502 35.9904 42.5002 37.3804 41.8802C39.6604 40.8702 42.2104 39.4702 43.5304 37.6802C39.4804 37.7102 35.9304 39.3602 32.3204 39.6402C32.8504 39.1602 34.4604 38.9202 33.7604 37.9102C33.3604 37.9502 32.9804 38.3302 32.5004 38.2602C31.0004 38.0302 32.6304 36.1502 32.5604 35.3902C32.5204 34.9502 31.5404 33.7902 31.1804 32.9702C29.9504 30.1302 28.9804 27.1902 27.9004 24.5802C29.6904 25.4602 30.1704 27.9302 31.2304 29.5202C31.7504 30.3002 32.0504 31.3102 32.5504 32.3902C33.1704 33.7202 34.1704 35.0402 33.6404 36.1802C34.8804 36.0802 35.1504 36.9302 35.5404 37.6702C37.6704 37.0202 40.4204 36.4902 42.9604 36.0602C42.8404 35.3502 42.2904 35.0802 41.7504 34.7902C42.0804 33.4102 41.0604 32.4402 40.8904 30.8802C40.7404 29.5102 41.3604 28.2202 41.1204 26.9102C40.9504 26.0202 39.9904 24.8002 39.4504 23.8602C38.6004 22.3602 38.2504 21.0102 37.2704 20.0702C35.5704 20.6702 36.2304 19.3002 35.8904 18.1102C35.6004 17.0802 34.1504 16.7102 34.9104 15.5202C34.2404 15.2202 33.2104 14.7602 33.6404 13.7402C34.6904 13.4002 35.4304 14.2002 36.3404 14.3702C38.9504 13.4602 39.1104 8.14021 38.2404 5.23021C37.0504 5.99021 35.2104 5.16021 34.0104 5.48021ZM29.9304 16.8102C31.3204 16.9302 31.3004 18.4702 32.4604 18.8202C33.0204 16.7302 30.5804 14.7302 29.9304 16.8102ZM19.5804 23.9902C20.8704 23.2102 21.4204 21.6902 22.2204 20.4202C20.1304 19.9602 19.9304 22.3402 19.5804 23.9902ZM13.0204 25.4902C13.0504 26.8502 14.5804 28.2702 15.0304 29.5702C15.4204 30.7002 16.1304 32.7302 16.0104 34.2802C15.8304 36.5602 16.4904 38.6702 17.0404 40.9502C18.6404 47.4702 20.0804 54.7302 20.4904 61.8802C23.0204 59.7902 23.8604 56.0102 27.4504 54.9802C29.7404 53.9602 30.2004 50.7302 32.5104 49.6902C33.5404 49.2302 34.8704 49.5102 36.0704 49.2902C36.3604 49.2402 36.6304 48.9702 36.9304 48.8902C39.5504 48.2102 42.8804 49.2602 45.6104 49.0102C45.2004 47.2902 44.7304 45.6402 44.0604 44.1802C41.9104 43.6602 38.9804 43.8202 36.1804 43.7202C31.5604 43.5602 26.8904 43.4702 22.9004 43.2002C22.4004 43.1702 21.7904 42.8102 21.2304 43.0302C20.8504 43.1802 20.7204 43.7302 20.2004 43.7202C18.5904 43.7002 19.7104 42.0602 19.7404 41.4202C19.7804 40.6802 19.1704 39.6202 19.1104 38.6602C18.9304 35.9002 18.9904 32.1802 18.7104 29.5202C18.4404 26.9802 18.6104 24.4502 16.7004 23.6602C16.0304 23.4802 15.3204 23.3502 14.5704 23.2602C15.8004 22.6702 17.6604 22.8602 18.4804 23.4902C18.8304 22.5702 19.5904 21.7702 19.8004 20.9002C17.2504 21.5102 12.9604 22.2502 13.0204 25.4902ZM39.7004 21.3502C39.9604 21.9002 40.3804 22.2802 40.7904 22.6702C40.6104 22.1402 40.2904 20.9102 39.7004 21.3502ZM19.3504 25.5502C19.3604 25.7202 19.3204 25.9302 19.4104 26.0102C19.6804 25.9702 19.7104 25.7002 19.7604 25.4302C19.6004 25.2902 19.4704 25.4902 19.3504 25.5502ZM94.0304 26.5202C94.4304 27.0802 95.0304 27.4402 95.5804 27.8402C95.8904 27.6102 96.2804 27.4702 96.3804 27.0302C95.7704 26.7302 94.9204 26.3602 94.0304 26.5202ZM96.0904 28.8802C96.8204 28.7102 97.3504 28.3402 97.7004 27.7902C97.0804 26.6402 95.6804 27.8802 96.0904 28.8802ZM91.5004 41.2402C91.8604 40.5702 92.9904 39.3202 93.0004 38.4802C93.0004 37.8902 92.4804 37.0502 92.7704 36.1802C92.9104 35.7602 93.5904 35.4202 93.8604 35.0902C94.2304 34.6502 95.5104 32.7102 94.3804 32.6202C93.8604 32.5802 92.7804 33.9702 92.4804 32.8502C92.2204 31.8802 93.6204 31.4502 93.6304 30.6102C93.6504 29.5502 92.3504 29.0302 92.3104 27.9102C90.1004 30.4702 87.8404 33.8902 88.6304 38.8902C89.7504 38.5702 91.0004 38.0802 92.0804 37.9102C91.7104 38.5102 90.9604 38.5502 90.7604 39.2302C90.6404 39.6302 90.8304 40.1602 90.7604 40.6102C90.5904 41.7002 89.1904 43.0902 88.1204 43.2502C87.0704 43.4102 85.3904 42.6002 84.6104 42.9102C83.0204 43.5302 85.9104 44.2502 86.5104 44.2902C87.8804 44.3802 89.0604 44.2102 90.0704 44.0602C90.5904 43.2402 90.9504 42.2702 91.5004 41.2402ZM42.9204 28.3602C40.6904 30.2702 43.4404 32.3202 44.5304 33.9402C45.1804 34.9102 45.9204 36.4702 46.9404 36.0702C45.3704 33.7302 44.0004 31.1902 42.9204 28.3602ZM97.9304 30.4902C98.4404 30.1802 99.2704 29.7002 99.0204 28.9902C98.3604 29.1902 98.1804 29.8702 97.9304 30.4902ZM51.6004 30.9502C50.3704 32.0702 50.0804 34.2002 48.8404 35.3802C48.3504 35.8402 47.7204 35.9602 47.4004 36.6402C49.0904 35.8402 51.1304 35.3602 53.2604 35.0302C55.4704 34.6902 56.1004 33.4302 57.0004 31.8702C57.4204 31.1402 58.0404 30.4702 58.0904 29.5702C56.6104 29.8602 52.5104 30.1202 51.6004 30.9502ZM100.06 31.3502C100.28 29.8602 101.43 31.0202 100.06 31.3502V31.3502ZM48.7804 32.3902C49.3904 32.2402 49.7904 31.3202 49.7004 30.8402C49.0204 30.9402 48.5404 31.7302 48.7804 32.3902ZM60.8504 45.0902C61.4704 42.8902 62.1204 40.1402 62.5204 38.1302C63.1404 34.9902 61.6804 34.8702 58.7804 35.0802C57.1504 35.2002 55.7504 35.4902 54.5304 35.8902C53.0204 38.6002 51.3404 41.4402 51.0804 45.2002C52.5104 44.7902 53.5804 44.0202 54.9304 43.5302C55.1004 42.1002 55.0704 40.4902 55.7404 39.5602C56.3404 43.1302 56.2204 47.0802 57.4604 50.0202C57.4404 50.2702 57.1504 50.4802 57.2904 50.7102C57.9204 50.8302 58.6004 51.2002 59.2404 51.1102C59.7604 49.0102 60.2304 47.2802 60.8504 45.0902ZM86.7204 40.7802C87.4504 40.6102 87.4004 39.2902 86.7804 39.0002C86.5804 39.4102 86.5304 40.3202 86.7204 40.7802ZM82.4704 43.3102C81.7804 43.4702 80.8904 43.4502 80.0004 43.6602C78.3304 44.0402 77.0604 44.9802 75.8604 44.8102C74.5604 45.7702 76.3704 51.4302 73.6204 49.7502C72.9004 50.1602 72.6904 51.7102 71.6104 51.4202C71.1604 51.3002 71.2204 50.4502 70.5204 50.6702C70.6404 51.1302 71.1204 51.7202 71.2104 52.4002C72.0704 52.6102 72.6604 53.1002 72.8204 54.0102C74.0904 54.0702 74.9604 54.9902 75.9804 55.5602C78.8204 57.1502 82.8504 57.8702 84.0304 60.3902C80.3904 58.0902 75.7004 56.8402 71.9004 54.7002C71.5204 54.9902 71.1404 55.2802 70.9204 55.7402C71.4604 55.7502 71.7304 56.0402 72.0104 56.3102C74.4704 56.7902 75.3604 58.8002 76.7804 60.3302C78.1704 61.8402 79.6404 63.0102 80.7504 64.8202C81.0204 65.2702 81.8304 66.3702 82.2504 66.4902C82.6104 66.5902 83.0404 66.4302 83.3404 66.4902C84.3404 66.6902 85.8804 67.6602 87.1904 67.2402C87.4304 67.1702 87.9204 66.6802 88.1704 66.4302C90.7904 63.7602 92.5004 59.5002 95.8704 57.5202C95.5804 58.2702 95.0704 58.7802 95.0104 59.7602C96.0004 58.3402 97.3304 57.2502 98.3404 55.8502C97.5104 55.2602 97.2604 56.7202 96.6204 56.9402C94.4404 57.6902 96.3904 55.0402 96.7404 54.4102C97.5104 53.0202 98.3504 51.3102 98.2304 49.7002C96.8804 51.1802 96.6104 54.3102 94.0904 54.2402C93.5604 55.2902 92.1504 54.9302 91.4504 54.2402C90.8004 54.9002 90.3904 55.7902 90.1304 56.8302C89.1804 57.3102 88.7404 58.4502 88.0604 59.5902C87.4804 60.5602 86.8604 62.0902 85.9904 62.4102C84.6204 62.9102 84.0004 60.3802 85.9904 60.8002C86.9504 59.0402 87.9904 57.3502 88.8104 55.4502C86.8004 55.7702 86.9604 53.9302 86.1104 53.0902C85.5204 54.1902 86.6804 55.0502 86.5104 56.0802C85.8704 56.2102 85.4904 55.8002 85.2504 55.4502C83.1704 52.4402 87.3604 48.0202 88.3504 45.9702C85.7804 46.1302 82.7104 45.4402 83.8104 42.8702C83.1104 42.7902 82.9704 43.1902 82.4704 43.3102ZM118.05 48.0802C118.33 48.1102 118.45 47.9802 118.51 47.7902C118.47 47.7802 118.44 47.7402 118.45 47.6702C118.19 47.4902 117.87 47.8102 118.05 48.0802ZM116.79 50.5002C116.87 50.3302 117.07 50.2802 117.08 50.0402C116.83 49.4302 116.36 50.2602 116.79 50.5002ZM99.6604 50.6702C99.3904 51.1402 99.4504 51.9502 99.3704 52.6302C100.12 52.2902 100.66 51.7402 101.21 51.1902C100.67 51.0402 100.27 50.7502 99.6604 50.6702ZM99.3704 54.4002C101.1 53.9402 102.21 52.3702 103.39 51.1802C101.4 51.3702 100.6 53.2602 99.3704 54.4002ZM64.4204 51.5902C64.3804 51.7502 64.5304 51.7002 64.5304 51.8202C64.8204 51.7102 64.9704 51.4502 65.1004 51.1902C64.8104 51.2502 64.5104 51.3102 64.4204 51.5902ZM66.7204 52.5102C66.5804 52.9302 65.8604 52.7602 65.3404 52.8002C65.3504 53.5002 65.8804 53.6802 66.3804 53.8902C66.7204 52.7202 68.0304 52.5102 69.4304 52.3902C69.4104 50.9902 65.2804 50.8702 66.7204 52.5102ZM51.7104 52.3302C49.2404 52.1702 46.4404 52.6102 44.1204 52.5002C42.7004 52.4302 41.5404 51.4102 39.9804 51.6402C39.0704 51.7702 38.0904 51.8002 37.1604 51.9302C34.0804 52.3602 33.1204 54.8802 30.7804 56.3602C30.5304 56.4002 30.4604 56.2602 30.2104 56.3002C28.8704 57.8902 27.0704 59.0202 26.1904 61.0702C27.6404 60.2002 29.0004 59.1602 30.1004 57.9102C30.6304 57.3002 30.9604 56.5302 31.6504 56.0702C32.0404 55.8102 32.6204 55.7302 33.1404 55.4402C34.3904 54.7502 35.3404 53.4402 36.6504 53.0302C38.5104 52.4402 40.2004 52.6402 41.8204 52.9702C43.9004 53.4002 46.5504 53.0202 49.0104 52.9102C51.9004 52.7902 54.7004 53.0002 57.1704 53.0202C55.3904 52.6802 53.6204 52.4602 51.7104 52.3302ZM92.5904 53.3102C92.7804 53.0002 92.9704 52.6902 93.0504 52.2702C92.5804 52.0602 92.1804 52.9902 92.5904 53.3102ZM67.9304 53.7702C68.1004 54.0602 68.4704 54.1502 68.5604 54.5202C68.3204 55.1002 67.6004 54.6402 67.1804 54.6902C67.5504 56.2202 70.0704 56.6802 70.5104 58.3102C70.5304 58.3602 70.5704 58.4602 70.5704 58.4802C70.6004 61.0502 72.4304 62.4802 72.6404 64.8602C72.7304 65.8802 72.6704 67.3202 73.2704 67.4502C73.7004 67.5402 74.0104 66.7602 74.3604 66.4702C75.3004 65.7102 76.6304 64.7202 78.1504 64.4002C76.4504 62.8102 73.8804 60.8402 72.4004 58.5902C71.8404 57.7302 71.4904 56.5702 70.7904 56.0602C70.4804 55.8302 69.9304 55.8402 69.8704 55.4302C69.7204 54.4702 71.3204 54.3902 71.4204 53.7102C70.5104 53.2502 68.7604 53.1202 67.9304 53.7702ZM103.91 60.2702C102.03 60.8602 103.17 66.4702 103.16 68.6102C103.45 65.9902 104.25 62.7502 103.91 60.2702ZM86.2604 72.7402C87.8004 73.5202 86.5704 76.1702 86.7804 78.2002C86.9004 79.3302 87.6504 80.0802 87.4104 81.0202C88.4004 82.1102 89.7504 81.6202 91.2004 82.0602C92.6904 82.5002 94.2304 83.6502 95.6804 84.3602C97.2504 85.1302 98.7404 85.9302 100.28 86.5502C100.8 85.3902 99.4404 85.0702 98.7904 84.7702C95.0204 83.0702 90.4204 82.2002 87.6904 79.7102C92.7704 79.7602 96.4104 81.7602 100.45 83.0502C100.81 76.3602 101.01 69.2002 101.2 62.5302C101.16 62.5302 101.12 62.5302 101.08 62.5302C96.5104 66.2802 91.7704 69.8902 86.2604 72.7402ZM17.9704 68.2002C19.4504 67.0702 21.8804 65.7902 22.6804 64.1802C21.2604 65.6702 19.1204 66.4402 17.9704 68.2002ZM71.8904 71.4802C71.7504 71.4302 71.6404 71.3502 71.4304 71.3702C71.4004 71.5602 71.8104 71.6002 71.8904 71.4802ZM84.4204 73.6102C84.5104 74.4202 84.6604 75.1802 85.0504 75.6802C85.2404 74.9402 85.5304 73.7102 85.4504 73.0902C85.1104 73.2602 84.6904 73.3602 84.4204 73.6102ZM33.8404 74.4102C34.0904 74.9202 34.4404 75.3402 34.7004 75.8502C35.0704 75.3202 35.2304 74.5802 35.3304 73.7802C34.8604 73.5902 34.3704 74.2902 33.8404 74.4102ZM13.4304 74.0702C11.6904 75.1902 9.47041 76.1302 8.03041 77.3502C10.2604 77.4402 12.9804 75.7402 14.4704 77.3502C15.3604 75.7002 14.2304 75.0102 13.4304 74.0702ZM22.4004 81.8302C23.3904 82.1402 24.0704 82.7602 25.1004 83.0402C24.5704 81.6902 23.2604 79.5302 22.4004 81.8302Z" fill="#282F39"/>
</svg>
