<svg width="143" height="87" viewBox="0 0 143 87" fill="none" xmlns="http://www.w3.org/2000/svg">
<path fill-rule="evenodd" clip-rule="evenodd" d="M82.32 14.8998C82.39 15.8198 81.47 16.5198 80.65 16.8298C79.11 17.4198 76.82 17.0898 75.25 16.7598C75.45 16.4498 76.27 16.7598 76.59 16.5598C77.18 15.5998 79.1 16.0698 80.39 15.4898C81.18 15.1498 81.56 14.2798 82.32 14.8998Z" fill="#282F39"/>
<path fill-rule="evenodd" clip-rule="evenodd" d="M135.4 23.2397C135.94 24.2597 136.38 25.6997 136.06 27.2397C136.01 27.4897 135.76 27.7997 135.59 28.1097C135.14 28.9297 134.7 30.0697 134.26 30.7797C134.33 31.0597 134.28 31.0797 134.26 31.3797C133.62 32.4497 133.67 34.2097 132.86 35.1097C132.56 35.1597 132.53 35.2897 132.26 35.1097C131.89 36.0097 131.51 36.8797 130.93 37.8497C130.43 38.6797 129.54 39.4797 129.33 40.2497C129.17 40.8297 129.36 41.3897 129 41.8497C128.81 42.0897 128.49 42.1297 128.27 42.3197C127.8 42.7197 127.47 43.7297 126.54 43.4497C126.53 42.2697 127.37 41.3997 128.21 40.8497C128.27 38.7497 129.95 37.3697 131.08 36.1797C132.23 34.9597 132.64 33.6597 133.48 32.1797C132.61 30.8897 134.41 28.4397 135.01 27.3797C135.09 26.3697 134.47 25.3297 134.68 24.4497C134.79 23.9197 135.55 23.8797 135.4 23.2397Z" fill="#282F39"/>
<path fill-rule="evenodd" clip-rule="evenodd" d="M69.8496 36.98C70.1796 36.91 70.3196 37.15 70.5196 37.18C71.4996 37.36 73.6696 36.93 73.6496 37.78C73.6296 38.81 70.4796 37.68 70.0496 37.38C69.9396 37.3 69.7596 37.12 69.8496 36.98Z" fill="#282F39"/>
<path fill-rule="evenodd" clip-rule="evenodd" d="M80.9193 37.7798C80.0593 38.1098 79.2493 38.5598 78.3193 38.9798C77.3493 39.4098 76.5593 39.9098 75.3193 39.7798C75.8693 38.8198 77.2293 38.3198 78.5193 38.0498C79.2593 37.8898 80.0993 37.8198 80.9193 37.7798Z" fill="#282F39"/>
<path fill-rule="evenodd" clip-rule="evenodd" d="M135.34 6.76962C135.03 8.11962 135.51 9.15961 135.27 10.5096C135.18 10.9996 134.8 11.3096 134.6 11.7096C134.43 12.0596 133.99 13.0496 133.93 13.4396C133.81 14.2596 133.97 15.1196 134.8 15.1696C134.57 15.9496 135.36 16.0496 135.6 16.4996C135.84 16.9396 135.69 17.4496 135.87 18.0996C136.06 18.8196 136.77 19.4196 137.14 20.2296C138.47 23.1896 138.65 27.2896 138.54 31.8996C139.61 31.4996 140.29 30.1396 141.14 29.2996C142.73 29.3796 141.98 31.5696 141.81 33.0996C141.67 34.3996 141.52 35.3796 141.34 36.3696C140.39 41.8696 139.32 46.7296 138.61 52.5096C138.48 53.5796 138.16 54.6096 138.01 55.6496C137.86 56.6596 137.86 57.7696 137.74 58.8496C136.83 66.9996 136.72 76.6296 136.81 85.3196C136.07 85.4796 134.82 86.0796 134.21 85.2496C134.32 80.7796 134.35 75.8196 134.54 71.3096C134.57 70.5396 134.65 69.7996 134.54 69.0396C134.35 67.7396 134.12 65.6296 134.21 63.9696C129.64 63.3296 123.73 63.5896 118.74 63.4396C118.55 69.3796 118.67 75.8896 118.67 82.5096C118.67 83.4796 118.81 84.5796 118.6 85.1096C118.31 85.8296 117.15 86.2896 116.07 86.0396C115.83 85.8996 115.84 85.5196 115.67 85.3096C114.92 85.2196 114.16 85.4096 113.47 85.5096C111.09 85.8696 108.25 85.5296 105.93 85.7796C104.83 85.8996 103.76 86.2196 102.73 85.7096C102.52 85.4796 102.44 85.1096 102.33 84.7796C101.44 84.7196 100.17 85.1496 99.9995 84.3796C99.7795 83.4396 101.74 82.9696 102.53 82.6496C103.76 82.1496 104.78 81.7596 105.46 81.3196C106.26 81.2196 107.68 80.7396 107.66 79.8496C107.65 79.2296 106.47 78.8596 106.33 78.2496C106.25 77.9096 106.49 77.5096 106.46 77.1196C106.44 76.7696 106.18 76.4996 106.19 76.2496C106.21 75.7896 106.69 75.5796 106.72 75.1196C106.76 74.4596 106.03 73.7196 105.79 72.9896C105.7 72.7196 105.67 72.3796 105.59 72.0596C105.22 70.4996 104.69 68.5296 104.39 66.8596C104.24 65.9896 104.2 65.0796 103.99 64.2596C103.9 63.8996 103.63 63.5396 103.46 63.1296C103 62.0296 102.59 60.6996 102.19 59.4596C101.48 57.2496 100.21 54.2696 101.59 52.3196C101.61 52.0396 101.39 51.9896 101.46 51.6496C101.92 50.8696 102.21 49.9096 102.86 49.3196C103 49.2096 103.46 49.2096 103.53 49.3896C104.32 48.6896 105.32 48.2296 106.26 47.7196C107.22 47.2196 108.19 46.6596 109.33 46.3896C109.55 45.1996 110.76 44.7996 111.73 44.1896C113.35 43.1796 114.97 41.2996 117 40.9196C117.28 40.8396 117.29 41.0296 117.47 41.0496C117.22 40.7896 117.62 40.7096 117.6 40.1796C118.07 39.4996 118.85 39.5296 119.47 39.1096C120.01 38.7396 120.4 37.8396 120.8 37.2396C121.26 36.5696 121.68 35.9796 122.07 35.3696C121.46 34.1696 122.44 32.5296 123.14 31.3696C123.75 30.3596 124.45 29.4796 124.87 28.6396C124.91 27.7496 125.59 27.1096 125.87 26.2996C126.21 25.3296 126.34 24.3496 126.8 23.4996C127.25 22.6696 127.96 22.1496 128.34 21.2996C128.37 20.9096 128.05 20.8296 128.07 20.4296C128.09 20.0496 128.52 19.9496 128.6 19.5596C128.68 19.1696 128.33 19.1196 128.53 18.6896C128.68 18.2196 129.26 18.3596 129.33 17.8896C129.39 17.4696 128.97 17.1896 128.73 16.8196C128.37 16.7896 128.33 17.0896 127.93 17.0196C127 16.4896 126.61 15.2096 126.06 14.0796C125.4 12.7296 124.85 11.1996 124.99 9.34961C125.01 9.04961 125.18 8.69961 125.12 8.41961C125.02 7.84961 124.36 7.48962 123.85 7.28962C123.92 6.83962 124.46 6.64961 124.85 6.41961C125.6 5.98961 126.34 5.54962 127.18 5.01962C127.94 4.53962 127.94 4.38962 129.05 4.28962C129.38 4.25962 129.71 4.09962 129.98 4.08962C131.02 4.04962 131.85 4.71961 132.98 4.61961C133.28 4.98961 133.51 5.42962 134.11 5.48962C134.28 5.62962 134.33 5.89962 134.38 6.15962C134.71 6.37962 135.18 6.40962 135.34 6.76962ZM132.47 21.5096C131.98 22.3896 131.62 23.4996 131.07 24.4496C130.58 25.2896 130.03 26.1296 129.53 26.9796C128.54 28.6596 127.31 30.3896 126.73 32.3096C126.5 33.0496 126.66 33.9596 126.46 34.7796C126.38 35.0896 126.06 35.3096 125.92 35.5796C125.45 36.5096 125.12 37.6396 124.85 38.7096C124.13 39.3196 123.41 39.9296 122.72 40.5796C122.44 40.5396 122.33 40.3496 122.05 40.3096C119.57 41.1696 117.39 42.3696 115.52 43.7796C114.85 44.2796 114.29 44.8696 113.59 45.1796C113.2 45.3496 112.57 45.2196 112.66 45.9796C113.8 45.8696 114.41 45.3896 115.33 45.1096C115.98 44.9196 116.69 44.8096 117.4 44.6396C118.73 44.3296 120.13 43.7596 121.53 43.7096C122.87 43.6596 124.54 43.8796 126 43.7796C126.13 44.2496 126.73 44.2496 126.93 44.6496C126.91 44.9796 126.55 44.9796 126.6 45.3796C127.05 45.7496 127.61 46.0196 127.6 46.8496C129.19 47.1196 130.39 48.6096 132.14 47.9196C132.15 46.6096 132.73 45.7796 133.34 44.6496C133.74 43.9096 134.13 43.0996 134.47 42.3196C135.41 40.1496 136.44 38.1196 137.07 35.7796C137.24 35.1596 137.52 34.4996 137.54 33.9796C137.55 33.6596 137.43 33.3496 137.41 33.0496C137.17 29.2296 136.83 25.5596 136.61 21.3796C135.35 21.0196 135.45 19.2896 134.81 18.3096C134.28 18.3896 133.69 18.9696 132.81 18.9096C131.54 19.9496 129.84 20.5596 129.01 22.0396C128.85 22.0896 128.63 21.7196 128.61 22.0396C127.84 23.7896 127.95 25.4896 126.94 26.8396C126.71 27.1496 126.23 27.2596 126.01 27.5696C125.7 27.9996 125.62 28.8196 125.41 29.4396C125.09 30.4196 124.88 31.3696 124.34 31.9096C124.99 32.3496 124.26 34.1696 124.81 34.7096C124.85 33.5096 125.4 32.9296 125.81 32.0396C126.08 31.4596 126.29 30.8196 126.54 30.2396C127.96 26.9996 129.81 24.0696 132.07 21.8396C132.2 21.7196 132.37 21.2596 132.67 21.4396C132.58 21.4396 132.58 21.5296 132.47 21.5096ZM126.27 6.83962C126.43 6.94962 126.66 6.98962 126.87 7.03962C126.85 6.90962 126.94 6.88962 126.94 6.76962C126.81 6.67962 126.29 6.61962 126.27 6.83962ZM128.07 8.03962C127.44 7.90962 126.78 8.32962 126 8.30962C125.92 9.80962 126.23 10.9596 126.6 12.1096C127.07 13.5596 127.95 14.5896 128.14 16.1796C128.89 15.9496 129.48 15.3896 130.01 14.9096C130.33 14.6196 130.61 14.2296 130.81 13.8396C130.19 13.1296 129.95 11.2596 130.34 10.1696C130.6 10.0096 130.93 9.91961 131.08 9.63961C131.08 9.36961 131.08 9.10962 131.08 8.83962C130.69 8.66962 130.42 8.38961 130.08 8.16961C129.56 8.13961 129.62 8.68962 129.41 8.96962C128.83 8.86962 128.66 8.15962 128.07 8.03962ZM132.47 8.76962C132.479 8.95962 132.41 9.22962 132.6 9.23962C132.61 8.97962 132.93 9.02962 132.93 8.76962C132.93 8.65962 132.88 8.59962 132.8 8.56961C132.8 8.73961 132.55 8.67962 132.47 8.76962ZM129.93 16.1696C130 16.4096 130.1 16.6296 130.2 16.8396C131.04 16.9596 131.79 15.8396 131.13 15.2996C130.77 15.6296 130.69 16.2396 129.93 16.1696ZM134.07 16.3696C133.07 16.8896 131.78 17.0996 131 17.8396C130.33 17.8796 129.62 18.8696 130.47 19.0396C131.2 19.1896 131.94 18.1296 132.6 17.6396C133.29 17.1296 134.11 16.8896 134.27 16.4396C134.18 16.4296 134.18 16.3496 134.07 16.3696ZM137.67 38.5096C138.71 38.1696 138.86 35.6696 138.8 34.4396C138.52 35.8996 137.92 37.0296 137.67 38.5096ZM139.87 36.1796C140.05 36.1296 140 36.3096 140.14 36.3096C140.33 36.0796 140.34 35.3296 140.14 35.1096C140.04 35.4596 139.91 35.7696 139.87 36.1796ZM140.07 36.5796C139.93 36.6196 139.86 36.7196 139.74 36.7796C138.98 38.6896 138.63 40.9796 138.14 43.3096C137.93 44.3096 137.63 45.2896 137.41 46.3096C137.17 47.3996 137.08 48.5096 136.88 49.5796C136.74 50.3196 136.46 51.0296 136.35 51.7796C136.16 53.0496 136.11 54.3996 135.62 55.2496C136.13 56.9196 133.99 56.6496 132.82 56.6496C129.74 56.6596 126.34 56.3596 122.35 56.5796C121.31 56.6396 120.04 56.7796 118.62 56.8496C117.45 56.9096 115.39 57.2396 114.89 56.7796C114.66 56.5796 114.87 56.0896 114.69 55.9096C114.03 56.0496 113.68 55.5496 113.16 55.7796C113.15 56.1496 113.32 56.3296 113.42 56.5796C113.7 56.6396 113.9 56.4396 114.02 56.8496C114.61 56.9696 115.59 57.0496 115.49 57.6496C114.77 58.1196 114.21 56.9896 113.62 57.1196C114.48 58.7896 113.8 61.7996 113.69 63.9196C115.8 64.6696 115.52 68.4096 115.36 70.9896C115.32 71.5996 115.02 72.4996 115.89 72.5896C116.44 67.9096 115.65 62.3096 116.22 57.6496C120.44 57.0296 125.12 57.3196 129.76 57.3196C131.2 57.3196 132.61 57.5096 133.9 57.4496C134.6 57.4196 135.42 57.1996 135.9 57.8496C135.79 59.1196 135.86 60.5596 135.63 61.7196C132.06 61.8596 128.01 61.8596 124.23 61.7196C121.93 61.6396 119.45 61.9896 117.89 61.3196C117.77 60.8496 117.82 60.1596 117.82 59.5196C117.82 58.8696 118.01 58.1596 117.75 57.9196C117.7 57.7696 117.38 57.8896 117.22 57.8496C117.12 61.5296 117.23 65.8496 117.09 70.0496C116.94 74.2796 116.76 77.7696 116.76 81.8496C116.76 83.0496 116.48 84.4596 117.16 85.1196C117.93 84.7096 117.63 83.6296 117.63 82.9196C117.63 76.0896 117.71 68.9296 117.96 62.6496C123.81 62.4796 129.99 62.5696 135.63 62.8496C135.6 66.7596 135.37 70.0296 135.5 73.7896C135.93 69.5996 136 65.5796 136.43 61.6496C136.64 59.7596 136.67 57.8496 136.96 56.1196C137.06 55.5396 137.27 55.0196 137.29 54.4496C137.3 54.0996 137.2 53.7796 137.22 53.4496C137.27 52.7696 137.53 52.0896 137.62 51.3796C138.27 46.1596 139.53 41.4396 140.22 36.4396C140.22 36.3996 140.21 36.3596 140.15 36.3696C140.06 36.3896 140.07 36.4796 140.07 36.5796ZM137.2 41.5096C137.43 41.4896 137.83 41.0196 137.47 40.8396C137.479 41.1596 137.09 41.0896 137.2 41.5096ZM124.53 44.4496C125.03 44.3996 125.33 44.5396 125.8 44.5196C125.82 43.6996 124.87 44.3996 124.53 44.4496ZM136.47 44.9796C136.66 45.0396 136.64 44.8896 136.8 44.9096C136.85 44.7296 136.98 44.1796 136.73 44.1096C136.68 44.4096 136.27 44.6396 136.47 44.9796ZM121.13 47.5096C121.67 47.5096 122.76 46.3696 123.8 46.5096C124.14 46.5596 124.58 46.7996 124.47 47.2396C124.19 48.2896 122.51 48.8596 122.2 49.9696C122.96 49.6296 123.54 49.0296 124.2 48.5696C124.89 48.0796 125.62 47.7096 126.33 47.2396C125.42 46.5996 124.17 45.7796 124.33 44.4996C122.68 44.9196 122.1 46.4096 121.13 47.5096ZM121.27 45.3796C121.33 45.6996 121.18 45.8196 121.14 46.0496C117.85 48.1796 115.05 50.8096 112.94 54.1196C113.62 54.3196 114.23 53.8696 114.54 53.5896C115.21 52.9896 115.8 52.1296 116.47 51.3896C118.09 49.6196 119.6 47.4196 121.47 46.0496C121.84 45.7796 122.3 45.5296 122.54 45.1196C122.47 45.1196 122.46 45.0696 122.41 45.0496C122.07 45.2096 121.67 45.2996 121.27 45.3796ZM115.93 46.2496C115.37 46.4996 114.73 47.3696 114.26 47.7796C112.94 48.9496 112.04 49.8196 110.99 51.0496C110.51 51.6096 109.86 52.1596 109.72 52.9196C110.88 53.0996 111.69 52.0596 112.45 51.4496C114.68 49.6696 116.95 47.8296 119.12 46.1096C119.25 46.0096 119.68 45.9396 119.52 45.6396C118.36 46.0896 116.91 45.7996 115.93 46.2496ZM111.06 46.2496C111.16 46.3396 111.59 46.3896 111.6 46.1796C111.47 46.0596 111.12 46.0896 111.06 46.2496ZM110.33 47.7096C109.37 49.7796 108.02 51.4496 107.06 53.5096C107.23 54.1496 106.83 54.7896 106.59 55.5796C106.08 57.2796 105.19 60.0896 106.79 61.0496C107.39 60.1796 107.79 59.1196 108.32 58.1796C108.86 57.2296 109.51 56.3696 109.92 55.5096C109.37 55.1396 108.66 54.3996 107.99 54.5796C107.51 52.8096 108.86 52.1296 109.66 51.1796C111.01 49.5696 112.61 47.9296 114.13 46.7096C112.68 46.8596 111.55 47.3296 110.33 47.7096ZM104.26 53.1196C104.08 53.1196 103.88 53.0996 103.79 53.1896C103.67 54.4196 104.18 55.0196 104.32 55.9896C104.79 55.8196 105.06 56.5096 105.19 56.2596C105.87 52.6896 107.81 50.3796 109.66 47.9896C106.61 48.1796 105.88 51.2596 104.26 53.1196ZM127.53 47.9796C126.51 48.8896 125.52 49.8296 124.73 50.9796C125.96 50.2096 127.06 49.3096 128.26 48.5096C128.13 48.2296 127.86 48.0696 127.53 47.9796ZM103.79 50.8496C103.67 50.6896 103.26 50.7996 103.19 50.9196C103.23 51.1296 103.25 51.3596 103.32 51.5196C103.68 51.5296 103.66 51.1496 103.85 50.9896C104.52 51.6896 104.83 50.6896 105.32 50.1196C105.76 49.6096 106.18 49.3496 106.32 48.9896C105.02 49.1396 104.58 50.1596 103.79 50.8496ZM133 50.5096C132.8 53.2596 130.64 54.0596 128.8 55.1796C130.46 55.5196 132.74 55.5896 134.67 55.4496C135.14 55.0596 135.29 54.3396 135.34 53.5096C134.07 53.2196 133.78 51.9596 133.67 50.5096C133.55 50.4896 133.12 50.4896 133 50.5096ZM111.4 53.5796C111.57 53.5696 111.61 53.6796 111.73 53.7096C111.97 53.4996 112.47 52.9296 112.2 52.6496C112 53.0296 111.35 52.9596 111.4 53.5796ZM117.33 53.8496C117.67 53.7996 118.3 53.4996 118.4 52.9796C117.86 53.0896 117.72 53.5896 117.33 53.8496ZM126.4 55.3196C126.22 55.3196 126.04 55.3196 125.87 55.3196C125.56 55.3596 125.07 55.2296 124.87 55.3896C125.33 55.4796 126.21 55.4396 126.4 55.3196ZM103.93 57.3196C103.86 57.0096 103.67 56.8296 103.53 56.5896C103.45 57.0196 103.65 57.4496 103.93 57.3196ZM110.8 62.6496C110.98 62.3496 111.21 61.9596 111.53 61.5796C111.84 61.2196 112.3 60.8196 112.33 60.5096C112.35 60.2396 112.13 59.5596 112 59.3096C111.82 58.9596 111.41 58.6096 111.13 58.1696C110.86 57.7396 110.64 57.2396 110.26 57.0396C110.22 57.0396 110.17 57.0396 110.13 57.0396C109.68 57.9296 109.17 59.0896 108.6 60.3796C108.11 61.4796 107.38 62.7396 107.4 63.7096C107.42 64.5096 107.92 65.4196 108.2 66.1796C109.46 65.4296 109.95 64.0396 110.8 62.6496ZM104.19 58.9196C104.37 58.3696 104.16 57.7296 103.79 57.5196C103.69 57.9896 103.81 58.7196 104.19 58.9196ZM118.8 58.1796C118.77 58.7696 118.76 59.8996 118.87 60.5796C123.91 60.5896 129.21 60.9596 134.14 60.6496C134.35 60.1096 134.23 59.3296 134.14 58.7196C129.22 58.2696 123.62 58.3796 118.8 58.1796ZM105.46 62.1796C105.73 61.8096 105.77 61.5396 105.39 61.2496C105.44 61.5396 105.31 62.0096 105.46 62.1796ZM109.73 68.5896C109.63 68.9996 109.69 69.4496 109.6 69.8596C109.44 70.5096 109.16 71.2096 109.53 71.9896C110.41 71.5896 110.93 70.6696 111.6 69.6596C112.05 68.9696 112.85 67.1796 113.8 67.3296C114.29 68.0196 113.59 68.7296 113.33 69.3296C113.04 69.9996 112.76 70.7596 112.53 71.4696C112.05 72.9396 111.53 74.4496 111.46 76.0696C112.19 75.4396 112.48 74.0596 113.13 73.1396C113.31 72.8696 113.61 72.7796 113.73 72.4696C113.91 71.9896 113.94 71.0096 114.06 70.1996C114.28 68.7296 114.74 66.3396 114.06 65.1996C113.72 65.0296 113.25 64.9896 112.86 64.8696C112.2 64.1796 112.77 62.6796 112.59 61.7396C112.52 61.7396 112.46 61.7396 112.39 61.7396C111.64 63.9396 110.34 66.0896 109.73 68.5896ZM106 63.5896C105.96 63.4296 106.08 63.1096 105.93 63.0596C105.81 63.1696 105.84 63.5296 106 63.5896ZM106.46 71.1196C106.81 70.1996 107.3 69.4196 107.79 68.6496C107.04 66.8996 106.09 70.3396 106.46 71.1196ZM109.86 73.3196C109.93 73.5096 109.94 73.7696 110.19 73.7896C110.23 73.5196 110.38 73.3596 110.39 73.0596C110.06 72.9896 110.03 73.2196 109.86 73.3196ZM115.53 74.0496C115.42 74.7196 115.42 75.6096 115.46 76.2496C115.53 77.3196 115.25 78.5896 115.66 79.3796C115.92 77.7196 115.89 75.4996 115.79 73.5796C115.86 73.8996 115.6 73.8796 115.53 74.0496ZM114.93 74.1196C114.82 73.9896 114.72 73.8396 114.53 73.7896C114.12 74.6796 113.69 76.2196 113.8 77.1896C114.18 76.1696 115.24 75.8296 114.93 74.1196ZM109.8 78.6496C109.94 78.9796 110.36 78.9196 110.47 78.5796C110.26 78.3496 109.95 78.3796 109.8 78.6496ZM109.66 82.3196C109.51 82.6196 109.35 83.5696 109.86 83.5896C110.45 82.9796 110.98 82.3096 111.26 81.3896C110.49 81.4696 110.25 82.0696 109.66 82.3196ZM112.66 81.5196C112.54 81.8596 112.41 82.1996 112.39 82.6496C112.89 82.7596 113.09 82.0196 113.86 82.1796C114.47 83.0496 113.2 83.4896 112.99 84.1796C113.45 84.3396 113.99 84.0996 114.59 84.1796C114.91 83.6896 114.97 82.6196 114.86 81.9096C114.35 81.5696 113.43 81.6196 112.66 81.5196ZM106.86 84.4596C107.47 84.3996 107.68 83.3896 108.39 83.8596C108.35 84.0896 108.15 84.1496 108.19 84.4596C108.33 84.5896 108.63 84.5096 108.79 84.4596C108.59 84.1896 108.64 83.1396 108.52 82.7296C107.97 83.2196 106.17 83.3596 106.86 84.4596ZM110.73 84.3896C110.95 84.4296 111.04 84.3396 111.2 84.3196C111.2 84.2296 111.2 84.1396 111.2 84.0496C111.14 83.9296 110.97 83.9296 110.87 83.8496C110.79 83.9996 110.69 84.1296 110.73 84.3896ZM105.2 84.6596C105.36 84.7096 105.66 84.7896 105.8 84.6596C105.81 84.4496 105.8 84.2596 105.67 84.1896C105.51 84.3496 105.32 84.4696 105.2 84.6596Z" fill="#282F39"/>
<path fill-rule="evenodd" clip-rule="evenodd" d="M80.9194 4.09981C81.0294 4.42981 81.0894 4.81981 81.0494 5.29981C81.2194 5.47981 81.6295 5.33981 81.7795 5.62981C81.9895 6.01981 81.6195 6.46981 81.5095 6.89981C81.3695 7.49981 81.4294 8.25981 81.2394 8.96981C80.9494 10.0598 80.1794 10.8398 79.9694 11.4998C80.9494 13.1498 83.2394 13.2398 85.2394 14.1698C86.4794 14.7498 87.8094 15.0698 87.9794 16.5698C88.6094 17.0998 88.6094 17.8798 88.8494 18.5698C88.9594 18.8798 89.2195 19.1298 89.3195 19.4398C89.7795 20.8398 89.6194 22.2798 89.9194 23.8398C90.1494 25.0598 91.0995 26.0898 91.3895 27.2398C91.8695 29.1798 91.8394 31.6998 92.1194 33.7698C92.2094 34.4398 92.4495 35.1098 92.5195 35.7698C92.6295 36.8198 92.4595 37.9498 92.5895 39.0398C92.7595 40.6298 94.0394 42.9298 92.9194 44.6398C93.9094 44.7498 94.0594 46.7298 93.7194 48.1098C93.4894 49.0298 92.4694 49.6098 92.0494 50.4398C91.7394 51.0698 91.4694 51.9998 91.1194 52.8398C90.8094 53.5898 90.3394 54.3998 90.1194 55.1098C89.9894 55.5298 90.0194 56.0398 89.9194 56.5098C89.7694 57.1798 89.4795 57.5998 89.5895 58.4398C89.6495 58.9498 89.8794 59.3798 89.9194 60.0398C90.1794 63.9798 89.9394 68.3798 90.1894 72.7798C90.4294 77.0298 90.7194 81.2598 90.6594 85.1798C90.4194 85.8598 89.1195 85.9598 88.5895 85.4498C87.9195 79.0098 88.2594 71.5598 87.7194 64.9798C86.8994 66.6498 86.0194 68.2598 85.0494 69.7798C85.0294 70.1098 85.1694 70.2898 85.1194 70.6498C84.7394 72.4098 82.6495 72.9198 82.5195 74.6498C82.4895 75.0098 82.7195 75.3598 82.6495 75.7198C82.5695 76.1598 82.1894 76.3498 81.8494 76.6498C82.2494 77.6398 82.2494 78.8798 82.8494 80.1198C83.1294 80.7098 83.5095 81.2798 83.7795 81.9198C84.1695 82.8298 84.9394 83.9898 84.1094 84.5898C83.5994 84.9598 82.5294 84.6198 81.9094 84.9898C80.2194 84.5498 76.9094 85.5598 76.1694 83.8598C75.6994 83.8998 75.3994 83.7898 75.0994 83.6598C74.3694 84.3398 73.0294 84.6198 71.3594 84.7298C70.7194 84.7698 70.1494 84.9798 69.6894 84.9298C68.4694 84.7898 66.6594 83.1698 68.4194 82.3898C68.7794 82.2298 69.3394 82.2598 69.6194 81.9898C69.8894 81.7198 69.7095 81.2898 69.8195 80.9198C69.8695 80.7398 70.1294 80.5898 70.2194 80.3198C70.3294 80.0198 70.3494 79.4898 70.4894 79.0498C70.6494 78.5598 70.8695 78.1698 70.8195 77.8498C70.7495 77.3098 70.1695 77.1598 70.0195 76.5798C69.9295 76.2498 70.0595 75.9398 70.0195 75.5798C69.8795 74.2498 69.1595 73.0598 68.9495 71.8398C68.7995 70.9998 68.7194 70.3398 68.4194 69.6398C67.3994 67.3098 65.3394 65.3298 64.4194 63.1698C64.1894 63.8798 64.6194 64.7998 64.6894 65.6998C64.8094 67.2398 64.5894 68.9998 64.4894 70.6998C64.2594 74.7198 63.9194 78.6098 63.5594 82.7698C63.4394 84.2098 63.3495 85.6298 61.9595 85.5698C60.3195 85.4998 60.9395 83.3898 61.0295 81.8998C61.3695 76.3898 61.6994 70.9398 62.0994 65.4298C62.1594 64.5498 62.1794 63.5798 62.2994 62.6998C62.4194 61.8398 62.7495 60.9198 62.6995 60.2298C62.6495 59.5498 62.1095 58.8298 61.8295 58.2298C60.9395 56.3098 60.0795 54.2998 59.7595 51.8298C59.4595 51.3098 59.2994 50.6398 59.3594 49.7598C59.4694 49.5098 59.7695 49.4598 60.0295 49.3598C59.2795 48.9198 58.7995 45.0298 60.0295 44.7598C60.4995 44.6498 60.7794 44.9798 61.2994 45.0898C61.3694 44.6398 61.0294 44.4498 60.9694 44.0898C60.6494 42.4198 60.9894 39.7498 61.2394 38.0898C61.3894 37.0898 61.8395 35.8498 61.7695 34.6198C61.7495 34.1798 61.5195 33.7598 61.5695 33.0898C61.6495 32.0698 62.1294 30.8298 62.4394 29.6898C62.7494 28.5598 63.0995 27.3498 63.5095 26.4898C63.9895 25.4898 64.8094 24.6498 65.0394 23.6898C65.4494 21.9798 65.4394 20.2898 66.1094 18.8198C66.5494 17.8698 67.4294 17.1098 68.0494 16.2198C68.6594 15.3398 69.3594 14.3498 70.1794 13.8198C71.4094 13.0298 73.1895 12.9498 74.6495 12.4198C74.7195 11.9798 74.8394 11.5798 74.9794 11.2198C74.5894 10.6298 74.3594 9.77981 73.8494 8.94981C73.4794 8.34981 72.8294 8.02981 72.7194 7.40981C72.5694 6.63981 72.8495 5.88981 73.6495 5.73981C73.5995 3.75981 74.7394 1.71981 76.0494 0.93981C76.4494 0.69981 77.1195 0.499809 77.6495 0.669809C78.0095 0.789809 78.1095 1.25981 78.4495 1.39981C78.8095 1.54981 79.5694 1.46981 79.8494 1.39981C80.3494 1.27981 80.6794 0.72981 81.1794 0.86981C81.4994 0.95981 81.9094 1.92981 81.9094 2.26981C81.9194 2.99981 81.0794 3.56981 80.9194 4.09981ZM77.5195 4.09981C77.3095 4.01981 77.1694 3.86981 76.9194 3.82981C76.0494 4.24981 75.4394 4.92981 74.9194 5.69981C74.9094 5.97981 75.0394 6.06981 74.9194 6.29981C74.7694 6.43981 74.4895 6.44981 74.4495 6.69981C75.0195 7.82981 74.7195 9.67981 75.5795 10.5698C75.9695 10.9698 76.4794 10.8898 77.1794 11.0998C77.4694 11.1898 77.7994 11.4698 78.0494 11.4298C78.3794 11.3798 79.1595 10.4898 79.3795 10.0998C80.1995 8.65981 80.3794 5.76981 79.9794 4.29981C78.9794 4.41981 78.5395 3.97981 77.5195 4.09981ZM76.3195 12.0998C75.9595 12.6698 76.2894 13.9298 75.7894 14.3698C75.2794 14.3698 75.4194 13.7198 75.1894 13.4398C74.1194 13.2998 73.8094 13.9198 72.9894 14.0398C73.1094 15.1298 74.4795 15.2998 74.3895 16.3698C73.1995 16.4498 73.0995 14.9198 72.4595 14.2398C71.2595 14.9298 69.9894 15.5498 68.7294 16.1698C68.8894 16.4698 68.7894 16.5498 68.7294 16.8998C67.7694 17.6298 66.7894 20.1798 66.5994 21.5698C66.5194 22.1398 66.4895 22.5098 66.3995 22.8398C66.1895 23.6198 66.1394 24.6398 65.8694 25.2398C65.4794 26.1098 64.8994 26.9698 64.4694 27.9098C64.0294 28.8698 63.4395 29.9098 63.2695 30.8398C62.8895 32.9698 62.8594 35.5098 62.8694 37.8398C62.8694 38.2298 62.9794 38.5698 62.9394 38.9698C62.7894 40.2498 61.6194 41.5098 61.8694 42.9698C61.9094 43.1998 62.1495 43.3698 62.1995 43.6398C62.2695 43.9798 61.9795 44.4298 62.3995 44.6398C63.2295 44.8898 63.7195 44.4798 64.3295 44.1698C64.7095 43.9798 65.0895 43.8798 65.2595 43.6998C65.5095 43.4298 66.1494 42.2798 66.1894 41.9698C66.2394 41.6398 66.0694 41.2098 66.1194 40.8398C66.2094 40.2298 66.7094 39.7898 66.6594 39.2398C66.5694 38.3598 65.5195 37.6698 65.5295 36.8398C65.5395 35.7998 66.6494 35.4098 66.8594 34.6398C66.9294 34.3598 66.8094 33.9998 66.8594 33.6398C67.0294 32.3998 68.1295 31.1498 68.2595 29.9698C68.3095 29.4798 68.1094 28.8898 68.1894 28.3698C68.2794 27.7998 68.6195 27.3098 68.6495 26.7698C68.6695 26.5398 68.5895 26.2698 68.5795 26.0398C68.5195 23.6298 69.4494 21.6198 70.1794 19.4998C70.5994 21.5298 69.7595 23.4498 69.5795 25.4998C69.4695 26.7298 69.8594 27.9698 69.9094 29.2298C69.9594 30.6198 69.7095 32.3698 69.6395 33.8998C69.6095 34.5898 69.7095 35.5998 69.5695 36.2398C69.4995 36.5898 69.1394 36.7898 69.0994 37.2398C69.0794 37.5198 69.2594 37.8098 69.2294 38.1098C69.1894 38.6198 68.5594 39.3798 68.4294 40.1098C68.3794 40.3698 68.4894 40.6698 68.4294 40.8398C68.3594 41.0398 67.9795 41.1598 68.0295 41.3698C70.8995 41.9298 72.9495 43.2998 75.7695 43.9098C75.8595 44.1998 75.7495 44.2798 75.7695 44.6398C76.2895 44.7298 76.6094 44.2498 77.0994 44.2398C77.4394 44.2398 77.6795 44.5098 78.0295 44.5698C78.6495 44.6698 79.3495 44.4098 79.8295 44.7698C80.8095 43.9598 82.1394 43.4898 83.5594 43.1698C84.5494 42.9498 85.5794 42.9698 86.5594 42.6398C86.0094 42.4298 86.1295 41.5598 86.0295 40.9098C84.8395 41.1498 83.7194 42.6498 82.4994 42.9798C81.6294 43.2098 80.9295 42.6598 81.0295 41.8498C81.1295 41.0898 82.3295 40.7198 82.9595 40.3798C83.8295 39.9198 84.4994 39.5898 85.1594 39.1098C85.3294 39.0098 85.6795 39.0898 85.8295 38.9798C85.7695 38.4298 85.7695 38.0598 85.8295 37.5098C85.3095 37.1398 84.6394 36.9198 84.5594 36.1098C84.0694 36.2798 83.5995 37.1298 83.0295 36.7798C83.1495 35.8898 84.3995 35.7598 84.8995 35.1798C86.3695 33.4498 84.8595 31.5698 84.6995 29.4498C84.5995 28.1998 85.0194 27.1298 85.0994 25.9798C85.2294 23.9698 84.5295 21.9498 85.0295 20.0498C85.5795 21.4198 86.0494 22.8198 86.1594 24.4498C86.2194 25.3498 85.9795 26.2298 86.0295 27.1198C86.0595 27.8198 86.4194 28.4598 86.3594 29.1198C86.3294 29.4898 86.1394 29.7898 86.1594 30.1198C86.2394 31.6298 87.6694 33.0998 87.2294 34.8498C87.7694 35.7598 88.7594 36.4698 88.2994 37.7898C88.1594 38.1798 87.5095 38.5098 87.5695 38.9898C87.6195 39.4498 88.5495 39.7598 88.6395 40.3198C88.8195 41.5098 87.4194 42.5598 88.3694 43.6498C88.4094 43.8798 87.9394 44.1898 88.2394 44.2498C88.7494 44.3798 88.8194 43.8698 89.2394 43.7798C89.8294 43.6598 90.3394 44.3898 91.0394 44.0498C91.1294 42.2498 91.3094 40.0498 91.1094 37.9798C91.0294 37.2198 90.8394 36.6498 90.9094 35.9798C91.0594 34.5398 91.5495 32.1598 90.6395 31.3098C90.1295 29.7698 90.4194 27.7798 90.0394 26.3698C89.9094 25.8898 89.4794 25.7398 89.2994 25.3698C88.7394 24.1898 89.1595 22.6798 89.0295 21.2998C88.9595 20.5098 88.7195 19.8598 88.6995 19.0998C88.6095 18.9298 88.1295 19.1298 88.0295 18.9698C87.4395 16.0298 84.2094 15.5698 82.0994 14.2998C81.6294 14.6998 80.7895 14.2698 80.8295 13.5698C80.3495 13.2198 79.8194 13.4198 79.4294 13.4998C78.9894 12.4498 77.4295 12.4998 76.3195 12.0998ZM67.3795 37.3798C67.9095 37.2598 68.2595 35.9898 67.7795 35.5098C67.5195 35.9398 66.6295 36.9698 67.3795 37.3798ZM85.8594 44.2498C84.6694 45.5998 81.6195 48.9598 81.3195 50.9898C81.2195 51.6598 81.3495 52.3998 81.4495 52.7898C82.6195 50.9198 83.5494 48.7398 85.1194 47.2498C85.8394 46.5698 86.4495 45.7598 87.4495 45.5798C87.6295 45.2898 87.8894 45.0898 87.8494 44.5798C87.3194 44.6298 86.2894 43.7498 85.8594 44.2498ZM69.0494 46.1798C69.6094 45.6298 70.1595 45.0698 70.5195 44.3098C69.5995 44.2598 69.1494 45.1998 69.0494 46.1798ZM83.6594 44.6498C83.7094 44.9298 83.5394 45.4398 83.7894 45.5198C84.1694 45.0998 84.6294 44.7598 85.0594 44.3898C84.5494 44.1798 84.0294 44.4998 83.6594 44.6498ZM72.2494 44.7798C72.0494 45.3398 71.3195 46.0598 71.4495 46.5098C71.8295 45.9298 72.3494 45.4998 72.7194 44.9098C72.6094 44.8198 72.4994 44.7398 72.2494 44.7798ZM64.9794 45.9798C64.6994 45.9298 64.6695 45.6198 64.3795 45.5798C63.9995 46.0398 63.0695 46.3398 62.6495 45.7098C62.0595 46.4698 61.3395 46.3198 60.4495 46.1798C60.2495 48.1198 60.3595 50.0298 61.6495 50.5198C62.6095 49.4998 60.5794 48.0398 61.8494 47.3898C61.8594 47.4698 61.9494 47.4598 62.0494 47.4598C62.2694 48.5498 62.3294 49.7998 63.1794 50.2598C63.2894 49.2698 63.3094 48.1398 63.1794 47.2598C64.5194 46.6198 63.6895 49.5198 64.5095 49.4598C64.7695 48.0498 64.6195 45.6198 66.6395 46.5898C66.7195 45.9498 66.0495 45.4998 65.6395 45.1198C65.4095 45.3898 65.3494 45.8298 64.9794 45.9798ZM89.6594 46.1098C89.7194 44.2498 88.1994 45.6998 88.0594 46.3098C87.8794 47.1098 88.5095 47.8398 88.3895 48.5098C88.7995 48.5398 89.0395 48.3998 89.2595 48.2398C89.4195 47.9598 89.2795 47.3698 89.5295 47.1698C90.2395 47.2098 89.6994 48.2398 89.8594 48.8998C90.0694 49.1798 90.1695 49.5598 90.5895 49.6298C91.2795 49.2498 91.2494 48.1498 91.8594 47.6898C92.1994 48.3298 91.3794 48.8498 91.7894 49.3598C92.0394 49.2098 92.1594 48.9298 92.6594 49.0298C92.6494 48.7298 93.1195 48.3198 93.2595 47.7598C93.3795 47.2998 93.3495 46.3998 93.2595 46.1598C92.9595 45.3898 92.3394 46.1498 91.8594 46.2298C91.6494 45.7298 91.2095 45.2098 90.5295 45.5598C90.3895 45.8398 90.2894 46.1698 89.9294 46.2298C89.8794 46.1598 89.7794 46.1198 89.6594 46.1098ZM71.1794 46.9098C71.2594 46.8098 71.4194 46.6298 71.1794 46.5798C71.1494 46.6198 71.0294 46.8998 71.1794 46.9098ZM67.9894 47.9798C68.2994 47.6398 68.7394 47.0998 68.7194 46.6498C68.6494 46.6498 68.5895 46.6498 68.5195 46.6498C68.3695 47.1198 67.9794 47.3498 67.9894 47.9798ZM68.8494 50.1798C70.0094 49.5098 70.3894 48.0798 71.0494 46.9098C70.2994 47.9798 69.2294 48.7398 68.8494 50.1798ZM85.7894 47.5098C84.5994 49.8698 82.5594 52.4398 81.7894 55.1098C81.6994 55.4198 81.5994 55.8198 81.7894 56.1798C82.3494 55.7198 82.5694 54.9798 82.9194 54.3798C84.0094 52.4898 85.0994 50.6398 86.9194 49.5098C87.1394 49.4598 87.3295 49.3898 87.5195 49.3098C87.5295 48.7198 87.1794 48.4898 87.1794 47.9098C86.5694 47.9398 86.3094 47.5898 85.7894 47.5098ZM65.9194 47.6498C65.6994 48.5398 65.4294 49.3798 65.2494 50.3198C65.0394 50.5298 64.6395 50.5598 64.3795 50.7198C63.7795 52.2798 62.6595 54.0098 62.7795 55.8598C64.2095 55.2798 64.5294 53.8198 65.1794 52.3198C65.5194 51.5398 66.1794 50.7098 66.3094 50.0498C66.4894 49.1798 66.2695 48.4698 66.5795 47.7198C66.3395 47.7198 66.0594 47.5398 65.9194 47.6498ZM87.1194 50.4498C86.9794 50.4098 86.9094 50.2598 86.7894 50.3798C85.3194 52.6198 83.8294 55.1198 82.6594 57.6498C82.2594 58.5098 81.7594 59.4898 81.7894 60.3898C82.2094 60.1898 82.3495 59.6698 82.5895 59.2598C83.8895 56.9998 85.2994 55.0798 86.9894 53.1298C87.5294 52.5098 89.0094 50.6098 89.7894 51.5998C90.0394 51.3698 90.1795 51.0098 90.3195 50.6698C89.9095 50.3198 89.5394 49.9398 89.1894 49.5398C88.7994 50.0598 87.9095 49.9898 87.5895 49.4698C87.5695 49.9198 87.2094 50.0498 87.1194 50.4498ZM59.9094 51.2498C60.1594 51.0198 60.6794 50.2498 60.1794 49.9198C59.9794 50.2798 59.7994 50.7598 59.9094 51.2498ZM61.0494 52.9198C61.2794 53.4398 61.3795 54.0398 61.7795 54.1898C62.1095 53.1198 62.5394 52.1498 62.9094 51.1198C62.8194 51.0498 62.6595 51.0598 62.6395 50.9198C62.1995 51.5498 60.9795 51.3598 60.7095 50.7198C60.2195 51.4998 60.6994 52.1298 61.0494 52.9198ZM78.0494 51.5198C77.6894 51.4698 77.1095 51.8098 76.6495 51.8498C75.7495 51.9298 75.4994 52.1998 74.8494 52.3198C74.2794 52.4198 73.7995 52.2898 73.3795 52.5198C74.9595 52.8098 77.0994 52.8798 78.8494 52.7898C78.8894 52.2298 78.5294 51.5798 78.0494 51.5198ZM67.2494 51.5798C66.5594 52.7098 65.9895 53.8998 65.5195 55.3798C65.3095 56.0198 65.0694 56.7298 64.9194 57.4498C64.7694 58.1098 64.4594 59.0198 64.9894 59.6498C65.6194 58.4598 65.9895 57.0698 66.4595 55.7798C66.9395 54.4598 67.5495 53.2698 68.1295 52.1098C67.9095 51.8498 67.5794 51.7198 67.2494 51.5798ZM81.3195 65.0498C81.9495 64.3898 82.4494 63.5598 82.9894 62.7198C83.4394 62.0198 83.8595 61.2798 84.3195 60.5898C85.0495 59.5098 86.3495 57.4998 87.4495 56.8498C87.6295 56.7498 87.8294 56.7798 87.9894 56.6498C88.2594 56.4098 88.6694 55.6398 88.7194 55.3198C88.7494 55.1098 88.6295 54.7898 88.6495 54.5198C88.7095 53.7198 89.5194 52.8098 89.1794 52.4498C86.3994 56.4798 83.3195 60.2198 81.3195 65.0498ZM68.1194 57.2498C67.4294 58.6498 66.7795 59.9998 66.6495 61.6498C66.6195 62.0798 66.5194 62.6698 66.8494 63.1198C67.5694 62.6798 67.5494 61.7098 67.7194 60.9898C68.0894 59.3598 68.4994 57.7498 69.0494 56.3198C69.4794 55.1998 70.2794 54.2498 70.0494 52.8498C69.9794 52.8498 69.9194 52.8498 69.8494 52.8498C69.3394 54.3198 68.8294 55.8098 68.1194 57.2498ZM75.8494 53.9098C74.5194 53.9798 72.9595 53.6098 71.7095 53.7098C71.6395 53.9598 71.8294 54.4598 71.9794 54.7098C74.4994 54.4498 77.5794 54.8798 79.9094 54.5798C79.9094 54.3998 79.9094 54.2198 79.9094 54.0498C78.7294 53.4798 77.2894 53.8398 75.8494 53.9098ZM71.7894 55.6498C71.8094 56.5798 71.6994 58.1698 71.9194 59.1198C74.2794 59.0598 77.3495 59.1298 79.3895 59.3898C79.4895 58.2398 79.6694 56.8198 79.6594 55.7898C77.0094 55.8398 74.0994 55.4698 71.7894 55.6498ZM62.9194 56.9198C62.8594 57.4698 63.1295 57.6798 63.3895 57.9198C63.4695 57.5598 63.5495 57.1898 63.5895 56.7898C63.2595 56.7198 63.1394 56.8698 62.9194 56.9198ZM80.9194 58.3798C81.0094 57.9198 81.3595 57.7098 81.3895 57.1798C80.7995 56.6098 80.6294 58.0898 80.9194 58.3798ZM70.3195 59.9798C70.6195 60.0698 70.9595 59.8398 71.3895 59.9798C71.4595 59.6198 71.5695 59.3098 71.5895 58.9098C71.4395 58.7798 70.9394 59.0398 70.7194 58.8398C70.7194 58.7998 70.7095 58.7598 70.6495 58.7698C70.5595 59.2098 70.3195 59.4698 70.3195 59.9798ZM88.8594 63.7198C89.0694 65.4498 88.6694 67.1998 88.9294 68.7198C88.9394 68.7898 89.0094 68.7698 88.9994 68.6498C89.1894 65.4498 88.7995 62.1598 89.0695 59.0498C88.9795 59.0498 89.0094 58.9298 88.9394 58.9198C87.8694 60.3098 88.6394 61.9398 88.8594 63.7198ZM72.2494 60.2498C72.1994 60.2598 72.1694 60.3098 72.1794 60.3798C72.5994 60.6898 73.2494 60.5098 73.8494 60.5098C75.7394 60.5098 78.2595 60.5998 79.3795 60.8398C79.4695 60.6498 79.4695 60.3698 79.3795 60.1698C77.2895 60.2598 74.2394 60.0598 72.2494 60.2498ZM63.1794 61.5198C63.5094 64.7298 62.9595 67.9898 62.7795 71.2598C62.6595 73.4098 62.6195 75.5998 62.4495 77.7298C62.3995 78.3598 62.2194 78.9798 62.1794 79.5998C62.1394 80.3198 62.2394 81.0398 62.1794 81.7398C62.1094 82.4698 61.6494 83.6298 62.1094 84.3398C62.4894 81.2298 62.7894 77.7098 63.0394 74.1398C63.2994 70.5498 63.3695 66.8598 63.7695 63.7398C63.8195 63.3698 64.0694 62.9698 64.0394 62.6098C63.9894 62.1398 63.5394 61.7198 63.2394 61.3398C63.2494 61.3998 63.1594 61.4098 63.1794 61.5198ZM78.7894 61.6498C77.1294 61.9198 74.0795 61.4098 72.5895 61.6498C72.7195 63.4898 73.2595 65.7898 73.3895 67.7798C73.4195 68.1998 73.3295 68.6098 73.3895 68.9798C73.4895 69.5998 73.9495 70.1098 73.4595 70.6498C73.9295 71.6798 74.3494 72.9898 74.9894 73.7798C75.1994 74.0398 75.4294 74.4698 75.7894 74.4498C76.0094 73.9798 75.9194 73.7398 76.0594 73.3798C76.4194 72.4398 77.9995 71.4998 78.1295 70.8498C78.2295 70.3298 77.8494 69.5198 77.7994 68.7798C77.6894 67.1898 78.0794 66.7098 78.8694 66.0498C78.6394 65.1898 78.7494 64.3998 78.9394 63.7198C79.1694 62.8898 79.9694 62.0998 79.4694 61.3798C79.4194 61.3798 79.3795 61.3798 79.3395 61.3798C79.1495 61.4998 78.9794 61.6198 78.7894 61.6498ZM80.6594 62.8498C80.7994 62.4598 81.0895 62.2198 81.1295 61.7198C81.0595 61.4998 80.7894 61.4898 80.5994 61.3898C80.4994 61.8098 80.0094 62.6598 80.6594 62.8498ZM83.6594 64.7798C84.6894 64.0798 85.4894 63.1398 85.6594 61.5798C85.6394 61.5298 85.5995 61.4998 85.5295 61.5098C84.9095 62.6098 84.1494 63.5698 83.6594 64.7798ZM71.3795 64.4498C71.7495 64.3498 71.5595 63.5498 71.4495 63.3198C71.4095 63.6498 71.2095 64.1198 71.3795 64.4498ZM79.5195 68.2498C79.8395 68.1898 79.9594 67.9298 79.9894 67.5798C79.6594 67.3998 79.4395 67.8198 79.5195 68.2498ZM89.5195 84.5898C89.7595 80.5698 89.3494 76.6298 89.1894 72.7898C88.9795 76.7398 89.2095 81.1598 89.5195 84.5898ZM78.4595 78.7198C78.8595 78.5198 79.0394 78.0898 79.0594 77.5198C78.7094 77.5098 78.6395 77.2298 78.2595 77.2498C78.1895 77.6198 78.4695 78.1898 78.4595 78.7198ZM76.4495 81.5898C76.5795 80.7098 76.8695 79.6598 76.6495 78.6598C76.5795 78.6598 76.5195 78.6598 76.4495 78.6598C76.3095 79.4198 76.1895 80.8498 76.4495 81.5898Z" fill="#282F39"/>
<path fill-rule="evenodd" clip-rule="evenodd" d="M11.6398 3.82975C12.0698 3.81975 12.0298 4.27975 12.1698 4.55975C12.6898 4.51975 12.7998 4.17975 13.2398 4.35975C13.6798 4.53975 13.5598 4.89975 13.6398 5.42975C14.1498 5.67975 14.6498 5.92975 14.9698 6.35975C15.9698 6.40975 16.8598 6.90975 16.6398 7.95975C15.7098 7.86975 15.7098 6.83975 14.8398 6.69975C14.3098 6.66975 13.3698 6.83975 12.6998 6.62975C12.3998 6.52975 12.1798 6.05975 11.6998 5.89975C10.6298 5.52975 7.48977 5.99975 6.82977 6.42975C6.28977 6.78975 5.38977 7.74975 6.35977 8.15975C5.85977 9.30975 4.71978 10.9097 5.42978 12.4297C5.81978 12.6597 5.74979 12.0897 6.15979 12.1597C7.22979 12.6897 7.36978 13.7197 8.02978 14.7597C8.21978 15.0597 8.64979 15.5098 8.75979 15.4897C8.90979 15.4697 9.63979 14.0997 9.68979 13.8897C10.1198 12.2997 8.4598 12.3597 8.8898 10.7597C9.2698 9.32975 11.8598 7.95975 11.6198 10.8897C11.7698 10.7597 11.6398 10.3397 11.6898 10.0897C12.6198 9.59975 13.3098 8.04975 14.8298 8.95975C14.6398 8.60975 14.2198 8.29975 14.4298 7.75975C15.2698 7.34975 15.8398 8.16975 16.5598 8.28975C16.5598 8.52975 16.2098 8.42975 16.0898 8.55975C16.2298 9.15975 16.3798 10.8798 16.2898 11.8298C16.2298 12.4598 15.8898 12.6198 15.4898 12.8997C14.8798 14.9297 15.3698 18.3497 12.7598 18.1697C12.8698 18.9697 13.8998 19.6098 13.8898 20.4398C13.8898 20.8398 13.3098 21.2297 13.2898 21.6397C13.2798 21.8997 13.6398 22.8297 13.8198 23.1697C13.9798 23.4697 14.2798 23.6297 14.4898 23.8997C14.7998 24.2897 15.0698 24.7397 15.4198 25.1697C16.5998 26.5997 17.4898 28.5497 18.6198 30.1697C19.0398 30.7697 19.5098 31.2897 19.7498 32.1697C20.9398 32.2697 21.0598 33.4397 21.2798 34.4997C22.4998 34.6197 23.5898 34.8597 23.8098 35.9697C24.4598 36.2297 25.0298 36.8797 25.0098 37.8997C25.0098 38.1797 24.8198 38.4497 24.7398 38.8298C24.6198 39.4098 24.7498 40.1397 24.6098 40.5697C24.5098 40.8597 23.7398 41.7497 23.4798 41.9697C23.2098 42.1898 22.9998 42.2197 22.8098 42.3698C22.6698 42.8097 23.0398 43.2898 22.9398 43.9098C24.3598 44.5198 26.0098 44.5497 27.6098 44.8397C29.1498 45.1197 30.6698 45.5497 32.2098 45.8397C33.5298 46.0897 34.7998 46.0798 36.0098 46.3698C38.1098 46.8797 40.0298 47.8597 41.6798 48.8397C41.8998 49.4197 42.4698 49.6497 42.8798 50.0397C43.2098 51.0497 42.8798 52.1198 42.8098 53.0397C43.8198 54.6497 43.6898 57.3997 44.4098 59.3097C44.5198 60.3997 44.4998 61.4598 44.6798 62.4398C44.8698 63.4998 45.3498 64.3898 45.6798 65.3698C46.0398 66.4298 46.0598 67.5297 46.2798 68.6397C46.3498 68.9797 46.6098 69.2897 46.6798 69.6397C46.7998 70.2397 46.6698 70.8897 46.8098 71.5098C47.0998 72.8197 48.2698 74.0098 47.8098 76.0397C48.8698 76.7998 48.8298 78.2097 49.3398 79.3097C49.4798 79.6097 49.7798 79.7598 49.9398 80.0397C50.1998 80.4997 50.2798 80.9797 50.7398 81.3097C51.4298 81.7997 52.3998 82.1397 53.2098 82.6397C53.9998 83.1297 54.8998 83.4898 55.4098 84.2398C55.3898 84.5798 54.7898 84.3298 54.8798 84.7797C55.2698 84.9897 56.2398 84.9598 56.6798 84.9098C56.6298 84.6698 56.0398 84.3997 55.5498 84.3798C56.4998 83.5998 58.5998 84.9698 57.2198 85.7098C56.8198 85.9198 55.3998 85.9098 54.5498 85.9098C52.3098 85.9098 49.0598 85.8398 46.8198 85.7098C46.0098 85.6698 44.9998 85.2897 44.8798 84.7797C44.8198 84.4997 44.9898 84.1598 45.0098 83.8498C45.0798 82.9598 44.6998 82.2797 45.0798 81.5197C44.2798 80.8297 42.2598 80.7297 42.9498 78.9897C42.8198 78.3797 42.2398 78.3897 42.0198 77.7197C41.7598 76.9098 42.0098 75.9097 41.4898 75.3897C41.0098 74.9197 40.2498 75.2397 39.7498 74.7197C39.8598 73.6298 39.0798 73.0397 38.8798 72.0498C38.4698 72.3098 38.3898 72.8698 38.1498 73.3197C37.9398 73.7097 37.6098 74.0897 37.4198 74.5197C37.2598 74.8597 37.2398 75.3097 37.0898 75.7197C36.6798 76.7998 35.7498 77.2397 36.0898 78.8497C36.1698 79.2297 36.5898 79.3897 36.6198 79.7797C36.6498 80.1097 36.3098 80.3197 36.2898 80.6497C37.8498 82.3497 41.0698 82.4097 42.5598 84.1797C42.5698 84.6297 42.7198 85.1697 42.5598 85.5798C41.6698 86.0098 40.3898 85.9398 38.9598 85.9098C36.6498 85.8698 33.4698 85.3697 31.2898 85.1797C30.6598 85.1297 30.2098 85.3298 29.8898 85.0498C29.5398 84.7398 29.4398 82.6697 29.5598 81.6497C29.6098 81.2097 29.8598 80.7997 29.8898 80.5197C29.9198 80.2597 29.7998 80.0498 29.8198 79.7197C29.8698 79.1598 30.1298 78.4297 30.1498 77.5897C30.1898 76.2697 29.6098 74.6397 29.6798 72.8597C29.7098 72.1898 29.6798 71.5798 29.6798 70.9297C29.6798 69.6898 30.1098 67.9997 30.2798 66.7298C30.4598 65.3498 30.8798 64.3397 31.8798 63.8597C32.1498 61.3597 30.5198 59.9198 31.0798 57.1198C29.7898 56.9398 28.1098 57.4098 27.0098 57.0498C26.7898 59.6298 27.0898 63.8697 26.9398 67.2497C26.9098 67.9798 26.7498 68.6697 26.7398 69.3197C26.7298 69.7897 26.9398 70.2597 26.6098 70.5897C27.4398 74.9297 27.0698 80.4497 27.1398 85.2597C26.4298 85.8097 25.0798 85.4697 24.7398 84.8597C24.4198 80.6998 24.7798 76.5297 24.7398 72.5197C24.7198 70.6497 24.3598 68.7598 24.2698 66.8497C24.2098 65.5497 24.3298 64.2397 24.1998 62.9197C23.4698 62.6797 22.7398 62.9998 21.9998 63.0498C17.8298 63.3698 13.1198 62.6497 9.12979 63.0498C9.03979 70.1097 9.37978 77.5797 9.05978 84.5897C8.39978 85.3397 7.16979 85.0597 6.25979 84.7197C5.68979 78.1598 5.97979 71.0397 5.65979 63.7097C5.19979 53.2097 2.89978 44.0797 1.58978 35.6297C1.43978 34.6297 1.31979 33.7597 1.18979 32.6297C1.02979 31.2797 0.269793 28.6298 1.78979 28.7598C2.35979 28.8097 2.5998 29.6797 2.9198 30.0897C3.4398 30.7497 4.35978 31.2198 4.64978 31.6198C4.94978 29.2898 4.34977 27.2697 4.51977 25.0197C4.58977 24.0697 4.91979 23.2397 5.18979 22.4197C5.62979 21.0797 6.4298 19.9598 5.7298 18.5498C5.9398 17.9598 6.63979 17.8597 6.65979 17.0798C6.63979 16.7098 7.15979 16.8697 7.25979 16.6097C7.17979 16.0397 7.06979 15.4997 6.71979 15.0097C6.56979 14.7897 6.25978 14.6497 6.11978 14.4097C5.97978 14.1697 6.00979 13.8497 5.84979 13.6097C5.53979 13.1397 4.7698 12.9797 4.9798 11.9397C3.4998 11.6397 4.95979 9.35975 5.50979 8.66975C5.37979 8.45975 4.78978 8.53975 4.70978 8.13975C4.62978 7.75975 5.11979 7.39975 5.50979 7.06975C5.79979 6.82975 6.40977 6.56975 6.57977 6.33975C6.72977 6.12975 6.72979 5.62975 6.84979 5.46975C7.63979 4.39975 10.4698 4.61975 11.5798 5.06975C11.8398 4.76975 11.3698 4.22975 11.6398 3.82975ZM12.2998 11.2997C11.9398 11.2997 12.0898 11.7997 11.6998 11.7697C11.3098 11.3597 11.3598 10.5097 10.7698 10.2997C10.4498 10.6297 10.0098 10.8197 9.89978 11.3697C10.1498 11.7397 10.4498 11.7097 10.6998 12.0397C11.3398 12.8897 10.7298 14.5297 10.4998 15.4397C10.9898 16.4597 12.4198 16.5397 13.2998 17.1697C14.4298 15.6097 14.9698 12.4697 14.4298 9.89975C13.3898 9.56975 12.3098 10.1797 12.2998 11.2997ZM10.0998 17.3697C10.4198 17.7497 10.7998 18.2397 11.4298 18.0997C11.5198 17.8997 11.6198 17.7197 11.6998 17.4997C11.2698 17.0597 10.9698 16.4997 10.5698 16.0297C10.0398 16.1097 10.2398 16.9097 10.0998 17.3697ZM7.1698 18.4398C7.3798 18.9398 7.70979 19.3197 8.03979 19.7097C8.22979 19.1797 8.48979 18.7297 8.50979 18.0397C8.12979 17.2997 7.1798 17.6098 7.1698 18.4398ZM8.76977 21.1097C9.64977 20.9297 8.71979 20.0998 8.96979 19.5798C9.35979 19.4598 9.67979 19.2598 9.90979 18.9798C10.0698 19.2198 9.88976 19.7998 10.0398 20.0498C10.4298 20.1698 10.9498 20.4397 11.4398 20.2497C11.8498 20.5897 12.5698 20.6397 13.1698 20.4497C13.2198 20.1797 13.1098 20.0697 13.0998 19.8497C11.9898 18.8897 10.1798 18.6398 8.6998 18.0498C8.6798 18.9798 8.35977 20.3697 8.76977 21.1097ZM10.1698 22.8397C10.2598 22.7297 10.3298 22.2397 10.0398 22.3097C10.0598 22.5097 9.95977 22.8197 10.1698 22.8397ZM8.96979 23.6397C8.19979 23.4997 8.00978 24.1997 7.89978 24.7697C7.56978 26.5297 7.47977 28.8597 7.82977 29.8397C7.81977 30.1897 7.37977 30.0998 7.35977 30.4398C7.40977 31.8798 7.23977 33.5397 7.48977 34.7697C8.03977 31.0597 8.46979 27.2198 9.81979 24.2998C9.42979 24.1398 9.32979 23.7097 8.96979 23.6397ZM10.6998 34.0397C11.5398 34.2497 12.1498 35.0297 12.8998 35.1097C12.9398 33.7097 12.7698 32.2597 12.7698 30.6397C12.7698 29.5497 13.3198 28.3298 13.0998 27.4398C12.9198 26.6798 11.8998 26.0497 11.7698 25.3097C11.6598 25.1097 11.3598 25.3997 11.2998 25.2397C11.3198 24.7097 11.0898 24.4298 10.6298 24.3698C9.90979 27.1198 8.97978 30.0097 8.95978 33.2397C8.73978 33.5197 8.58979 35.3897 8.75979 35.8397C8.71979 35.7197 8.90977 35.4397 8.82977 34.8397C8.99977 34.3897 9.32979 33.8097 9.09979 33.1697C9.21979 33.0497 9.41978 33.0097 9.49978 32.8397C10.0598 30.3297 9.98977 27.1997 11.1698 25.3097C11.2098 25.3097 11.2598 25.3097 11.2998 25.3097C10.9898 28.0297 10.3898 31.1297 10.6998 34.0397ZM6.96979 26.2397C7.01979 26.1897 7.14978 25.7797 6.89978 25.8397C6.93978 25.9597 6.81979 26.2297 6.96979 26.2397ZM6.76977 26.9098C6.72977 26.7698 6.8498 26.4698 6.6998 26.4398C6.6098 26.5298 6.56977 26.9098 6.76977 26.9098ZM6.49978 28.7797C6.45978 28.4197 6.58978 27.8897 6.42978 27.6397C6.37978 27.9997 6.28978 28.5097 6.49978 28.7797ZM13.9698 35.7097C15.2398 36.0897 15.0798 37.8897 16.4398 38.1797C16.4398 37.5897 16.2798 37.1398 16.2398 36.5798C16.1998 36.0597 16.3698 35.3397 16.1698 34.8497C16.0598 34.5797 15.4498 34.3198 15.2398 34.0498C14.3598 32.8998 14.5298 31.2497 15.1698 29.8497C14.8198 29.3597 14.4598 28.8697 13.9698 28.5197C13.5598 30.7397 13.7198 33.4297 13.9698 35.7097ZM16.0998 33.3097C17.2998 33.1197 17.6098 33.9498 17.8298 34.9098C18.9998 34.8998 18.8698 36.1797 19.8298 36.3797C19.8698 35.4897 20.6198 33.5097 19.6998 33.1097C19.1598 33.3697 19.7198 34.7197 18.8998 34.7097C17.9898 34.1297 18.6998 31.9298 18.1698 30.9798C17.7198 31.4598 18.3798 32.9598 17.4998 32.9798C16.5498 32.9998 17.0298 30.1898 16.4298 29.5798C14.8798 29.9198 15.7498 32.2597 16.0998 33.3097ZM5.2298 37.7797C5.2398 36.6797 4.67977 35.5697 4.29977 34.6497C4.34977 35.9097 4.4498 37.4697 5.2298 37.7797ZM3.09979 35.6397C3.16979 35.4597 3.21979 35.0798 2.96979 35.0397C2.88979 35.2297 2.90979 35.5397 3.09979 35.6397ZM17.0398 35.7097C16.9598 36.9497 17.2298 37.8398 17.3098 38.9098C17.9398 39.5998 18.7398 40.0997 18.9098 41.2397C19.0598 41.3397 19.2998 41.0897 19.5098 41.0397C19.2598 39.9097 19.0098 38.7798 19.1098 37.2998C18.4598 36.7798 17.8698 35.8297 17.0398 35.7097ZM2.96979 36.2397C3.57979 39.9197 4.36979 43.8197 5.09979 47.7797C5.45979 49.6897 5.74979 51.7197 5.96979 53.7097C6.22979 56.0897 6.6798 58.3797 6.6998 60.6497C6.7398 65.9297 7.1698 71.8997 7.1698 77.3197C7.1698 79.1597 7.14977 81.1198 7.29977 82.8597C7.33977 83.2897 7.11978 84.2497 7.89978 84.2597C8.26978 83.9697 8.09979 83.4397 8.09979 83.0597C8.09979 76.0897 7.90978 68.7598 8.02978 62.1198C13.3098 61.6898 19.8098 61.9798 25.2998 62.1898C26.0298 69.2598 25.1498 77.5897 25.8298 84.3997C26.1098 84.0997 25.8698 83.2698 25.8998 82.5998C25.9698 80.6098 26.1698 78.2497 26.1698 75.7998C26.1698 74.6598 26.1498 73.4498 26.2398 72.3298C26.3298 71.1697 26.5398 70.0397 26.4398 69.0597C26.3498 68.2197 25.9898 67.1997 25.8998 66.0597C25.7398 63.8097 25.6898 61.0998 25.6998 59.2598C25.6998 58.7197 26.1198 57.3398 25.5698 57.2598C24.9098 57.1698 25.2398 58.3397 25.2398 58.9297C25.2398 59.8397 25.3198 60.7497 25.1698 60.9997C20.8998 61.3597 16.2898 60.9997 12.0998 61.1997C10.6698 61.2697 9.20978 61.4797 7.95978 60.9997C8.14978 59.3897 7.42977 58.3397 7.48977 57.0697C8.10977 56.6997 8.88978 56.8698 9.61978 56.8698C13.6498 56.8698 17.7598 56.6497 21.8198 56.6697C23.4198 56.6797 24.9198 56.9397 26.3498 56.9997C26.0198 56.2097 24.8998 56.3097 23.9498 56.2697C19.5198 56.0897 15.3898 55.8697 11.0098 56.0697C9.97979 56.1197 7.98977 56.1697 7.60977 55.7397C7.30977 55.3997 7.54979 55.1397 7.40979 54.5397C7.29979 54.0697 7.02979 53.6997 6.93979 53.2097C6.84979 52.7097 6.82977 52.1597 6.73977 51.6097C6.57977 50.6097 6.22979 49.5998 6.06979 48.6097C5.40979 44.3197 4.4798 39.9097 3.1998 36.2097C3.1298 36.2097 3.11979 36.1597 3.06979 36.1397C3.06979 36.0997 3.05978 36.0597 2.99978 36.0697C3.03978 36.1397 2.99979 36.1897 2.96979 36.2397ZM20.1698 37.5098C20.1698 38.3997 20.1698 39.2797 20.5698 39.7797C20.6498 38.9497 21.0298 37.8498 20.7698 37.1097C20.6298 37.2997 20.3698 37.3797 20.1698 37.5098ZM21.3698 41.3097C21.4498 41.1697 21.7298 41.2298 21.6298 40.9098C21.5398 40.9098 21.4498 40.9098 21.3698 40.9098C21.3198 40.9598 21.2198 41.2797 21.3698 41.3097ZM7.6998 52.9798C7.7898 53.7998 7.90978 54.5998 8.49978 54.9098C10.8998 54.9798 13.0198 54.7697 15.2398 54.6397C14.2898 53.4097 12.9498 52.5697 12.5698 50.7697C12.1098 50.1897 11.1198 49.8497 10.7698 49.0997C10.4098 48.3397 10.5298 47.2597 10.2398 46.4997C9.81977 45.3997 8.95979 44.2698 8.50979 43.2998C8.63979 45.9998 10.8098 51.8398 7.6998 52.9798ZM6.49978 44.3097C6.67978 44.0297 6.3898 43.7297 6.1698 43.6397C6.1298 44.0197 6.19978 44.2797 6.49978 44.3097ZM22.2398 49.7097C23.2498 49.0697 24.2398 48.4197 25.1698 47.7097C23.6598 47.1397 23.0798 48.9697 22.2398 49.7097ZM34.1798 47.5798C33.9998 47.7098 33.8598 47.8797 33.7798 48.1097C32.0498 49.4297 30.7298 51.1598 29.1798 52.5798C28.6598 53.0498 27.8498 53.4497 27.8498 54.3097C30.0898 54.8997 30.6498 52.9297 31.6498 51.7797C32.6198 50.6497 33.6498 49.8397 34.9198 49.0397C35.4198 48.7297 36.6298 48.0498 37.1898 48.5098C38.0098 49.1898 36.4398 50.0197 35.9898 50.3797C34.7998 51.3297 34.0198 52.0798 32.9898 52.9798C32.5098 53.3997 31.9098 53.8297 31.7898 54.4497C32.3698 54.7997 33.0598 54.3898 33.4598 54.1198C34.4598 53.4498 35.2998 52.3397 36.2598 51.4597C37.2698 50.5397 38.3898 49.8497 39.3298 48.9897C37.9198 48.1897 36.0898 47.8498 34.1798 47.5798ZM28.7098 47.7097C28.7098 47.7997 28.5898 47.7697 28.5798 47.8397C27.3198 48.8797 26.4098 50.4297 25.3798 51.6397C25.0398 52.0397 24.5598 52.3597 24.3798 52.8397C25.6198 52.3897 26.4998 51.5697 27.9198 51.3097C28.7298 50.2897 29.7898 49.3397 30.7898 48.5798C31.1298 48.3198 31.5698 48.0897 31.7198 47.7097C30.7098 47.7097 29.7098 47.7097 28.7098 47.7097ZM40.9098 53.3097C41.2098 53.1297 41.6098 53.0497 41.9098 52.8397C43.2998 51.8997 41.8098 50.0397 40.7798 49.5697C38.9698 50.5697 37.4798 51.8698 36.1798 53.3698C36.4198 53.2498 36.7298 53.3197 36.8498 53.4997C35.6698 54.7397 33.4798 55.3297 33.5798 57.6397C33.6898 57.6397 33.7498 57.6897 33.7798 57.7697C34.3498 57.5897 35.0098 57.4797 35.4498 57.8397C37.0198 56.4297 39.0398 54.4197 40.9098 53.3097ZM20.1698 51.8497C20.4298 51.6897 20.8098 51.2898 20.7698 51.0498C20.5698 51.3097 20.1398 51.3497 20.1698 51.8497ZM32.9098 64.2497C31.4198 64.5697 30.9998 66.2898 31.1798 68.0498C33.5798 64.9398 36.1198 61.9597 39.4498 59.7797C40.0898 57.7497 40.7598 55.7598 41.7798 54.1097C41.7798 53.9997 41.7298 53.9398 41.6498 53.9098C38.4198 57.0498 34.3298 59.3197 32.9098 64.2497ZM8.96979 58.1198C8.68979 58.6497 8.91979 59.6297 9.03979 60.1898C14.0998 60.2197 19.5898 59.9398 24.1798 60.1198C24.3798 59.4598 24.2198 58.5397 24.3098 57.6497C19.2998 57.6398 13.8298 57.7498 8.96979 58.1198ZM33.3098 58.6497C33.0898 59.0098 33.1598 59.7998 33.3798 60.1198C33.7198 59.5998 34.2498 59.2497 34.4498 58.5798C34.0698 58.6097 33.7498 58.6898 33.3098 58.6497ZM32.9798 67.9897C32.3798 68.7997 31.6398 69.6797 31.5098 70.7897C33.6398 70.3298 35.1998 68.6097 36.7798 67.3897C37.2398 67.0397 38.2798 66.5998 38.5098 66.1898C38.7598 65.7397 38.5498 65.1097 38.5798 64.5897C38.6298 63.3697 39.3998 62.2898 39.4498 61.0498C39.4398 60.9798 39.3798 60.9497 39.3198 60.9197C37.1398 63.2097 34.8598 65.4297 32.9798 67.9897ZM45.0398 68.7197C45.3098 68.5198 45.1798 67.6197 45.0398 67.3897C45.0398 67.8298 45.0398 68.2698 45.0398 68.7197ZM32.1698 74.7897C34.1098 74.3997 35.1898 72.5697 37.0398 71.8597C37.1998 70.6598 37.9798 69.3897 37.7698 68.2598C35.7898 70.3098 33.5298 72.0997 32.1698 74.7897ZM31.1698 72.0498C31.1698 72.3997 30.9998 72.8698 31.1698 73.1797C31.5098 72.7397 32.1198 72.2197 32.1698 71.7097C31.7598 71.7497 31.4898 71.9297 31.1698 72.0498ZM35.6398 74.5197C34.5098 75.7897 33.1698 77.1998 32.5098 78.7197C33.1498 78.2698 34.2198 78.0197 34.6398 77.3197C34.7798 77.0897 34.7298 76.7497 34.8398 76.5197C35.1498 75.8597 35.8398 75.3497 35.7698 74.5897C35.7598 74.5397 35.7198 74.5097 35.6398 74.5197ZM31.5098 76.6497C31.6098 76.6898 31.6798 76.7497 31.7798 76.7797C31.9098 76.6397 31.9698 76.4398 32.0498 76.2497C31.7198 76.2397 31.4498 76.2797 31.5098 76.6497ZM34.3098 80.2598C34.5598 80.1497 34.8398 80.0697 34.8498 79.7298C34.7898 79.6298 34.7498 79.5197 34.5798 79.5297C34.5698 79.8298 34.1398 79.9898 34.3098 80.2598ZM31.3798 81.5897C31.5798 81.5397 31.6198 81.6598 31.7798 81.6598C31.9698 81.3498 32.1498 81.0497 32.1798 80.5897C31.5098 80.4097 31.4898 81.0897 31.3798 81.5897ZM30.9098 83.4598C31.0998 83.4598 31.1498 82.9698 30.9798 82.9898C30.8798 83.0798 30.9098 83.2798 30.9098 83.4598Z" fill="#282F39"/>
</svg>
